<?xml version="1.0" standalone="no" ?>
<!DOCTYPE svg PUBLIC "-//W3C//DTD SVG 1.1//EN" "http://www.w3.org/Graphics/SVG/1.1/DTD/svg11.dtd">
<svg width="838px" height="395px" xmlns="http://www.w3.org/2000/svg" version="1.1" viewBox="0 0 838 395" >
	<style type="text/css" > <![CDATA[
		@import url("https://www.ncbi.nlm.nih.gov/projects/sviewer/css/svg_fonts.css");
	]]>
	</style>
	<desc >Generated by NCBI Genome Workbench http://www.ncbi.nlm.nih.gov/tools/gbench/</desc>
	<defs >
		<clipPath id="clipping-rect1" >
			<rect x="0" y="14" width="838" height="20" />
		</clipPath>
		<linearGradient id="gradient1" gradientTransform="rotate(90)" >
			<stop offset="0%" stop-color="#6c6c6c" />
			<stop offset="50%" stop-color="#b5b5b5" />
			<stop offset="100%" stop-color="#6c6c6c" />
		</linearGradient>
		<linearGradient id="gradient2" gradientTransform="rotate(90)" >
			<stop offset="0%" stop-color="#10c010" />
			<stop offset="50%" stop-color="#87df87" />
			<stop offset="100%" stop-color="#10c010" />
		</linearGradient>
		<linearGradient id="gradient3" gradientTransform="rotate(90)" >
			<stop offset="0%" stop-color="#166e32" />
			<stop offset="50%" stop-color="#8ab698" />
			<stop offset="100%" stop-color="#166e32" />
		</linearGradient>
		<clipPath id="clipping-rect2" >
			<rect x="0" y="34" width="838" height="361" />
		</clipPath>
		<linearGradient id="gradient4" gradientTransform="rotate(90)" >
			<stop offset="0%" stop-color="#e6e6e6" stop-opacity="0.71" />
			<stop offset="100%" stop-color="#ffffff" stop-opacity="0.00" />
		</linearGradient>
		<linearGradient id="gradient5" gradientTransform="rotate(90)" >
			<stop offset="0%" stop-color="#8ca9c5" />
			<stop offset="50%" stop-color="#8ca9c5" />
			<stop offset="100%" stop-color="#8ca9c5" />
		</linearGradient>
		<linearGradient id="gradient6" gradientTransform="rotate(90)" >
			<stop offset="0%" stop-color="#1e568e" />
			<stop offset="100%" stop-color="#8ca9c5" />
		</linearGradient>
		<linearGradient id="gradient7" gradientTransform="rotate(90)" >
			<stop offset="0%" stop-color="#144f8a" />
			<stop offset="100%" stop-color="#8ca9c5" />
		</linearGradient>
		<linearGradient id="gradient8" gradientTransform="rotate(90)" >
			<stop offset="0%" stop-color="#104c88" />
			<stop offset="100%" stop-color="#8ca9c5" />
		</linearGradient>
		<linearGradient id="gradient9" gradientTransform="rotate(90)" >
			<stop offset="0%" stop-color="#0d4986" />
			<stop offset="100%" stop-color="#8ca9c5" />
		</linearGradient>
		<linearGradient id="gradient10" gradientTransform="rotate(90)" >
			<stop offset="0%" stop-color="#0b4885" />
			<stop offset="100%" stop-color="#8ca9c5" />
		</linearGradient>
		<linearGradient id="gradient11" gradientTransform="rotate(90)" >
			<stop offset="0%" stop-color="#084684" />
			<stop offset="100%" stop-color="#8ca9c5" />
		</linearGradient>
		<linearGradient id="gradient12" gradientTransform="rotate(90)" >
			<stop offset="0%" stop-color="#064583" />
			<stop offset="100%" stop-color="#8ca9c5" />
		</linearGradient>
		<linearGradient id="gradient13" gradientTransform="rotate(90)" >
			<stop offset="0%" stop-color="#074583" />
			<stop offset="100%" stop-color="#8ca9c5" />
		</linearGradient>
		<linearGradient id="gradient14" gradientTransform="rotate(90)" >
			<stop offset="0%" stop-color="#054382" />
			<stop offset="100%" stop-color="#8ca9c5" />
		</linearGradient>
		<linearGradient id="gradient15" gradientTransform="rotate(90)" >
			<stop offset="0%" stop-color="#004080" />
			<stop offset="100%" stop-color="#8ca9c5" />
		</linearGradient>
		<linearGradient id="gradient16" gradientTransform="rotate(90)" >
			<stop offset="0%" stop-color="#014080" />
			<stop offset="100%" stop-color="#8ca9c5" />
		</linearGradient>
		<linearGradient id="gradient17" gradientTransform="rotate(90)" >
			<stop offset="0%" stop-color="#024181" />
			<stop offset="100%" stop-color="#8ca9c5" />
		</linearGradient>
		<linearGradient id="gradient18" gradientTransform="rotate(90)" >
			<stop offset="0%" stop-color="#034281" />
			<stop offset="100%" stop-color="#8ca9c5" />
		</linearGradient>
		<linearGradient id="gradient19" gradientTransform="rotate(90)" >
			<stop offset="0%" stop-color="#044382" />
			<stop offset="100%" stop-color="#8ca9c5" />
		</linearGradient>
		<linearGradient id="gradient20" gradientTransform="rotate(90)" >
			<stop offset="0%" stop-color="#094784" />
			<stop offset="100%" stop-color="#8ca9c5" />
		</linearGradient>
		<linearGradient id="gradient21" gradientTransform="rotate(90)" >
			<stop offset="0%" stop-color="#2f6397" />
			<stop offset="100%" stop-color="#8ca9c5" />
		</linearGradient>
		<linearGradient id="gradient22" gradientTransform="rotate(90)" >
			<stop offset="0%" stop-color="#4976a4" />
			<stop offset="100%" stop-color="#8ca9c5" />
		</linearGradient>
		<linearGradient id="gradient23" gradientTransform="rotate(90)" >
			<stop offset="0%" stop-color="#6a90b5" />
			<stop offset="100%" stop-color="#8ca9c5" />
		</linearGradient>
		<linearGradient id="gradient24" gradientTransform="rotate(90)" >
			<stop offset="0%" stop-color="#205890" />
			<stop offset="100%" stop-color="#8ca9c5" />
		</linearGradient>
		<linearGradient id="gradient25" gradientTransform="rotate(90)" >
			<stop offset="0%" stop-color="#235a91" />
			<stop offset="100%" stop-color="#8ca9c5" />
		</linearGradient>
		<linearGradient id="gradient26" gradientTransform="rotate(90)" >
			<stop offset="0%" stop-color="#336699" />
			<stop offset="100%" stop-color="#8ca9c5" />
		</linearGradient>
		<linearGradient id="gradient27" gradientTransform="rotate(90)" >
			<stop offset="0%" stop-color="#5781ab" />
			<stop offset="100%" stop-color="#8ca9c5" />
		</linearGradient>
		<linearGradient id="gradient28" gradientTransform="rotate(90)" >
			<stop offset="0%" stop-color="#1a538d" />
			<stop offset="100%" stop-color="#8ca9c5" />
		</linearGradient>
		<linearGradient id="gradient29" gradientTransform="rotate(90)" >
			<stop offset="0%" stop-color="#16508b" />
			<stop offset="100%" stop-color="#8ca9c5" />
		</linearGradient>
		<linearGradient id="gradient30" gradientTransform="rotate(90)" >
			<stop offset="0%" stop-color="#17518b" />
			<stop offset="100%" stop-color="#8ca9c5" />
		</linearGradient>
		<linearGradient id="gradient31" gradientTransform="rotate(90)" >
			<stop offset="0%" stop-color="#18528c" />
			<stop offset="100%" stop-color="#8ca9c5" />
		</linearGradient>
		<linearGradient id="gradient32" gradientTransform="rotate(90)" >
			<stop offset="0%" stop-color="#4f7ba7" />
			<stop offset="100%" stop-color="#8ca9c5" />
		</linearGradient>
	</defs>
	<g >
		<polygon fill="#ffffff" shape-rendering="crispEdges" points="838.00,33.00 838.00,13.00 0.00,13.00 0.00,33.00 " />
		<line x1="0.02" y1="30.89" x2="837.98" y2="30.89" stroke="#7f7f7f" stroke-width="1.00" clip-path="url('#clipping-rect1')" />
		<line x1="9.72" y1="30.89" x2="9.72" y2="28.79" stroke="#7f7f7f" stroke-width="1.00" clip-path="url('#clipping-rect1')" />
		<line x1="19.47" y1="30.89" x2="19.47" y2="28.79" stroke="#7f7f7f" stroke-width="1.00" clip-path="url('#clipping-rect1')" />
		<line x1="29.21" y1="30.89" x2="29.21" y2="28.79" stroke="#7f7f7f" stroke-width="1.00" clip-path="url('#clipping-rect1')" />
		<line x1="38.96" y1="30.89" x2="38.96" y2="28.79" stroke="#7f7f7f" stroke-width="1.00" clip-path="url('#clipping-rect1')" />
		<line x1="48.71" y1="30.89" x2="48.71" y2="27.74" stroke="#7f7f7f" stroke-width="1.00" clip-path="url('#clipping-rect1')" />
		<line x1="58.45" y1="30.89" x2="58.45" y2="28.79" stroke="#7f7f7f" stroke-width="1.00" clip-path="url('#clipping-rect1')" />
		<line x1="68.20" y1="30.89" x2="68.20" y2="28.79" stroke="#7f7f7f" stroke-width="1.00" clip-path="url('#clipping-rect1')" />
		<line x1="77.95" y1="30.89" x2="77.95" y2="28.79" stroke="#7f7f7f" stroke-width="1.00" clip-path="url('#clipping-rect1')" />
		<line x1="87.69" y1="30.89" x2="87.69" y2="28.79" stroke="#7f7f7f" stroke-width="1.00" clip-path="url('#clipping-rect1')" />
		<line x1="97.44" y1="30.89" x2="97.44" y2="27.74" stroke="#7f7f7f" stroke-width="1.00" clip-path="url('#clipping-rect1')" />
		<line x1="107.19" y1="30.89" x2="107.19" y2="28.79" stroke="#7f7f7f" stroke-width="1.00" clip-path="url('#clipping-rect1')" />
		<line x1="116.93" y1="30.89" x2="116.93" y2="28.79" stroke="#7f7f7f" stroke-width="1.00" clip-path="url('#clipping-rect1')" />
		<line x1="126.68" y1="30.89" x2="126.68" y2="28.79" stroke="#7f7f7f" stroke-width="1.00" clip-path="url('#clipping-rect1')" />
		<line x1="136.43" y1="30.89" x2="136.43" y2="28.79" stroke="#7f7f7f" stroke-width="1.00" clip-path="url('#clipping-rect1')" />
		<line x1="146.17" y1="30.89" x2="146.17" y2="27.74" stroke="#7f7f7f" stroke-width="1.00" clip-path="url('#clipping-rect1')" />
		<line x1="155.92" y1="30.89" x2="155.92" y2="28.79" stroke="#7f7f7f" stroke-width="1.00" clip-path="url('#clipping-rect1')" />
		<line x1="165.67" y1="30.89" x2="165.67" y2="28.79" stroke="#7f7f7f" stroke-width="1.00" clip-path="url('#clipping-rect1')" />
		<line x1="175.41" y1="30.89" x2="175.41" y2="28.79" stroke="#7f7f7f" stroke-width="1.00" clip-path="url('#clipping-rect1')" />
		<line x1="185.16" y1="30.89" x2="185.16" y2="28.79" stroke="#7f7f7f" stroke-width="1.00" clip-path="url('#clipping-rect1')" />
		<line x1="194.90" y1="30.89" x2="194.90" y2="27.74" stroke="#7f7f7f" stroke-width="1.00" clip-path="url('#clipping-rect1')" />
		<line x1="204.65" y1="30.89" x2="204.65" y2="28.79" stroke="#7f7f7f" stroke-width="1.00" clip-path="url('#clipping-rect1')" />
		<line x1="214.40" y1="30.89" x2="214.40" y2="28.79" stroke="#7f7f7f" stroke-width="1.00" clip-path="url('#clipping-rect1')" />
		<line x1="224.14" y1="30.89" x2="224.14" y2="28.79" stroke="#7f7f7f" stroke-width="1.00" clip-path="url('#clipping-rect1')" />
		<line x1="233.89" y1="30.89" x2="233.89" y2="28.79" stroke="#7f7f7f" stroke-width="1.00" clip-path="url('#clipping-rect1')" />
		<line x1="243.64" y1="30.89" x2="243.64" y2="27.74" stroke="#7f7f7f" stroke-width="1.00" clip-path="url('#clipping-rect1')" />
		<line x1="253.38" y1="30.89" x2="253.38" y2="28.79" stroke="#7f7f7f" stroke-width="1.00" clip-path="url('#clipping-rect1')" />
		<line x1="263.13" y1="30.89" x2="263.13" y2="28.79" stroke="#7f7f7f" stroke-width="1.00" clip-path="url('#clipping-rect1')" />
		<line x1="272.88" y1="30.89" x2="272.88" y2="28.79" stroke="#7f7f7f" stroke-width="1.00" clip-path="url('#clipping-rect1')" />
		<line x1="282.62" y1="30.89" x2="282.62" y2="28.79" stroke="#7f7f7f" stroke-width="1.00" clip-path="url('#clipping-rect1')" />
		<line x1="292.37" y1="30.89" x2="292.37" y2="27.74" stroke="#7f7f7f" stroke-width="1.00" clip-path="url('#clipping-rect1')" />
		<line x1="302.12" y1="30.89" x2="302.12" y2="28.79" stroke="#7f7f7f" stroke-width="1.00" clip-path="url('#clipping-rect1')" />
		<line x1="311.86" y1="30.89" x2="311.86" y2="28.79" stroke="#7f7f7f" stroke-width="1.00" clip-path="url('#clipping-rect1')" />
		<line x1="321.61" y1="30.89" x2="321.61" y2="28.79" stroke="#7f7f7f" stroke-width="1.00" clip-path="url('#clipping-rect1')" />
		<line x1="331.36" y1="30.89" x2="331.36" y2="28.79" stroke="#7f7f7f" stroke-width="1.00" clip-path="url('#clipping-rect1')" />
		<line x1="341.10" y1="30.89" x2="341.10" y2="27.74" stroke="#7f7f7f" stroke-width="1.00" clip-path="url('#clipping-rect1')" />
		<line x1="350.85" y1="30.89" x2="350.85" y2="28.79" stroke="#7f7f7f" stroke-width="1.00" clip-path="url('#clipping-rect1')" />
		<line x1="360.59" y1="30.89" x2="360.59" y2="28.79" stroke="#7f7f7f" stroke-width="1.00" clip-path="url('#clipping-rect1')" />
		<line x1="370.34" y1="30.89" x2="370.34" y2="28.79" stroke="#7f7f7f" stroke-width="1.00" clip-path="url('#clipping-rect1')" />
		<line x1="380.09" y1="30.89" x2="380.09" y2="28.79" stroke="#7f7f7f" stroke-width="1.00" clip-path="url('#clipping-rect1')" />
		<line x1="389.83" y1="30.89" x2="389.83" y2="27.74" stroke="#7f7f7f" stroke-width="1.00" clip-path="url('#clipping-rect1')" />
		<line x1="399.58" y1="30.89" x2="399.58" y2="28.79" stroke="#7f7f7f" stroke-width="1.00" clip-path="url('#clipping-rect1')" />
		<line x1="409.33" y1="30.89" x2="409.33" y2="28.79" stroke="#7f7f7f" stroke-width="1.00" clip-path="url('#clipping-rect1')" />
		<line x1="419.07" y1="30.89" x2="419.07" y2="28.79" stroke="#7f7f7f" stroke-width="1.00" clip-path="url('#clipping-rect1')" />
		<line x1="428.82" y1="30.89" x2="428.82" y2="28.79" stroke="#7f7f7f" stroke-width="1.00" clip-path="url('#clipping-rect1')" />
		<line x1="438.57" y1="30.89" x2="438.57" y2="27.74" stroke="#7f7f7f" stroke-width="1.00" clip-path="url('#clipping-rect1')" />
		<line x1="448.31" y1="30.89" x2="448.31" y2="28.79" stroke="#7f7f7f" stroke-width="1.00" clip-path="url('#clipping-rect1')" />
		<line x1="458.06" y1="30.89" x2="458.06" y2="28.79" stroke="#7f7f7f" stroke-width="1.00" clip-path="url('#clipping-rect1')" />
		<line x1="467.81" y1="30.89" x2="467.81" y2="28.79" stroke="#7f7f7f" stroke-width="1.00" clip-path="url('#clipping-rect1')" />
		<line x1="477.55" y1="30.89" x2="477.55" y2="28.79" stroke="#7f7f7f" stroke-width="1.00" clip-path="url('#clipping-rect1')" />
		<line x1="487.30" y1="30.89" x2="487.30" y2="27.74" stroke="#7f7f7f" stroke-width="1.00" clip-path="url('#clipping-rect1')" />
		<line x1="497.04" y1="30.89" x2="497.04" y2="28.79" stroke="#7f7f7f" stroke-width="1.00" clip-path="url('#clipping-rect1')" />
		<line x1="506.79" y1="30.89" x2="506.79" y2="28.79" stroke="#7f7f7f" stroke-width="1.00" clip-path="url('#clipping-rect1')" />
		<line x1="516.54" y1="30.89" x2="516.54" y2="28.79" stroke="#7f7f7f" stroke-width="1.00" clip-path="url('#clipping-rect1')" />
		<line x1="526.28" y1="30.89" x2="526.28" y2="28.79" stroke="#7f7f7f" stroke-width="1.00" clip-path="url('#clipping-rect1')" />
		<line x1="536.03" y1="30.89" x2="536.03" y2="27.74" stroke="#7f7f7f" stroke-width="1.00" clip-path="url('#clipping-rect1')" />
		<line x1="545.78" y1="30.89" x2="545.78" y2="28.79" stroke="#7f7f7f" stroke-width="1.00" clip-path="url('#clipping-rect1')" />
		<line x1="555.52" y1="30.89" x2="555.52" y2="28.79" stroke="#7f7f7f" stroke-width="1.00" clip-path="url('#clipping-rect1')" />
		<line x1="565.27" y1="30.89" x2="565.27" y2="28.79" stroke="#7f7f7f" stroke-width="1.00" clip-path="url('#clipping-rect1')" />
		<line x1="575.02" y1="30.89" x2="575.02" y2="28.79" stroke="#7f7f7f" stroke-width="1.00" clip-path="url('#clipping-rect1')" />
		<line x1="584.76" y1="30.89" x2="584.76" y2="27.74" stroke="#7f7f7f" stroke-width="1.00" clip-path="url('#clipping-rect1')" />
		<line x1="594.51" y1="30.89" x2="594.51" y2="28.79" stroke="#7f7f7f" stroke-width="1.00" clip-path="url('#clipping-rect1')" />
		<line x1="604.26" y1="30.89" x2="604.26" y2="28.79" stroke="#7f7f7f" stroke-width="1.00" clip-path="url('#clipping-rect1')" />
		<line x1="614.00" y1="30.89" x2="614.00" y2="28.79" stroke="#7f7f7f" stroke-width="1.00" clip-path="url('#clipping-rect1')" />
		<line x1="623.75" y1="30.89" x2="623.75" y2="28.79" stroke="#7f7f7f" stroke-width="1.00" clip-path="url('#clipping-rect1')" />
		<line x1="633.50" y1="30.89" x2="633.50" y2="27.74" stroke="#7f7f7f" stroke-width="1.00" clip-path="url('#clipping-rect1')" />
		<line x1="643.24" y1="30.89" x2="643.24" y2="28.79" stroke="#7f7f7f" stroke-width="1.00" clip-path="url('#clipping-rect1')" />
		<line x1="652.99" y1="30.89" x2="652.99" y2="28.79" stroke="#7f7f7f" stroke-width="1.00" clip-path="url('#clipping-rect1')" />
		<line x1="662.73" y1="30.89" x2="662.73" y2="28.79" stroke="#7f7f7f" stroke-width="1.00" clip-path="url('#clipping-rect1')" />
		<line x1="672.48" y1="30.89" x2="672.48" y2="28.79" stroke="#7f7f7f" stroke-width="1.00" clip-path="url('#clipping-rect1')" />
		<line x1="682.23" y1="30.89" x2="682.23" y2="27.74" stroke="#7f7f7f" stroke-width="1.00" clip-path="url('#clipping-rect1')" />
		<line x1="691.97" y1="30.89" x2="691.97" y2="28.79" stroke="#7f7f7f" stroke-width="1.00" clip-path="url('#clipping-rect1')" />
		<line x1="701.72" y1="30.89" x2="701.72" y2="28.79" stroke="#7f7f7f" stroke-width="1.00" clip-path="url('#clipping-rect1')" />
		<line x1="711.47" y1="30.89" x2="711.47" y2="28.79" stroke="#7f7f7f" stroke-width="1.00" clip-path="url('#clipping-rect1')" />
		<line x1="721.21" y1="30.89" x2="721.21" y2="28.79" stroke="#7f7f7f" stroke-width="1.00" clip-path="url('#clipping-rect1')" />
		<line x1="730.96" y1="30.89" x2="730.96" y2="27.74" stroke="#7f7f7f" stroke-width="1.00" clip-path="url('#clipping-rect1')" />
		<line x1="740.71" y1="30.89" x2="740.71" y2="28.79" stroke="#7f7f7f" stroke-width="1.00" clip-path="url('#clipping-rect1')" />
		<line x1="750.45" y1="30.89" x2="750.45" y2="28.79" stroke="#7f7f7f" stroke-width="1.00" clip-path="url('#clipping-rect1')" />
		<line x1="760.20" y1="30.89" x2="760.20" y2="28.79" stroke="#7f7f7f" stroke-width="1.00" clip-path="url('#clipping-rect1')" />
		<line x1="769.95" y1="30.89" x2="769.95" y2="28.79" stroke="#7f7f7f" stroke-width="1.00" clip-path="url('#clipping-rect1')" />
		<line x1="779.69" y1="30.89" x2="779.69" y2="27.74" stroke="#7f7f7f" stroke-width="1.00" clip-path="url('#clipping-rect1')" />
		<line x1="789.44" y1="30.89" x2="789.44" y2="28.79" stroke="#7f7f7f" stroke-width="1.00" clip-path="url('#clipping-rect1')" />
		<line x1="799.18" y1="30.89" x2="799.18" y2="28.79" stroke="#7f7f7f" stroke-width="1.00" clip-path="url('#clipping-rect1')" />
		<line x1="808.93" y1="30.89" x2="808.93" y2="28.79" stroke="#7f7f7f" stroke-width="1.00" clip-path="url('#clipping-rect1')" />
		<line x1="818.68" y1="30.89" x2="818.68" y2="28.79" stroke="#7f7f7f" stroke-width="1.00" clip-path="url('#clipping-rect1')" />
		<line x1="828.42" y1="30.89" x2="828.42" y2="27.74" stroke="#7f7f7f" stroke-width="1.00" clip-path="url('#clipping-rect1')" />
		<text x="0.02" y="25.63" font-family="Helvetica" font-size="12" fill="#333333" clip-path="url('#clipping-rect1')" >1</text>
		<line x1="0.02" y1="33.00" x2="0.02" y2="15.11" stroke="#7f7f7f" stroke-width="1.00" clip-path="url('#clipping-rect1')" />
		<text x="803.02" y="25.63" font-family="Helvetica" font-size="12" fill="#333333" clip-path="url('#clipping-rect1')" >17,196</text>
		<line x1="837.98" y1="33.00" x2="837.98" y2="15.11" stroke="#7f7f7f" stroke-width="1.00" clip-path="url('#clipping-rect1')" />
		<line x1="779.69" y1="33.00" x2="779.69" y2="15.11" stroke="#7f7f7f" stroke-width="1.00" clip-path="url('#clipping-rect1')" />
		<text x="732.96" y="25.63" font-family="Helvetica" font-size="12" fill="#333333" clip-path="url('#clipping-rect1')" >15 K</text>
		<line x1="730.96" y1="33.00" x2="730.96" y2="15.11" stroke="#7f7f7f" stroke-width="1.00" clip-path="url('#clipping-rect1')" />
		<text x="684.23" y="25.63" font-family="Helvetica" font-size="12" fill="#333333" clip-path="url('#clipping-rect1')" >14 K</text>
		<line x1="682.23" y1="33.00" x2="682.23" y2="15.11" stroke="#7f7f7f" stroke-width="1.00" clip-path="url('#clipping-rect1')" />
		<text x="635.50" y="25.63" font-family="Helvetica" font-size="12" fill="#333333" clip-path="url('#clipping-rect1')" >13 K</text>
		<line x1="633.50" y1="33.00" x2="633.50" y2="15.11" stroke="#7f7f7f" stroke-width="1.00" clip-path="url('#clipping-rect1')" />
		<text x="586.76" y="25.63" font-family="Helvetica" font-size="12" fill="#333333" clip-path="url('#clipping-rect1')" >12 K</text>
		<line x1="584.76" y1="33.00" x2="584.76" y2="15.11" stroke="#7f7f7f" stroke-width="1.00" clip-path="url('#clipping-rect1')" />
		<text x="538.03" y="25.63" font-family="Helvetica" font-size="12" fill="#333333" clip-path="url('#clipping-rect1')" >11 K</text>
		<line x1="536.03" y1="33.00" x2="536.03" y2="15.11" stroke="#7f7f7f" stroke-width="1.00" clip-path="url('#clipping-rect1')" />
		<text x="489.30" y="25.63" font-family="Helvetica" font-size="12" fill="#333333" clip-path="url('#clipping-rect1')" >10 K</text>
		<line x1="487.30" y1="33.00" x2="487.30" y2="15.11" stroke="#7f7f7f" stroke-width="1.00" clip-path="url('#clipping-rect1')" />
		<text x="440.57" y="25.63" font-family="Helvetica" font-size="12" fill="#333333" clip-path="url('#clipping-rect1')" >9 K</text>
		<line x1="438.57" y1="33.00" x2="438.57" y2="15.11" stroke="#7f7f7f" stroke-width="1.00" clip-path="url('#clipping-rect1')" />
		<text x="391.83" y="25.63" font-family="Helvetica" font-size="12" fill="#333333" clip-path="url('#clipping-rect1')" >8 K</text>
		<line x1="389.83" y1="33.00" x2="389.83" y2="15.11" stroke="#7f7f7f" stroke-width="1.00" clip-path="url('#clipping-rect1')" />
		<text x="343.10" y="25.63" font-family="Helvetica" font-size="12" fill="#333333" clip-path="url('#clipping-rect1')" >7 K</text>
		<line x1="341.10" y1="33.00" x2="341.10" y2="15.11" stroke="#7f7f7f" stroke-width="1.00" clip-path="url('#clipping-rect1')" />
		<text x="294.37" y="25.63" font-family="Helvetica" font-size="12" fill="#333333" clip-path="url('#clipping-rect1')" >6 K</text>
		<line x1="292.37" y1="33.00" x2="292.37" y2="15.11" stroke="#7f7f7f" stroke-width="1.00" clip-path="url('#clipping-rect1')" />
		<text x="245.64" y="25.63" font-family="Helvetica" font-size="12" fill="#333333" clip-path="url('#clipping-rect1')" >5 K</text>
		<line x1="243.64" y1="33.00" x2="243.64" y2="15.11" stroke="#7f7f7f" stroke-width="1.00" clip-path="url('#clipping-rect1')" />
		<text x="196.90" y="25.63" font-family="Helvetica" font-size="12" fill="#333333" clip-path="url('#clipping-rect1')" >4 K</text>
		<line x1="194.90" y1="33.00" x2="194.90" y2="15.11" stroke="#7f7f7f" stroke-width="1.00" clip-path="url('#clipping-rect1')" />
		<text x="148.17" y="25.63" font-family="Helvetica" font-size="12" fill="#333333" clip-path="url('#clipping-rect1')" >3 K</text>
		<line x1="146.17" y1="33.00" x2="146.17" y2="15.11" stroke="#7f7f7f" stroke-width="1.00" clip-path="url('#clipping-rect1')" />
		<text x="99.44" y="25.63" font-family="Helvetica" font-size="12" fill="#333333" clip-path="url('#clipping-rect1')" >2 K</text>
		<line x1="97.44" y1="33.00" x2="97.44" y2="15.11" stroke="#7f7f7f" stroke-width="1.00" clip-path="url('#clipping-rect1')" />
		<text x="50.71" y="25.63" font-family="Helvetica" font-size="12" fill="#333333" clip-path="url('#clipping-rect1')" >1 K</text>
		<line x1="48.71" y1="33.00" x2="48.71" y2="15.11" stroke="#7f7f7f" stroke-width="1.00" clip-path="url('#clipping-rect1')" />
		<line x1="0.00" y1="394.00" x2="0.00" y2="33.00" stroke="#ebebeb" stroke-width="1.00" />
		<line x1="48.06" y1="394.00" x2="48.06" y2="33.00" stroke="#ebebeb" stroke-width="1.00" />
		<line x1="97.12" y1="394.00" x2="97.12" y2="33.00" stroke="#ebebeb" stroke-width="1.00" />
		<line x1="146.17" y1="394.00" x2="146.17" y2="33.00" stroke="#ebebeb" stroke-width="1.00" />
		<line x1="194.23" y1="394.00" x2="194.23" y2="33.00" stroke="#ebebeb" stroke-width="1.00" />
		<line x1="243.29" y1="394.00" x2="243.29" y2="33.00" stroke="#ebebeb" stroke-width="1.00" />
		<line x1="292.35" y1="394.00" x2="292.35" y2="33.00" stroke="#ebebeb" stroke-width="1.00" />
		<line x1="341.41" y1="394.00" x2="341.41" y2="33.00" stroke="#ebebeb" stroke-width="1.00" />
		<line x1="389.46" y1="394.00" x2="389.46" y2="33.00" stroke="#ebebeb" stroke-width="1.00" />
		<line x1="438.52" y1="394.00" x2="438.52" y2="33.00" stroke="#ebebeb" stroke-width="1.00" />
		<line x1="487.58" y1="394.00" x2="487.58" y2="33.00" stroke="#ebebeb" stroke-width="1.00" />
		<line x1="536.64" y1="394.00" x2="536.64" y2="33.00" stroke="#ebebeb" stroke-width="1.00" />
		<line x1="584.70" y1="394.00" x2="584.70" y2="33.00" stroke="#ebebeb" stroke-width="1.00" />
		<line x1="633.76" y1="394.00" x2="633.76" y2="33.00" stroke="#ebebeb" stroke-width="1.00" />
		<line x1="682.81" y1="394.00" x2="682.81" y2="33.00" stroke="#ebebeb" stroke-width="1.00" />
		<line x1="730.87" y1="394.00" x2="730.87" y2="33.00" stroke="#ebebeb" stroke-width="1.00" />
		<line x1="779.93" y1="394.00" x2="779.93" y2="33.00" stroke="#ebebeb" stroke-width="1.00" />
		<line x1="828.99" y1="394.00" x2="828.99" y2="33.00" stroke="#ebebeb" stroke-width="1.00" />
		<polygon fill="url('#gradient1')" shape-rendering="crispEdges" points="838.00,40.00 838.00,35.00 0.00,35.00 0.00,40.00 0.00,45.00 838.00,45.00 " />
		<line x1="0.00" y1="45.00" x2="0.00" y2="35.00" stroke="#6c6c6c" stroke-width="1.00" stroke-linejoin="round" />
		<line x1="0.00" y1="35.00" x2="838.00" y2="35.00" stroke="#6c6c6c" stroke-width="1.00" stroke-linejoin="round" />
		<line x1="838.00" y1="35.00" x2="838.00" y2="45.00" stroke="#6c6c6c" stroke-width="1.00" stroke-linejoin="round" />
		<line x1="0.00" y1="45.00" x2="838.00" y2="45.00" stroke="#6c6c6c" stroke-width="1.00" stroke-linejoin="round" />
		<polygon fill="url('#gradient2')" shape-rendering="crispEdges" points="14.03,39.50 14.03,46.00 0.00,46.00 0.00,39.50 0.00,33.00 14.03,33.00 " />
		<polygon fill="#101010" shape-rendering="crispEdges" points="15.98,33.00 15.98,46.00 13.99,46.00 13.99,33.00 " />
		<polygon fill="url('#gradient2')" shape-rendering="crispEdges" points="41.03,39.50 41.03,46.00 15.98,46.00 15.98,39.50 15.98,33.00 41.03,33.00 " />
		<polygon fill="#101010" shape-rendering="crispEdges" points="136.01,33.00 136.01,46.00 40.98,46.00 40.98,33.00 " />
		<polygon fill="url('#gradient2')" shape-rendering="crispEdges" points="367.05,39.50 367.05,46.00 136.01,46.00 136.01,39.50 136.01,33.00 367.05,33.00 " />
		<polygon fill="#101010" shape-rendering="crispEdges" points="371.00,33.00 371.00,46.00 367.00,46.00 367.00,33.00 " />
		<polygon fill="url('#gradient2')" shape-rendering="crispEdges" points="515.05,39.50 515.05,46.00 371.00,46.00 371.00,39.50 371.00,33.00 515.05,33.00 " />
		<polygon fill="#101010" shape-rendering="crispEdges" points="586.98,33.00 586.98,46.00 515.00,46.00 515.00,33.00 " />
		<polygon fill="url('#gradient2')" shape-rendering="crispEdges" points="636.05,39.50 636.05,46.00 586.98,46.00 586.98,39.50 586.98,33.00 636.05,33.00 " />
		<polygon fill="#101010" shape-rendering="crispEdges" points="741.02,33.00 741.02,46.00 636.00,46.00 636.00,33.00 " />
		<polygon fill="url('#gradient2')" shape-rendering="crispEdges" points="838.00,39.50 838.00,46.00 741.02,46.00 741.02,39.50 741.02,33.00 838.00,33.00 " />
		<line x1="13.00" y1="33.00" x2="13.00" y2="46.00" stroke="#101010" stroke-width="1.00" />
		<polygon fill="#101010" shape-rendering="crispEdges" points="15.00,33.00 15.00,46.00 14.00,46.00 14.00,33.00 " />
		<line x1="16.00" y1="33.00" x2="16.00" y2="46.00" stroke="#101010" stroke-width="1.00" />
		<line x1="40.00" y1="33.00" x2="40.00" y2="46.00" stroke="#101010" stroke-width="1.00" />
		<polygon fill="#101010" shape-rendering="crispEdges" points="135.00,33.00 135.00,46.00 41.00,46.00 41.00,33.00 " />
		<line x1="136.00" y1="33.00" x2="136.00" y2="46.00" stroke="#101010" stroke-opacity="0.38" stroke-width="1.00" />
		<line x1="365.00" y1="33.00" x2="365.00" y2="46.00" stroke="#101010" stroke-opacity="0.25" stroke-width="1.00" />
		<polygon fill="#101010" shape-rendering="crispEdges" points="370.00,33.00 370.00,46.00 366.00,46.00 366.00,33.00 " />
		<line x1="371.00" y1="33.00" x2="371.00" y2="46.00" stroke="#101010" stroke-opacity="0.25" stroke-width="1.00" />
		<line x1="513.00" y1="33.00" x2="513.00" y2="46.00" stroke="#101010" stroke-opacity="0.25" stroke-width="1.00" />
		<polygon fill="#101010" shape-rendering="crispEdges" points="586.00,33.00 586.00,46.00 514.00,46.00 514.00,33.00 " />
		<line x1="587.00" y1="33.00" x2="587.00" y2="46.00" stroke="#101010" stroke-opacity="0.25" stroke-width="1.00" />
		<line x1="634.00" y1="33.00" x2="634.00" y2="46.00" stroke="#101010" stroke-opacity="0.25" stroke-width="1.00" />
		<polygon fill="#101010" shape-rendering="crispEdges" points="739.00,33.00 739.00,46.00 635.00,46.00 635.00,33.00 " />
		<line x1="740.00" y1="33.00" x2="740.00" y2="46.00" stroke="#101010" stroke-opacity="0.43" stroke-width="1.00" />
		<polygon fill="url('#gradient3')" shape-rendering="crispEdges" points="338.38,76.40 338.38,82.40 270.43,82.40 270.43,76.40 270.43,70.40 338.38,70.40 " />
		<polygon fill="#4c1919" fill-opacity="0.70" shape-rendering="crispEdges" points="263.03,76.40 267.03,70.40 268.03,70.40 264.03,76.40 268.03,82.40 267.03,82.40 " />
		<polygon fill="#4c1919" fill-opacity="0.30" shape-rendering="crispEdges" points="262.03,76.40 266.03,70.40 269.03,70.40 265.03,76.40 269.03,82.40 266.03,82.40 " />
		<polygon fill="#4c1919" fill-opacity="0.70" shape-rendering="crispEdges" points="267.03,76.40 271.03,70.40 272.03,70.40 268.03,76.40 272.03,82.40 271.03,82.40 " />
		<polygon fill="#4c1919" fill-opacity="0.30" shape-rendering="crispEdges" points="266.03,76.40 270.03,70.40 273.03,70.40 269.03,76.40 273.03,82.40 270.03,82.40 " />
		<polygon fill="url('#gradient3')" shape-rendering="crispEdges" points="338.38,76.40 338.38,84.80 346.78,76.40 338.38,68.00 " />
		<polygon fill="#8ab698" shape-rendering="crispEdges" points="270.43,76.40 270.43,70.40 262.03,70.40 " />
		<polygon fill="#8ab698" shape-rendering="crispEdges" points="270.43,76.40 270.43,82.40 262.03,82.40 " />
		<line x1="262.03" y1="70.40" x2="270.43" y2="70.40" stroke="#166e32" stroke-width="1.50" />
		<line x1="262.03" y1="70.40" x2="270.43" y2="76.40" stroke="#166e32" stroke-width="1.50" />
		<line x1="262.03" y1="82.40" x2="270.43" y2="82.40" stroke="#166e32" stroke-width="1.50" />
		<line x1="262.03" y1="82.40" x2="270.43" y2="76.40" stroke="#166e32" stroke-width="1.50" />
		<polygon fill="#4c1919" fill-opacity="0.70" shape-rendering="crispEdges" points="263.03,76.40 267.03,70.40 268.03,70.40 264.03,76.40 268.03,82.40 267.03,82.40 " />
		<polygon fill="#4c1919" fill-opacity="0.30" shape-rendering="crispEdges" points="262.03,76.40 266.03,70.40 269.03,70.40 265.03,76.40 269.03,82.40 266.03,82.40 " />
		<polygon fill="#4c1919" fill-opacity="0.70" shape-rendering="crispEdges" points="267.03,76.40 271.03,70.40 272.03,70.40 268.03,76.40 272.03,82.40 271.03,82.40 " />
		<polygon fill="#4c1919" fill-opacity="0.30" shape-rendering="crispEdges" points="266.03,76.40 270.03,70.40 273.03,70.40 269.03,76.40 273.03,82.40 270.03,82.40 " />
		<polygon fill="#ffffff" shape-rendering="crispEdges" points="309.21,76.40 299.61,71.60 302.01,76.40 299.61,81.20 " />
		<text x="220.42" y="80.90" font-family="Helvetica" font-size="12" fill="#124d94" >MED11</text>
		<polygon fill="url('#gradient4')" shape-rendering="crispEdges" points="0.00,62.00 838.05,62.00 838.05,47.00 0.00,47.00 " clip-path="url('#clipping-rect2')" />
		<text x="0.00" y="58.00" font-family="Helvetica" font-size="14" fill="#333333" >Genes, NCBI Geospiza fortis Annotation Release 102, 2019-10-07</text>
		<line x1="109.54" y1="107.80" x2="109.54" y2="137.80" stroke="#009900" stroke-opacity="0.10" stroke-width="1.00" stroke-linejoin="round" />
		<line x1="109.54" y1="137.80" x2="500.92" y2="137.80" stroke="#009900" stroke-opacity="0.10" stroke-width="1.00" stroke-linejoin="round" />
		<line x1="500.92" y1="137.80" x2="500.92" y2="107.80" stroke="#009900" stroke-opacity="0.10" stroke-width="1.00" stroke-linejoin="round" />
		<line x1="109.54" y1="107.80" x2="500.92" y2="107.80" stroke="#009900" stroke-opacity="0.10" stroke-width="1.00" stroke-linejoin="round" />
		<text x="239.30" y="118.80" font-family="Helvetica" font-size="12" fill="#124d94" >ENSGFOG00000003694</text>
		<polygon fill="#1e8c1e" shape-rendering="crispEdges" points="261.06,127.00 261.06,138.00 254.33,138.00 254.33,127.00 " />
		<polygon fill="#a5d1a5" shape-rendering="crispEdges" points="262.86,127.00 262.86,138.00 261.06,138.00 261.06,127.00 " />
		<polygon fill="#1e8c1e" shape-rendering="crispEdges" points="268.42,127.00 268.42,138.00 262.86,138.00 262.86,127.00 " />
		<polygon fill="#a5d1a5" shape-rendering="crispEdges" points="306.67,127.00 306.67,138.00 268.42,138.00 268.42,127.00 " />
		<polygon fill="#b2b2b2" shape-rendering="crispEdges" points="291.94,132.50 283.14,128.10 285.34,132.50 283.14,136.90 " />
		<polygon fill="#1e8c1e" shape-rendering="crispEdges" points="313.40,127.00 313.40,138.00 306.67,138.00 306.67,127.00 " />
		<polygon fill="#a5d1a5" shape-rendering="crispEdges" points="355.45,127.00 355.45,138.00 313.40,138.00 313.40,127.00 " />
		<polygon fill="#000000" shape-rendering="crispEdges" points="338.83,132.50 330.03,128.10 332.23,132.50 330.03,136.90 " />
		<polygon fill="#ffffff" shape-rendering="crispEdges" points="254.33,138.00 254.33,127.00 112.54,127.00 112.54,138.00 " />
		<text x="112.54" y="137.00" font-family="Helvetica" font-size="12" fill="#124d94" >ENSGFOT00000005359.1</text>
		<polygon fill="#ffffff" shape-rendering="crispEdges" points="498.92,138.00 498.92,127.00 359.45,127.00 359.45,138.00 " />
		<text x="359.45" y="137.00" font-family="Helvetica" font-size="12" fill="#124d94" >ENSGFOP00000005214.1</text>
		<polygon fill="url('#gradient4')" shape-rendering="crispEdges" points="0.00,101.80 838.05,101.80 838.05,86.80 0.00,86.80 " clip-path="url('#clipping-rect2')" />
		<text x="0.00" y="97.80" font-family="Helvetica" font-size="14" fill="#333333" >Genes, Ensembl release 112</text>
		<polygon fill="#8ca9c5" shape-rendering="crispEdges" points="0.00,196.80 261.01,196.80 261.01,196.80 " />
		<polygon fill="#8ca9c5" shape-rendering="crispEdges" points="0.00,196.80 0.00,196.80 261.01,196.80 " />
		<polygon fill="url('#gradient6')" shape-rendering="crispEdges" points="261.00,184.80 261.00,196.80 262.00,196.80 262.00,184.80 262.00,171.79 261.00,171.79 " />
		<polygon fill="url('#gradient7')" shape-rendering="crispEdges" points="261.98,184.80 261.98,196.80 263.01,196.80 263.01,184.80 263.01,167.20 261.98,167.20 " />
		<polygon fill="url('#gradient8')" shape-rendering="crispEdges" points="263.00,184.80 263.00,196.80 264.00,196.80 264.00,184.80 264.00,165.00 263.00,165.00 " />
		<polygon fill="url('#gradient9')" shape-rendering="crispEdges" points="263.98,184.80 263.98,196.80 265.01,196.80 265.01,184.80 265.01,163.38 263.98,163.38 " />
		<polygon fill="url('#gradient10')" shape-rendering="crispEdges" points="264.99,184.80 264.99,196.80 265.99,196.80 265.99,184.80 265.99,162.58 264.99,162.58 " />
		<polygon fill="url('#gradient11')" shape-rendering="crispEdges" points="265.98,184.80 265.98,196.80 267.00,196.80 267.00,184.80 267.00,161.09 265.98,161.09 " />
		<polygon fill="url('#gradient12')" shape-rendering="crispEdges" points="266.99,184.80 266.99,196.80 267.99,196.80 267.99,184.80 267.99,160.26 266.99,160.26 " />
		<polygon fill="url('#gradient13')" shape-rendering="crispEdges" points="267.98,184.80 267.98,196.80 269.00,196.80 269.00,184.80 269.00,160.47 267.98,160.47 " />
		<polygon fill="#8ca9c5" shape-rendering="crispEdges" points="269.00,196.80 305.99,196.80 305.99,196.80 " />
		<polygon fill="#8ca9c5" shape-rendering="crispEdges" points="269.00,196.80 269.00,196.80 305.99,196.80 " />
		<polygon fill="url('#gradient14')" shape-rendering="crispEdges" points="305.99,184.80 305.99,196.80 307.01,196.80 307.01,184.80 307.01,159.35 305.99,159.35 " />
		<polygon fill="url('#gradient15')" shape-rendering="crispEdges" points="307.00,184.80 307.00,196.80 308.00,196.80 308.00,184.80 308.00,156.80 307.00,156.80 " />
		<polygon fill="url('#gradient15')" shape-rendering="crispEdges" points="307.99,184.80 307.99,196.80 309.01,196.80 309.01,184.80 309.01,157.11 307.99,157.11 " />
		<polygon fill="url('#gradient15')" shape-rendering="crispEdges" points="309.00,184.80 309.00,196.80 310.00,196.80 310.00,184.80 310.00,157.16 309.00,157.16 " />
		<polygon fill="url('#gradient16')" shape-rendering="crispEdges" points="309.99,184.80 309.99,196.80 311.01,196.80 311.01,184.80 311.01,157.40 309.99,157.40 " />
		<polygon fill="url('#gradient17')" shape-rendering="crispEdges" points="311.00,184.80 311.00,196.80 312.00,196.80 312.00,184.80 312.00,157.86 311.00,157.86 " />
		<polygon fill="url('#gradient18')" shape-rendering="crispEdges" points="311.98,184.80 311.98,196.80 313.01,196.80 313.01,184.80 313.01,158.54 311.98,158.54 " />
		<polygon fill="url('#gradient19')" shape-rendering="crispEdges" points="312.99,184.80 312.99,196.80 313.99,196.80 313.99,184.80 313.99,159.20 312.99,159.20 " />
		<polygon fill="url('#gradient20')" shape-rendering="crispEdges" points="313.98,184.80 313.98,196.80 315.01,196.80 315.01,184.80 315.01,161.48 313.98,161.48 " />
		<polygon fill="url('#gradient21')" shape-rendering="crispEdges" points="314.99,184.80 314.99,196.80 315.99,196.80 315.99,184.80 315.99,180.31 314.99,180.31 " />
		<polygon fill="#8ca9c5" shape-rendering="crispEdges" points="315.98,196.80 322.02,196.80 322.02,196.80 " />
		<polygon fill="#8ca9c5" shape-rendering="crispEdges" points="315.98,196.80 315.98,196.80 322.02,196.80 " />
		<polygon fill="url('#gradient22')" shape-rendering="crispEdges" points="323.01,187.27 322.01,187.27 322.01,196.80 323.01,196.80 " />
		<polygon fill="#8ca9c5" shape-rendering="crispEdges" points="323.00,196.80 328.99,196.80 328.99,196.80 " />
		<polygon fill="#8ca9c5" shape-rendering="crispEdges" points="323.00,196.80 323.00,196.80 328.99,196.80 " />
		<polygon fill="url('#gradient23')" shape-rendering="crispEdges" points="330.01,192.03 328.99,192.03 328.99,196.80 330.01,196.80 " />
		<polygon fill="#8ca9c5" shape-rendering="crispEdges" points="330.01,196.80 342.98,196.80 342.98,196.80 " />
		<polygon fill="#8ca9c5" shape-rendering="crispEdges" points="330.01,196.80 330.01,196.80 342.98,196.80 " />
		<polygon fill="url('#gradient24')" shape-rendering="crispEdges" points="342.98,184.80 342.98,196.80 344.98,196.80 344.98,184.80 344.98,173.19 342.98,173.19 " />
		<polygon fill="url('#gradient25')" shape-rendering="crispEdges" points="344.98,184.80 344.98,196.80 346.00,196.80 346.00,184.80 346.00,174.40 344.98,174.40 " />
		<polygon fill="url('#gradient26')" shape-rendering="crispEdges" points="346.00,184.80 346.00,196.80 347.02,196.80 347.02,184.80 347.02,182.50 346.00,182.50 " />
		<polygon fill="#8ca9c5" shape-rendering="crispEdges" points="347.02,196.80 351.02,196.80 351.02,196.80 " />
		<polygon fill="#8ca9c5" shape-rendering="crispEdges" points="347.02,196.80 347.02,196.80 351.02,196.80 " />
		<polygon fill="url('#gradient27')" shape-rendering="crispEdges" points="352.01,189.25 351.01,189.25 351.01,196.80 352.01,196.80 " />
		<polygon fill="#8ca9c5" shape-rendering="crispEdges" points="351.99,196.80 838.00,196.80 838.00,196.80 " />
		<polygon fill="#8ca9c5" shape-rendering="crispEdges" points="351.99,196.80 351.99,196.80 838.00,196.80 " />
		<line x1="20.95" y1="156.80" x2="20.95" y2="196.80" stroke="#b9d3ee" stroke-opacity="0.50" stroke-width="1.00" />
		<text x="21.95" y="163.80" font-family="Helvetica" font-size="8" fill="#707c80" >336</text>
		<line x1="0.00" y1="156.80" x2="838.05" y2="156.80" stroke="#b9d3ee" stroke-opacity="0.40" stroke-width="1.00" />
		<line x1="0.00" y1="196.80" x2="838.05" y2="196.80" stroke="#b9d3ee" stroke-opacity="0.40" stroke-width="1.00" />
		<line x1="0.00" y1="177.73" x2="838.05" y2="177.73" stroke="#b9d3ee" stroke-opacity="0.40" stroke-width="1.00" />
		<text x="21.95" y="184.73" font-family="Helvetica" font-size="8" fill="#707c80" >16</text>
		<line x1="230.46" y1="156.80" x2="230.46" y2="196.80" stroke="#b9d3ee" stroke-opacity="0.50" stroke-width="1.00" />
		<text x="231.46" y="163.80" font-family="Helvetica" font-size="8" fill="#707c80" >336</text>
		<line x1="0.00" y1="196.80" x2="838.05" y2="196.80" stroke="#b9d3ee" stroke-opacity="0.40" stroke-width="1.00" />
		<text x="231.46" y="184.73" font-family="Helvetica" font-size="8" fill="#707c80" >16</text>
		<line x1="439.98" y1="156.80" x2="439.98" y2="196.80" stroke="#b9d3ee" stroke-opacity="0.50" stroke-width="1.00" />
		<text x="440.98" y="163.80" font-family="Helvetica" font-size="8" fill="#707c80" >336</text>
		<line x1="0.00" y1="196.80" x2="838.05" y2="196.80" stroke="#b9d3ee" stroke-opacity="0.40" stroke-width="1.00" />
		<text x="440.98" y="184.73" font-family="Helvetica" font-size="8" fill="#707c80" >16</text>
		<line x1="649.49" y1="156.80" x2="649.49" y2="196.80" stroke="#b9d3ee" stroke-opacity="0.50" stroke-width="1.00" />
		<text x="650.49" y="163.80" font-family="Helvetica" font-size="8" fill="#707c80" >336</text>
		<line x1="0.00" y1="196.80" x2="838.05" y2="196.80" stroke="#b9d3ee" stroke-opacity="0.40" stroke-width="1.00" />
		<text x="650.49" y="184.73" font-family="Helvetica" font-size="8" fill="#707c80" >16</text>
		<polygon fill="url('#gradient4')" shape-rendering="crispEdges" points="0.00,154.80 838.05,154.80 838.05,139.80 0.00,139.80 " clip-path="url('#clipping-rect2')" />
		<text x="0.00" y="150.80" font-family="Helvetica" font-size="14" fill="#333333" >RNA-seq exon coverage, aggregate (filtered), NCBI Geospiza fortis Annotation Release 102 - log 2 scaled</text>
		<polygon fill="#8ca9c5" shape-rendering="crispEdges" points="0.00,255.80 267.98,255.80 267.98,255.80 " />
		<polygon fill="#8ca9c5" shape-rendering="crispEdges" points="0.00,255.80 0.00,255.80 267.98,255.80 " />
		<polygon fill="url('#gradient15')" shape-rendering="crispEdges" points="267.98,243.80 267.98,255.80 307.01,255.80 307.01,243.80 307.01,215.80 267.98,215.80 " />
		<polygon fill="#8ca9c5" shape-rendering="crispEdges" points="307.01,255.80 313.98,255.80 313.98,255.80 " />
		<polygon fill="#8ca9c5" shape-rendering="crispEdges" points="307.01,255.80 307.01,255.80 313.98,255.80 " />
		<polygon fill="url('#gradient28')" shape-rendering="crispEdges" points="313.98,243.80 313.98,255.80 315.01,255.80 315.01,243.80 315.01,228.90 313.98,228.90 " />
		<polygon fill="url('#gradient29')" shape-rendering="crispEdges" points="315.01,243.80 315.01,255.80 323.00,255.80 323.00,243.80 323.00,226.90 315.01,226.90 " />
		<polygon fill="url('#gradient30')" shape-rendering="crispEdges" points="323.00,243.80 323.00,255.80 330.01,255.80 330.01,243.80 330.01,227.73 323.00,227.73 " />
		<polygon fill="url('#gradient31')" shape-rendering="crispEdges" points="330.01,243.80 330.01,255.80 344.00,255.80 344.00,243.80 344.00,228.17 330.01,228.17 " />
		<polygon fill="url('#gradient32')" shape-rendering="crispEdges" points="351.99,247.19 344.00,247.19 344.00,255.80 351.99,255.80 " />
		<polygon fill="#8ca9c5" shape-rendering="crispEdges" points="351.99,255.80 838.00,255.80 838.00,255.80 " />
		<polygon fill="#8ca9c5" shape-rendering="crispEdges" points="351.99,255.80 351.99,255.80 838.00,255.80 " />
		<line x1="20.95" y1="215.80" x2="20.95" y2="255.80" stroke="#b9d3ee" stroke-opacity="0.50" stroke-width="1.00" />
		<text x="21.95" y="222.80" font-family="Helvetica" font-size="8" fill="#707c80" >165</text>
		<line x1="0.00" y1="215.80" x2="838.05" y2="215.80" stroke="#b9d3ee" stroke-opacity="0.40" stroke-width="1.00" />
		<line x1="0.00" y1="255.80" x2="838.05" y2="255.80" stroke="#b9d3ee" stroke-opacity="0.40" stroke-width="1.00" />
		<line x1="0.00" y1="239.51" x2="838.05" y2="239.51" stroke="#b9d3ee" stroke-opacity="0.40" stroke-width="1.00" />
		<text x="21.95" y="246.51" font-family="Helvetica" font-size="8" fill="#707c80" >8</text>
		<line x1="230.46" y1="215.80" x2="230.46" y2="255.80" stroke="#b9d3ee" stroke-opacity="0.50" stroke-width="1.00" />
		<text x="231.46" y="222.80" font-family="Helvetica" font-size="8" fill="#707c80" >165</text>
		<line x1="0.00" y1="255.80" x2="838.05" y2="255.80" stroke="#b9d3ee" stroke-opacity="0.40" stroke-width="1.00" />
		<text x="231.46" y="246.51" font-family="Helvetica" font-size="8" fill="#707c80" >8</text>
		<line x1="439.98" y1="215.80" x2="439.98" y2="255.80" stroke="#b9d3ee" stroke-opacity="0.50" stroke-width="1.00" />
		<text x="440.98" y="222.80" font-family="Helvetica" font-size="8" fill="#707c80" >165</text>
		<line x1="0.00" y1="255.80" x2="838.05" y2="255.80" stroke="#b9d3ee" stroke-opacity="0.40" stroke-width="1.00" />
		<text x="440.98" y="246.51" font-family="Helvetica" font-size="8" fill="#707c80" >8</text>
		<line x1="649.49" y1="215.80" x2="649.49" y2="255.80" stroke="#b9d3ee" stroke-opacity="0.50" stroke-width="1.00" />
		<text x="650.49" y="222.80" font-family="Helvetica" font-size="8" fill="#707c80" >165</text>
		<line x1="0.00" y1="255.80" x2="838.05" y2="255.80" stroke="#b9d3ee" stroke-opacity="0.40" stroke-width="1.00" />
		<text x="650.49" y="246.51" font-family="Helvetica" font-size="8" fill="#707c80" >8</text>
		<polygon fill="url('#gradient4')" shape-rendering="crispEdges" points="0.00,213.80 838.05,213.80 838.05,198.80 0.00,198.80 " clip-path="url('#clipping-rect2')" />
		<text x="0.00" y="209.80" font-family="Helvetica" font-size="14" fill="#333333" >RNA-seq intron-spanning reads, aggregate (filtered), NCBI Geospiza fortis Annotation Release 102 - log 2 scaled</text>
		<line x1="278.22" y1="287.60" x2="296.87" y2="287.60" stroke="#333333" stroke-width="1.00" />
		<polygon fill="#cecece" shape-rendering="crispEdges" points="293.14,286.60 281.94,281.00 284.74,286.60 281.94,292.20 " />
		<line x1="324.90" y1="287.60" x2="341.27" y2="287.60" stroke="#333333" stroke-width="1.00" />
		<text x="330.46" y="286.60" font-family="Helvetica" font-size="11" fill="#333333" >3</text>
		<polygon fill="#b5b5b5" shape-rendering="crispEdges" points="327.49,286.60 338.69,281.00 335.89,286.60 338.69,292.20 " />
		<line x1="324.61" y1="311.20" x2="333.96" y2="311.20" stroke="#e88212" stroke-width="1.00" />
		<line x1="324.61" y1="334.80" x2="333.47" y2="334.80" stroke="#e88212" stroke-width="1.00" />
		<line x1="315.10" y1="358.40" x2="319.53" y2="358.40" stroke="#333333" stroke-width="1.00" />
		<line x1="315.10" y1="350.40" x2="315.10" y2="364.40" stroke="#333333" stroke-width="1.00" />
		<line x1="315.10" y1="382.00" x2="322.22" y2="382.00" stroke="#333333" stroke-width="1.00" />
		<line x1="315.10" y1="374.00" x2="315.10" y2="388.00" stroke="#333333" stroke-width="1.00" />
		<line x1="322.22" y1="374.00" x2="322.22" y2="388.00" stroke="#333333" stroke-width="1.00" />
		<polygon fill="url('#gradient4')" shape-rendering="crispEdges" points="0.00,272.80 838.05,272.80 838.05,257.80 0.00,257.80 " clip-path="url('#clipping-rect2')" />
		<text x="0.00" y="268.80" font-family="Helvetica" font-size="14" fill="#333333" >RNA-seq intron features, aggregate (filtered), NCBI Geospiza fortis Annotation Release 102</text>
		<polygon fill="#e5e5e5" shape-rendering="crispEdges" points="838.00,13.00 838.00,-1.00 0.00,-1.00 0.00,13.00 " />
		<text x="0.00" y="10.00" font-family="Helvetica Bold" font-size="12" text-anchor="start" fill="#000000" >NW_005055216.1:0..17196 Geospiza fortis unplaced genomic scaffold, GeoFor_1.0 scaffold3302, whole genome shotgun sequence</text>
	</g>
</svg>
