<?xml version="1.0" standalone="no" ?>
<!DOCTYPE svg PUBLIC "-//W3C//DTD SVG 1.1//EN" "http://www.w3.org/Graphics/SVG/1.1/DTD/svg11.dtd">
<svg width="862px" height="222px" xmlns="http://www.w3.org/2000/svg" version="1.1" viewBox="0 0 862 222" >
	<style type="text/css" > <![CDATA[
		@import url("https://www.ncbi.nlm.nih.gov/projects/sviewer/css/svg_fonts.css");
	]]>
	</style>
	<desc >Generated by NCBI Genome Workbench http://www.ncbi.nlm.nih.gov/tools/gbench/</desc>
	<defs >
		<clipPath id="clipping-rect1" >
			<rect x="0" y="14" width="862" height="18" />
		</clipPath>
		<linearGradient id="gradient1" gradientTransform="rotate(90)" >
			<stop offset="0%" stop-color="#6c6c6c" />
			<stop offset="50%" stop-color="#b5b5b5" />
			<stop offset="100%" stop-color="#6c6c6c" />
		</linearGradient>
		<clipPath id="clipping-rect2" >
			<rect x="0" y="32" width="862" height="190" />
		</clipPath>
		<linearGradient id="gradient2" gradientTransform="rotate(90)" >
			<stop offset="0%" stop-color="#b6dead" />
			<stop offset="100%" stop-color="#ffffff" stop-opacity="0.00" />
		</linearGradient>
		<linearGradient id="gradient3" gradientTransform="rotate(90)" >
			<stop offset="0%" stop-color="#166e32" />
			<stop offset="50%" stop-color="#8ab698" />
			<stop offset="100%" stop-color="#166e32" />
		</linearGradient>
		<linearGradient id="gradient4" gradientTransform="rotate(90)" >
			<stop offset="0%" stop-color="#e6e6e6" stop-opacity="0.71" />
			<stop offset="100%" stop-color="#ffffff" stop-opacity="0.00" />
		</linearGradient>
	</defs>
	<g >
		<polygon fill="#ffffff" shape-rendering="crispEdges" points="862.00,31.00 862.00,13.00 0.00,13.00 0.00,31.00 " />
		<line x1="0.00" y1="28.88" x2="862.00" y2="28.88" stroke="#7f7f7f" stroke-width="1.00" clip-path="url('#clipping-rect1')" />
		<line x1="4.26" y1="28.88" x2="4.26" y2="26.76" stroke="#7f7f7f" stroke-width="1.00" clip-path="url('#clipping-rect1')" />
		<line x1="15.80" y1="28.88" x2="15.80" y2="25.71" stroke="#7f7f7f" stroke-width="1.00" clip-path="url('#clipping-rect1')" />
		<line x1="27.34" y1="28.88" x2="27.34" y2="26.76" stroke="#7f7f7f" stroke-width="1.00" clip-path="url('#clipping-rect1')" />
		<line x1="38.88" y1="28.88" x2="38.88" y2="25.71" stroke="#7f7f7f" stroke-width="1.00" clip-path="url('#clipping-rect1')" />
		<line x1="50.42" y1="28.88" x2="50.42" y2="26.76" stroke="#7f7f7f" stroke-width="1.00" clip-path="url('#clipping-rect1')" />
		<line x1="61.96" y1="28.88" x2="61.96" y2="25.71" stroke="#7f7f7f" stroke-width="1.00" clip-path="url('#clipping-rect1')" />
		<line x1="73.50" y1="28.88" x2="73.50" y2="26.76" stroke="#7f7f7f" stroke-width="1.00" clip-path="url('#clipping-rect1')" />
		<line x1="85.04" y1="28.88" x2="85.04" y2="25.71" stroke="#7f7f7f" stroke-width="1.00" clip-path="url('#clipping-rect1')" />
		<line x1="96.58" y1="28.88" x2="96.58" y2="26.76" stroke="#7f7f7f" stroke-width="1.00" clip-path="url('#clipping-rect1')" />
		<line x1="108.13" y1="28.88" x2="108.13" y2="25.71" stroke="#7f7f7f" stroke-width="1.00" clip-path="url('#clipping-rect1')" />
		<line x1="119.67" y1="28.88" x2="119.67" y2="26.76" stroke="#7f7f7f" stroke-width="1.00" clip-path="url('#clipping-rect1')" />
		<line x1="131.21" y1="28.88" x2="131.21" y2="25.71" stroke="#7f7f7f" stroke-width="1.00" clip-path="url('#clipping-rect1')" />
		<line x1="142.75" y1="28.88" x2="142.75" y2="26.76" stroke="#7f7f7f" stroke-width="1.00" clip-path="url('#clipping-rect1')" />
		<line x1="154.29" y1="28.88" x2="154.29" y2="25.71" stroke="#7f7f7f" stroke-width="1.00" clip-path="url('#clipping-rect1')" />
		<line x1="165.83" y1="28.88" x2="165.83" y2="26.76" stroke="#7f7f7f" stroke-width="1.00" clip-path="url('#clipping-rect1')" />
		<line x1="177.37" y1="28.88" x2="177.37" y2="25.71" stroke="#7f7f7f" stroke-width="1.00" clip-path="url('#clipping-rect1')" />
		<line x1="188.91" y1="28.88" x2="188.91" y2="26.76" stroke="#7f7f7f" stroke-width="1.00" clip-path="url('#clipping-rect1')" />
		<line x1="200.45" y1="28.88" x2="200.45" y2="25.71" stroke="#7f7f7f" stroke-width="1.00" clip-path="url('#clipping-rect1')" />
		<line x1="211.99" y1="28.88" x2="211.99" y2="26.76" stroke="#7f7f7f" stroke-width="1.00" clip-path="url('#clipping-rect1')" />
		<line x1="223.53" y1="28.88" x2="223.53" y2="25.71" stroke="#7f7f7f" stroke-width="1.00" clip-path="url('#clipping-rect1')" />
		<line x1="235.07" y1="28.88" x2="235.07" y2="26.76" stroke="#7f7f7f" stroke-width="1.00" clip-path="url('#clipping-rect1')" />
		<line x1="246.61" y1="28.88" x2="246.61" y2="25.71" stroke="#7f7f7f" stroke-width="1.00" clip-path="url('#clipping-rect1')" />
		<line x1="258.15" y1="28.88" x2="258.15" y2="26.76" stroke="#7f7f7f" stroke-width="1.00" clip-path="url('#clipping-rect1')" />
		<line x1="269.70" y1="28.88" x2="269.70" y2="25.71" stroke="#7f7f7f" stroke-width="1.00" clip-path="url('#clipping-rect1')" />
		<line x1="281.24" y1="28.88" x2="281.24" y2="26.76" stroke="#7f7f7f" stroke-width="1.00" clip-path="url('#clipping-rect1')" />
		<line x1="292.78" y1="28.88" x2="292.78" y2="25.71" stroke="#7f7f7f" stroke-width="1.00" clip-path="url('#clipping-rect1')" />
		<line x1="304.32" y1="28.88" x2="304.32" y2="26.76" stroke="#7f7f7f" stroke-width="1.00" clip-path="url('#clipping-rect1')" />
		<line x1="315.86" y1="28.88" x2="315.86" y2="25.71" stroke="#7f7f7f" stroke-width="1.00" clip-path="url('#clipping-rect1')" />
		<line x1="327.40" y1="28.88" x2="327.40" y2="26.76" stroke="#7f7f7f" stroke-width="1.00" clip-path="url('#clipping-rect1')" />
		<line x1="338.94" y1="28.88" x2="338.94" y2="25.71" stroke="#7f7f7f" stroke-width="1.00" clip-path="url('#clipping-rect1')" />
		<line x1="350.48" y1="28.88" x2="350.48" y2="26.76" stroke="#7f7f7f" stroke-width="1.00" clip-path="url('#clipping-rect1')" />
		<line x1="362.02" y1="28.88" x2="362.02" y2="25.71" stroke="#7f7f7f" stroke-width="1.00" clip-path="url('#clipping-rect1')" />
		<line x1="373.56" y1="28.88" x2="373.56" y2="26.76" stroke="#7f7f7f" stroke-width="1.00" clip-path="url('#clipping-rect1')" />
		<line x1="385.10" y1="28.88" x2="385.10" y2="25.71" stroke="#7f7f7f" stroke-width="1.00" clip-path="url('#clipping-rect1')" />
		<line x1="396.64" y1="28.88" x2="396.64" y2="26.76" stroke="#7f7f7f" stroke-width="1.00" clip-path="url('#clipping-rect1')" />
		<line x1="408.18" y1="28.88" x2="408.18" y2="25.71" stroke="#7f7f7f" stroke-width="1.00" clip-path="url('#clipping-rect1')" />
		<line x1="419.72" y1="28.88" x2="419.72" y2="26.76" stroke="#7f7f7f" stroke-width="1.00" clip-path="url('#clipping-rect1')" />
		<line x1="431.27" y1="28.88" x2="431.27" y2="25.71" stroke="#7f7f7f" stroke-width="1.00" clip-path="url('#clipping-rect1')" />
		<line x1="442.81" y1="28.88" x2="442.81" y2="26.76" stroke="#7f7f7f" stroke-width="1.00" clip-path="url('#clipping-rect1')" />
		<line x1="454.35" y1="28.88" x2="454.35" y2="25.71" stroke="#7f7f7f" stroke-width="1.00" clip-path="url('#clipping-rect1')" />
		<line x1="465.89" y1="28.88" x2="465.89" y2="26.76" stroke="#7f7f7f" stroke-width="1.00" clip-path="url('#clipping-rect1')" />
		<line x1="477.43" y1="28.88" x2="477.43" y2="25.71" stroke="#7f7f7f" stroke-width="1.00" clip-path="url('#clipping-rect1')" />
		<line x1="488.97" y1="28.88" x2="488.97" y2="26.76" stroke="#7f7f7f" stroke-width="1.00" clip-path="url('#clipping-rect1')" />
		<line x1="500.51" y1="28.88" x2="500.51" y2="25.71" stroke="#7f7f7f" stroke-width="1.00" clip-path="url('#clipping-rect1')" />
		<line x1="512.05" y1="28.88" x2="512.05" y2="26.76" stroke="#7f7f7f" stroke-width="1.00" clip-path="url('#clipping-rect1')" />
		<line x1="523.59" y1="28.88" x2="523.59" y2="25.71" stroke="#7f7f7f" stroke-width="1.00" clip-path="url('#clipping-rect1')" />
		<line x1="535.13" y1="28.88" x2="535.13" y2="26.76" stroke="#7f7f7f" stroke-width="1.00" clip-path="url('#clipping-rect1')" />
		<line x1="546.67" y1="28.88" x2="546.67" y2="25.71" stroke="#7f7f7f" stroke-width="1.00" clip-path="url('#clipping-rect1')" />
		<line x1="558.21" y1="28.88" x2="558.21" y2="26.76" stroke="#7f7f7f" stroke-width="1.00" clip-path="url('#clipping-rect1')" />
		<line x1="569.75" y1="28.88" x2="569.75" y2="25.71" stroke="#7f7f7f" stroke-width="1.00" clip-path="url('#clipping-rect1')" />
		<line x1="581.29" y1="28.88" x2="581.29" y2="26.76" stroke="#7f7f7f" stroke-width="1.00" clip-path="url('#clipping-rect1')" />
		<line x1="592.84" y1="28.88" x2="592.84" y2="25.71" stroke="#7f7f7f" stroke-width="1.00" clip-path="url('#clipping-rect1')" />
		<line x1="604.38" y1="28.88" x2="604.38" y2="26.76" stroke="#7f7f7f" stroke-width="1.00" clip-path="url('#clipping-rect1')" />
		<line x1="615.92" y1="28.88" x2="615.92" y2="25.71" stroke="#7f7f7f" stroke-width="1.00" clip-path="url('#clipping-rect1')" />
		<line x1="627.46" y1="28.88" x2="627.46" y2="26.76" stroke="#7f7f7f" stroke-width="1.00" clip-path="url('#clipping-rect1')" />
		<line x1="639.00" y1="28.88" x2="639.00" y2="25.71" stroke="#7f7f7f" stroke-width="1.00" clip-path="url('#clipping-rect1')" />
		<line x1="650.54" y1="28.88" x2="650.54" y2="26.76" stroke="#7f7f7f" stroke-width="1.00" clip-path="url('#clipping-rect1')" />
		<line x1="662.08" y1="28.88" x2="662.08" y2="25.71" stroke="#7f7f7f" stroke-width="1.00" clip-path="url('#clipping-rect1')" />
		<line x1="673.62" y1="28.88" x2="673.62" y2="26.76" stroke="#7f7f7f" stroke-width="1.00" clip-path="url('#clipping-rect1')" />
		<line x1="685.16" y1="28.88" x2="685.16" y2="25.71" stroke="#7f7f7f" stroke-width="1.00" clip-path="url('#clipping-rect1')" />
		<line x1="696.70" y1="28.88" x2="696.70" y2="26.76" stroke="#7f7f7f" stroke-width="1.00" clip-path="url('#clipping-rect1')" />
		<line x1="708.24" y1="28.88" x2="708.24" y2="25.71" stroke="#7f7f7f" stroke-width="1.00" clip-path="url('#clipping-rect1')" />
		<line x1="719.78" y1="28.88" x2="719.78" y2="26.76" stroke="#7f7f7f" stroke-width="1.00" clip-path="url('#clipping-rect1')" />
		<line x1="731.32" y1="28.88" x2="731.32" y2="25.71" stroke="#7f7f7f" stroke-width="1.00" clip-path="url('#clipping-rect1')" />
		<line x1="742.87" y1="28.88" x2="742.87" y2="26.76" stroke="#7f7f7f" stroke-width="1.00" clip-path="url('#clipping-rect1')" />
		<line x1="754.41" y1="28.88" x2="754.41" y2="25.71" stroke="#7f7f7f" stroke-width="1.00" clip-path="url('#clipping-rect1')" />
		<line x1="765.95" y1="28.88" x2="765.95" y2="26.76" stroke="#7f7f7f" stroke-width="1.00" clip-path="url('#clipping-rect1')" />
		<line x1="777.49" y1="28.88" x2="777.49" y2="25.71" stroke="#7f7f7f" stroke-width="1.00" clip-path="url('#clipping-rect1')" />
		<line x1="789.03" y1="28.88" x2="789.03" y2="26.76" stroke="#7f7f7f" stroke-width="1.00" clip-path="url('#clipping-rect1')" />
		<line x1="800.57" y1="28.88" x2="800.57" y2="25.71" stroke="#7f7f7f" stroke-width="1.00" clip-path="url('#clipping-rect1')" />
		<line x1="812.11" y1="28.88" x2="812.11" y2="26.76" stroke="#7f7f7f" stroke-width="1.00" clip-path="url('#clipping-rect1')" />
		<line x1="823.65" y1="28.88" x2="823.65" y2="25.71" stroke="#7f7f7f" stroke-width="1.00" clip-path="url('#clipping-rect1')" />
		<line x1="835.19" y1="28.88" x2="835.19" y2="26.76" stroke="#7f7f7f" stroke-width="1.00" clip-path="url('#clipping-rect1')" />
		<line x1="846.73" y1="28.88" x2="846.73" y2="25.71" stroke="#7f7f7f" stroke-width="1.00" clip-path="url('#clipping-rect1')" />
		<line x1="858.27" y1="28.88" x2="858.27" y2="26.76" stroke="#7f7f7f" stroke-width="1.00" clip-path="url('#clipping-rect1')" />
		<text x="825.65" y="23.59" font-family="Helvetica" font-size="10" fill="#333333" clip-path="url('#clipping-rect1')" >38 K</text>
		<line x1="823.65" y1="31.00" x2="823.65" y2="15.12" stroke="#7f7f7f" stroke-width="1.00" clip-path="url('#clipping-rect1')" />
		<text x="779.49" y="23.59" font-family="Helvetica" font-size="10" fill="#333333" clip-path="url('#clipping-rect1')" >36 K</text>
		<line x1="777.49" y1="31.00" x2="777.49" y2="15.12" stroke="#7f7f7f" stroke-width="1.00" clip-path="url('#clipping-rect1')" />
		<text x="733.32" y="23.59" font-family="Helvetica" font-size="10" fill="#333333" clip-path="url('#clipping-rect1')" >34 K</text>
		<line x1="731.32" y1="31.00" x2="731.32" y2="15.12" stroke="#7f7f7f" stroke-width="1.00" clip-path="url('#clipping-rect1')" />
		<text x="687.16" y="23.59" font-family="Helvetica" font-size="10" fill="#333333" clip-path="url('#clipping-rect1')" >32 K</text>
		<line x1="685.16" y1="31.00" x2="685.16" y2="15.12" stroke="#7f7f7f" stroke-width="1.00" clip-path="url('#clipping-rect1')" />
		<text x="641.00" y="23.59" font-family="Helvetica" font-size="10" fill="#333333" clip-path="url('#clipping-rect1')" >30 K</text>
		<line x1="639.00" y1="31.00" x2="639.00" y2="15.12" stroke="#7f7f7f" stroke-width="1.00" clip-path="url('#clipping-rect1')" />
		<text x="594.84" y="23.59" font-family="Helvetica" font-size="10" fill="#333333" clip-path="url('#clipping-rect1')" >28 K</text>
		<line x1="592.84" y1="31.00" x2="592.84" y2="15.12" stroke="#7f7f7f" stroke-width="1.00" clip-path="url('#clipping-rect1')" />
		<text x="548.67" y="23.59" font-family="Helvetica" font-size="10" fill="#333333" clip-path="url('#clipping-rect1')" >26 K</text>
		<line x1="546.67" y1="31.00" x2="546.67" y2="15.12" stroke="#7f7f7f" stroke-width="1.00" clip-path="url('#clipping-rect1')" />
		<text x="502.51" y="23.59" font-family="Helvetica" font-size="10" fill="#333333" clip-path="url('#clipping-rect1')" >24 K</text>
		<line x1="500.51" y1="31.00" x2="500.51" y2="15.12" stroke="#7f7f7f" stroke-width="1.00" clip-path="url('#clipping-rect1')" />
		<text x="456.35" y="23.59" font-family="Helvetica" font-size="10" fill="#333333" clip-path="url('#clipping-rect1')" >22 K</text>
		<line x1="454.35" y1="31.00" x2="454.35" y2="15.12" stroke="#7f7f7f" stroke-width="1.00" clip-path="url('#clipping-rect1')" />
		<text x="410.18" y="23.59" font-family="Helvetica" font-size="10" fill="#333333" clip-path="url('#clipping-rect1')" >20 K</text>
		<line x1="408.18" y1="31.00" x2="408.18" y2="15.12" stroke="#7f7f7f" stroke-width="1.00" clip-path="url('#clipping-rect1')" />
		<text x="364.02" y="23.59" font-family="Helvetica" font-size="10" fill="#333333" clip-path="url('#clipping-rect1')" >18 K</text>
		<line x1="362.02" y1="31.00" x2="362.02" y2="15.12" stroke="#7f7f7f" stroke-width="1.00" clip-path="url('#clipping-rect1')" />
		<text x="317.86" y="23.59" font-family="Helvetica" font-size="10" fill="#333333" clip-path="url('#clipping-rect1')" >16 K</text>
		<line x1="315.86" y1="31.00" x2="315.86" y2="15.12" stroke="#7f7f7f" stroke-width="1.00" clip-path="url('#clipping-rect1')" />
		<text x="271.70" y="23.59" font-family="Helvetica" font-size="10" fill="#333333" clip-path="url('#clipping-rect1')" >14 K</text>
		<line x1="269.70" y1="31.00" x2="269.70" y2="15.12" stroke="#7f7f7f" stroke-width="1.00" clip-path="url('#clipping-rect1')" />
		<text x="225.53" y="23.59" font-family="Helvetica" font-size="10" fill="#333333" clip-path="url('#clipping-rect1')" >12 K</text>
		<line x1="223.53" y1="31.00" x2="223.53" y2="15.12" stroke="#7f7f7f" stroke-width="1.00" clip-path="url('#clipping-rect1')" />
		<text x="179.37" y="23.59" font-family="Helvetica" font-size="10" fill="#333333" clip-path="url('#clipping-rect1')" >10 K</text>
		<line x1="177.37" y1="31.00" x2="177.37" y2="15.12" stroke="#7f7f7f" stroke-width="1.00" clip-path="url('#clipping-rect1')" />
		<text x="133.21" y="23.59" font-family="Helvetica" font-size="10" fill="#333333" clip-path="url('#clipping-rect1')" >8 K</text>
		<line x1="131.21" y1="31.00" x2="131.21" y2="15.12" stroke="#7f7f7f" stroke-width="1.00" clip-path="url('#clipping-rect1')" />
		<text x="87.04" y="23.59" font-family="Helvetica" font-size="10" fill="#333333" clip-path="url('#clipping-rect1')" >6 K</text>
		<line x1="85.04" y1="31.00" x2="85.04" y2="15.12" stroke="#7f7f7f" stroke-width="1.00" clip-path="url('#clipping-rect1')" />
		<text x="40.88" y="23.59" font-family="Helvetica" font-size="10" fill="#333333" clip-path="url('#clipping-rect1')" >4 K</text>
		<line x1="38.88" y1="31.00" x2="38.88" y2="15.12" stroke="#7f7f7f" stroke-width="1.00" clip-path="url('#clipping-rect1')" />
		<line x1="38.04" y1="221.00" x2="38.04" y2="31.00" stroke="#ebebeb" stroke-width="1.00" />
		<line x1="85.10" y1="221.00" x2="85.10" y2="31.00" stroke="#ebebeb" stroke-width="1.00" />
		<line x1="131.15" y1="221.00" x2="131.15" y2="31.00" stroke="#ebebeb" stroke-width="1.00" />
		<line x1="177.21" y1="221.00" x2="177.21" y2="31.00" stroke="#ebebeb" stroke-width="1.00" />
		<line x1="223.26" y1="221.00" x2="223.26" y2="31.00" stroke="#ebebeb" stroke-width="1.00" />
		<line x1="269.31" y1="221.00" x2="269.31" y2="31.00" stroke="#ebebeb" stroke-width="1.00" />
		<line x1="315.37" y1="221.00" x2="315.37" y2="31.00" stroke="#ebebeb" stroke-width="1.00" />
		<line x1="362.42" y1="221.00" x2="362.42" y2="31.00" stroke="#ebebeb" stroke-width="1.00" />
		<line x1="408.47" y1="221.00" x2="408.47" y2="31.00" stroke="#ebebeb" stroke-width="1.00" />
		<line x1="454.53" y1="221.00" x2="454.53" y2="31.00" stroke="#ebebeb" stroke-width="1.00" />
		<line x1="500.58" y1="221.00" x2="500.58" y2="31.00" stroke="#ebebeb" stroke-width="1.00" />
		<line x1="546.63" y1="221.00" x2="546.63" y2="31.00" stroke="#ebebeb" stroke-width="1.00" />
		<line x1="592.69" y1="221.00" x2="592.69" y2="31.00" stroke="#ebebeb" stroke-width="1.00" />
		<line x1="638.74" y1="221.00" x2="638.74" y2="31.00" stroke="#ebebeb" stroke-width="1.00" />
		<line x1="685.80" y1="221.00" x2="685.80" y2="31.00" stroke="#ebebeb" stroke-width="1.00" />
		<line x1="731.85" y1="221.00" x2="731.85" y2="31.00" stroke="#ebebeb" stroke-width="1.00" />
		<line x1="777.90" y1="221.00" x2="777.90" y2="31.00" stroke="#ebebeb" stroke-width="1.00" />
		<line x1="823.96" y1="221.00" x2="823.96" y2="31.00" stroke="#ebebeb" stroke-width="1.00" />
		<polygon fill="url('#gradient1')" shape-rendering="crispEdges" points="862.00,37.50 862.00,33.00 0.00,33.00 0.00,37.50 0.00,42.00 862.00,42.00 " />
		<line x1="0.00" y1="42.00" x2="0.00" y2="33.00" stroke="#6c6c6c" stroke-width="1.00" stroke-linejoin="round" />
		<line x1="0.00" y1="33.00" x2="862.00" y2="33.00" stroke="#6c6c6c" stroke-width="1.00" stroke-linejoin="round" />
		<line x1="862.00" y1="33.00" x2="862.00" y2="42.00" stroke="#6c6c6c" stroke-width="1.00" stroke-linejoin="round" />
		<line x1="0.00" y1="42.00" x2="862.00" y2="42.00" stroke="#6c6c6c" stroke-width="1.00" stroke-linejoin="round" />
		<line x1="338.26" y1="76.00" x2="400.74" y2="76.00" stroke="#124d94" stroke-width="1.00" />
		<polygon fill="#de8383" shape-rendering="crispEdges" points="339.00,71.00 339.00,81.00 338.00,81.00 338.00,71.00 " />
		<polygon fill="#da9191" shape-rendering="crispEdges" points="356.00,71.00 356.00,81.00 355.00,81.00 355.00,71.00 " />
		<polygon fill="#dc8989" shape-rendering="crispEdges" points="357.00,71.00 357.00,81.00 356.00,81.00 356.00,71.00 " />
		<polygon fill="#cccccc" shape-rendering="crispEdges" points="360.00,71.00 360.00,81.00 359.00,81.00 359.00,71.00 " />
		<polygon fill="#e36c6c" shape-rendering="crispEdges" points="361.00,71.00 361.00,81.00 360.00,81.00 360.00,71.00 " />
		<polygon fill="#e27272" shape-rendering="crispEdges" points="362.00,71.00 362.00,81.00 361.00,81.00 361.00,71.00 " />
		<polygon fill="#dc8989" shape-rendering="crispEdges" points="363.00,71.00 363.00,81.00 362.00,81.00 362.00,71.00 " />
		<polygon fill="#cccccc" shape-rendering="crispEdges" points="383.00,71.00 383.00,81.00 382.00,81.00 382.00,71.00 " />
		<polygon fill="#de8080" shape-rendering="crispEdges" points="384.00,71.00 384.00,81.00 383.00,81.00 383.00,71.00 " />
		<polygon fill="#da9393" shape-rendering="crispEdges" points="385.00,71.00 385.00,81.00 384.00,81.00 384.00,71.00 " />
		<polygon fill="#dc8989" shape-rendering="crispEdges" points="386.00,71.00 386.00,81.00 385.00,81.00 385.00,71.00 " />
		<polygon fill="#dd8787" shape-rendering="crispEdges" points="387.00,71.00 387.00,81.00 386.00,81.00 386.00,71.00 " />
		<polygon fill="#dd8585" shape-rendering="crispEdges" points="388.00,71.00 388.00,81.00 387.00,81.00 387.00,71.00 " />
		<polygon fill="#df7d7d" shape-rendering="crispEdges" points="398.00,71.00 398.00,81.00 397.00,81.00 397.00,71.00 " />
		<polygon fill="#e17676" shape-rendering="crispEdges" points="399.00,71.00 399.00,81.00 398.00,81.00 398.00,71.00 " />
		<polygon fill="#e17777" shape-rendering="crispEdges" points="400.00,71.00 400.00,81.00 399.00,81.00 399.00,71.00 " />
		<polygon fill="#de8282" shape-rendering="crispEdges" points="401.00,71.00 401.00,81.00 400.00,81.00 400.00,71.00 " />
		<line x1="321.26" y1="71.00" x2="321.26" y2="81.00" stroke="#ff7f7f" stroke-width="1.00" />
		<line x1="321.26" y1="81.00" x2="333.26" y2="81.00" stroke="#ff7f7f" stroke-width="1.00" />
		<line x1="333.26" y1="81.00" x2="333.26" y2="71.00" stroke="#ff7f7f" stroke-width="1.00" />
		<line x1="321.26" y1="71.00" x2="333.26" y2="71.00" stroke="#ff7f7f" stroke-width="1.00" />
		<line x1="321.26" y1="81.00" x2="325.26" y2="71.00" stroke="#ff0000" stroke-width="1.00" />
		<line x1="325.26" y1="71.00" x2="326.26" y2="81.00" stroke="#ff0000" stroke-width="1.00" />
		<line x1="326.26" y1="81.00" x2="328.26" y2="71.00" stroke="#ff0000" stroke-width="1.00" />
		<line x1="328.26" y1="71.00" x2="329.26" y2="81.00" stroke="#ff0000" stroke-width="1.00" />
		<line x1="329.26" y1="81.00" x2="333.26" y2="71.00" stroke="#ff0000" stroke-width="1.00" />
		<text x="305.82" y="79.00" font-family="Helvetica" font-size="10" fill="#124d94" >34</text>
		<line x1="405.76" y1="71.00" x2="405.76" y2="81.00" stroke="#ff7f7f" stroke-width="1.00" />
		<line x1="405.76" y1="81.00" x2="417.76" y2="81.00" stroke="#ff7f7f" stroke-width="1.00" />
		<line x1="417.76" y1="81.00" x2="417.76" y2="71.00" stroke="#ff7f7f" stroke-width="1.00" />
		<line x1="405.76" y1="71.00" x2="417.76" y2="71.00" stroke="#ff7f7f" stroke-width="1.00" />
		<line x1="405.76" y1="81.00" x2="409.76" y2="71.00" stroke="#ff0000" stroke-width="1.00" />
		<line x1="409.76" y1="71.00" x2="410.76" y2="81.00" stroke="#ff0000" stroke-width="1.00" />
		<line x1="410.76" y1="81.00" x2="412.76" y2="71.00" stroke="#ff0000" stroke-width="1.00" />
		<line x1="412.76" y1="71.00" x2="413.76" y2="81.00" stroke="#ff0000" stroke-width="1.00" />
		<line x1="413.76" y1="81.00" x2="417.76" y2="71.00" stroke="#ff0000" stroke-width="1.00" />
		<text x="422.76" y="79.00" font-family="Helvetica" font-size="10" fill="#124d94" >7</text>
		<line x1="367.50" y1="80.00" x2="371.50" y2="76.00" stroke="#000000" stroke-width="1.00" />
		<line x1="371.50" y1="76.00" x2="367.50" y2="72.00" stroke="#000000" stroke-width="1.00" />
		<text x="331.22" y="68.00" font-family="Helvetica" font-size="10" fill="#124d94" >Query_4392079</text>
		<polygon fill="url('#gradient2')" shape-rendering="crispEdges" points="0.00,58.00 862.02,58.00 862.02,44.00 0.00,44.00 " clip-path="url('#clipping-rect2')" />
		<text x="0.00" y="54.00" font-family="Helvetica" font-size="12" fill="#333333" >(U) Alignment for group templates, BLAST Results for: ref_XM_034430820.2</text>
		<polygon fill="#d59292" shape-rendering="crispEdges" points="339.37,101.00 339.37,111.00 338.26,111.00 338.26,101.00 " />
		<polygon fill="#cdaeae" shape-rendering="crispEdges" points="356.60,101.00 356.60,111.00 355.60,111.00 355.60,101.00 " />
		<polygon fill="#d1a0a0" shape-rendering="crispEdges" points="357.42,115.00 357.42,125.00 356.42,125.00 356.42,115.00 " />
		<polygon fill="#db7d7d" shape-rendering="crispEdges" points="362.77,129.00 362.77,139.00 359.82,139.00 359.82,129.00 " />
		<polygon fill="#d59292" shape-rendering="crispEdges" points="387.31,101.00 387.31,111.00 382.69,111.00 382.69,101.00 " />
		<polygon fill="#e16868" shape-rendering="crispEdges" points="400.74,101.00 400.74,111.00 397.14,111.00 397.14,101.00 " />
		<polygon fill="url('#gradient2')" shape-rendering="crispEdges" points="0.00,98.00 862.02,98.00 862.02,84.00 0.00,84.00 " clip-path="url('#clipping-rect2')" />
		<text x="0.00" y="94.00" font-family="Helvetica" font-size="12" fill="#333333" >(U) BLAST Results for: ref_XM_034430820.2</text>
		<polygon fill="url('#gradient3')" shape-rendering="crispEdges" points="63.54,181.00 63.54,186.00 10.27,186.00 10.27,181.00 10.27,176.00 63.54,176.00 " />
		<polygon fill="#ffffff" shape-rendering="crispEdges" points="32.91,181.00 40.91,177.00 38.91,181.00 40.91,185.00 " />
		<polygon fill="#ffffff" shape-rendering="crispEdges" points="133.40,187.00 133.40,175.00 68.54,175.00 68.54,187.00 " />
		<text x="68.54" y="184.50" font-family="Helvetica" font-size="10" fill="#124d94" >E2320_023021</text>
		<polygon fill="url('#gradient3')" shape-rendering="crispEdges" points="232.80,166.00 232.80,171.00 92.51,171.00 92.51,166.00 92.51,161.00 232.80,161.00 " />
		<polygon fill="#ffffff" shape-rendering="crispEdges" points="108.66,166.00 116.66,162.00 114.66,166.00 116.66,170.00 " />
		<polygon fill="#e0e0e0" shape-rendering="crispEdges" points="208.66,166.00 216.66,162.00 214.65,166.00 216.66,170.00 " />
		<polygon fill="#ffffff" shape-rendering="crispEdges" points="304.28,172.00 304.28,160.00 237.80,160.00 237.80,172.00 " />
		<text x="237.80" y="169.50" font-family="Helvetica" font-size="10" fill="#124d94" >E2320_023019</text>
		<polygon fill="url('#gradient3')" shape-rendering="crispEdges" points="329.65,181.00 329.65,186.00 263.73,186.00 263.73,181.00 263.73,176.00 329.65,176.00 " />
		<polygon fill="#ffffff" shape-rendering="crispEdges" points="292.69,181.00 300.69,177.00 298.69,181.00 300.69,185.00 " />
		<polygon fill="#ffffff" shape-rendering="crispEdges" points="401.24,187.00 401.24,175.00 334.65,175.00 334.65,187.00 " />
		<text x="334.65" y="184.50" font-family="Helvetica" font-size="10" fill="#124d94" >E2320_023017</text>
		<polygon fill="url('#gradient3')" shape-rendering="crispEdges" points="556.40,196.00 556.40,201.00 504.12,201.00 504.12,196.00 504.12,191.00 556.40,191.00 " />
		<polygon fill="#ffffff" shape-rendering="crispEdges" points="526.26,196.00 534.26,192.00 532.26,196.00 534.26,200.00 " />
		<polygon fill="#ffffff" shape-rendering="crispEdges" points="627.92,202.00 627.92,190.00 561.40,190.00 561.40,202.00 " />
		<text x="561.40" y="199.50" font-family="Helvetica" font-size="10" fill="#124d94" >E2320_023015</text>
		<polygon fill="url('#gradient3')" shape-rendering="crispEdges" points="862.00,166.00 862.00,171.00 574.08,171.00 574.08,166.00 574.08,161.00 862.00,161.00 " />
		<polygon fill="#ffffff" shape-rendering="crispEdges" points="622.04,166.00 614.04,162.00 616.04,166.00 614.04,170.00 " />
		<polygon fill="#e0e0e0" shape-rendering="crispEdges" points="722.04,166.00 714.04,162.00 716.04,166.00 714.04,170.00 " />
		<polygon fill="#c1c1c1" shape-rendering="crispEdges" points="822.04,166.00 814.04,162.00 816.04,166.00 814.04,170.00 " />
		<text x="502.58" y="169.50" font-family="Helvetica" font-size="10" fill="#124d94" >E2320_023012</text>
		<polygon fill="url('#gradient3')" shape-rendering="crispEdges" points="761.76,181.00 761.76,186.00 608.33,186.00 608.33,181.00 608.33,176.00 761.76,176.00 " />
		<polygon fill="#4c1919" fill-opacity="0.70" shape-rendering="crispEdges" points="609.33,181.00 613.33,176.00 614.33,176.00 610.33,181.00 614.33,186.00 613.33,186.00 " />
		<polygon fill="#4c1919" fill-opacity="0.30" shape-rendering="crispEdges" points="608.33,181.00 612.33,176.00 615.33,176.00 611.33,181.00 615.33,186.00 612.33,186.00 " />
		<polygon fill="#4c1919" fill-opacity="0.70" shape-rendering="crispEdges" points="613.33,181.00 617.33,176.00 618.33,176.00 614.33,181.00 618.33,186.00 617.33,186.00 " />
		<polygon fill="#4c1919" fill-opacity="0.30" shape-rendering="crispEdges" points="612.33,181.00 616.33,176.00 619.33,176.00 615.33,181.00 619.33,186.00 616.33,186.00 " />
		<polygon fill="#4c1919" fill-opacity="0.70" shape-rendering="crispEdges" points="760.76,181.00 756.76,176.00 755.76,176.00 759.76,181.00 755.76,186.00 756.76,186.00 " />
		<polygon fill="#4c1919" fill-opacity="0.30" shape-rendering="crispEdges" points="761.76,181.00 757.76,176.00 754.76,176.00 758.76,181.00 754.76,186.00 757.76,186.00 " />
		<polygon fill="#4c1919" fill-opacity="0.70" shape-rendering="crispEdges" points="756.76,181.00 752.76,176.00 751.76,176.00 755.76,181.00 751.76,186.00 752.76,186.00 " />
		<polygon fill="#4c1919" fill-opacity="0.30" shape-rendering="crispEdges" points="757.76,181.00 753.76,176.00 750.76,176.00 754.76,181.00 750.76,186.00 753.76,186.00 " />
		<polygon fill="#4c1919" fill-opacity="0.70" shape-rendering="crispEdges" points="609.33,181.00 613.33,176.00 614.33,176.00 610.33,181.00 614.33,186.00 613.33,186.00 " />
		<polygon fill="#4c1919" fill-opacity="0.30" shape-rendering="crispEdges" points="608.33,181.00 612.33,176.00 615.33,176.00 611.33,181.00 615.33,186.00 612.33,186.00 " />
		<polygon fill="#4c1919" fill-opacity="0.70" shape-rendering="crispEdges" points="613.33,181.00 617.33,176.00 618.33,176.00 614.33,181.00 618.33,186.00 617.33,186.00 " />
		<polygon fill="#4c1919" fill-opacity="0.30" shape-rendering="crispEdges" points="612.33,181.00 616.33,176.00 619.33,176.00 615.33,181.00 619.33,186.00 616.33,186.00 " />
		<polygon fill="#4c1919" fill-opacity="0.70" shape-rendering="crispEdges" points="760.76,181.00 756.76,176.00 755.76,176.00 759.76,181.00 755.76,186.00 756.76,186.00 " />
		<polygon fill="#4c1919" fill-opacity="0.30" shape-rendering="crispEdges" points="761.76,181.00 757.76,176.00 754.76,176.00 758.76,181.00 754.76,186.00 757.76,186.00 " />
		<polygon fill="#4c1919" fill-opacity="0.70" shape-rendering="crispEdges" points="756.76,181.00 752.76,176.00 751.76,176.00 755.76,181.00 751.76,186.00 752.76,186.00 " />
		<polygon fill="#4c1919" fill-opacity="0.30" shape-rendering="crispEdges" points="757.76,181.00 753.76,176.00 750.76,176.00 754.76,181.00 750.76,186.00 753.76,186.00 " />
		<polygon fill="#ffffff" shape-rendering="crispEdges" points="631.05,181.00 639.05,177.00 637.05,181.00 639.05,185.00 " />
		<polygon fill="#e0e0e0" shape-rendering="crispEdges" points="731.05,181.00 739.05,177.00 737.05,181.00 739.05,185.00 " />
		<polygon fill="#ffffff" shape-rendering="crispEdges" points="833.21,187.00 833.21,175.00 766.76,175.00 766.76,187.00 " />
		<text x="766.76" y="184.50" font-family="Helvetica" font-size="10" fill="#124d94" >E2320_023020</text>
		<polygon fill="url('#gradient4')" shape-rendering="crispEdges" points="0.00,156.00 862.02,156.00 862.02,142.00 0.00,142.00 " clip-path="url('#clipping-rect2')" />
		<text x="0.00" y="152.00" font-family="Helvetica" font-size="12" fill="#333333" >Genes, INSDC annotation provided by submitter</text>
		<polygon fill="url('#gradient4')" shape-rendering="crispEdges" points="0.00,217.00 862.02,217.00 862.02,203.00 0.00,203.00 " clip-path="url('#clipping-rect2')" />
		<text x="0.00" y="213.00" font-family="Helvetica" font-size="12" fill="#333333" >Genes, Ensembl release 112</text>
		<polygon fill="#0000ff" fill-opacity="0.20" shape-rendering="crispEdges" points="51.50,31.50 51.50,23.10 51.50,23.10 " />
		<polygon fill="#0000ff" fill-opacity="0.20" shape-rendering="crispEdges" points="51.50,31.50 51.50,31.50 51.50,23.10 " />
		<line x1="51.50" y1="30.50" x2="51.50" y2="23.10" stroke="#0000ff" stroke-opacity="0.40" stroke-width="1.00" />
		<line x1="51.50" y1="30.50" x2="51.50" y2="23.10" stroke="#0000ff" stroke-opacity="0.40" stroke-width="1.00" />
		<polygon fill="#0000ff" shape-rendering="crispEdges" points="45.79,22.35 45.50,20.50 45.79,18.65 46.65,16.97 47.97,15.65 49.65,14.79 51.50,14.50 51.50,26.50 49.65,26.21 47.97,25.35 46.65,24.03 " />
		<polygon fill="#0000ff" fill-opacity="0.60" shape-rendering="crispEdges" points="95.20,26.50 95.20,14.50 51.50,14.50 51.50,26.50 " />
		<text x="53.50" y="23.50" font-family="Helvetica" font-size="10" fill="#ffffff" >TM4SF5</text>
		<polygon fill="#0000ff" fill-opacity="0.20" shape-rendering="crispEdges" points="51.06,222.01 51.06,31.00 51.06,31.00 " />
		<polygon fill="#0000ff" fill-opacity="0.20" shape-rendering="crispEdges" points="51.06,222.01 51.06,222.01 51.06,31.00 " />
		<line x1="51.06" y1="221.00" x2="51.06" y2="31.00" stroke="#0000ff" stroke-opacity="0.40" stroke-width="1.00" />
		<line x1="51.06" y1="221.00" x2="51.06" y2="31.00" stroke="#0000ff" stroke-opacity="0.40" stroke-width="1.00" />
		<polygon fill="#ff0000" fill-opacity="0.20" shape-rendering="crispEdges" points="140.50,31.50 140.50,23.10 140.50,23.10 " />
		<polygon fill="#ff0000" fill-opacity="0.20" shape-rendering="crispEdges" points="140.50,31.50 140.50,31.50 140.50,23.10 " />
		<line x1="140.50" y1="30.50" x2="140.50" y2="23.10" stroke="#ff0000" stroke-opacity="0.40" stroke-width="1.00" />
		<line x1="140.50" y1="30.50" x2="140.50" y2="23.10" stroke="#ff0000" stroke-opacity="0.40" stroke-width="1.00" />
		<polygon fill="#ff0000" shape-rendering="crispEdges" points="134.79,22.35 134.50,20.50 134.79,18.65 135.65,16.97 136.97,15.65 138.65,14.79 140.50,14.50 140.50,26.50 138.65,26.21 136.97,25.35 135.65,24.03 " />
		<polygon fill="#ff0000" fill-opacity="0.60" shape-rendering="crispEdges" points="192.45,26.50 192.45,14.50 140.50,14.50 140.50,26.50 " />
		<text x="142.50" y="23.50" font-family="Helvetica" font-size="10" fill="#ffffff" >ZMYND15</text>
		<polygon fill="#ff0000" fill-opacity="0.20" shape-rendering="crispEdges" points="140.16,222.01 140.16,31.00 140.16,31.00 " />
		<polygon fill="#ff0000" fill-opacity="0.20" shape-rendering="crispEdges" points="140.16,222.01 140.16,222.01 140.16,31.00 " />
		<line x1="140.16" y1="221.00" x2="140.16" y2="31.00" stroke="#ff0000" stroke-opacity="0.40" stroke-width="1.00" />
		<line x1="140.16" y1="221.00" x2="140.16" y2="31.00" stroke="#ff0000" stroke-opacity="0.40" stroke-width="1.00" />
		<polygon fill="#ff0000" fill-opacity="0.20" shape-rendering="crispEdges" points="548.50,31.50 548.50,23.10 548.50,23.10 " />
		<polygon fill="#ff0000" fill-opacity="0.20" shape-rendering="crispEdges" points="548.50,31.50 548.50,31.50 548.50,23.10 " />
		<line x1="548.50" y1="30.50" x2="548.50" y2="23.10" stroke="#ff0000" stroke-opacity="0.40" stroke-width="1.00" />
		<line x1="548.50" y1="30.50" x2="548.50" y2="23.10" stroke="#ff0000" stroke-opacity="0.40" stroke-width="1.00" />
		<polygon fill="#ff0000" shape-rendering="crispEdges" points="542.79,22.35 542.50,20.50 542.79,18.65 543.65,16.97 544.97,15.65 546.65,14.79 548.50,14.50 548.50,26.50 546.65,26.21 544.97,25.35 543.65,24.03 " />
		<polygon fill="#ff0000" fill-opacity="0.60" shape-rendering="crispEdges" points="585.00,26.50 585.00,14.50 548.50,14.50 548.50,26.50 " />
		<text x="550.50" y="23.50" font-family="Helvetica" font-size="10" fill="#ffffff" >MED11</text>
		<polygon fill="#ff0000" fill-opacity="0.20" shape-rendering="crispEdges" points="548.64,222.01 548.64,31.00 548.64,31.00 " />
		<polygon fill="#ff0000" fill-opacity="0.20" shape-rendering="crispEdges" points="548.64,222.01 548.64,222.01 548.64,31.00 " />
		<line x1="548.64" y1="221.00" x2="548.64" y2="31.00" stroke="#ff0000" stroke-opacity="0.40" stroke-width="1.00" />
		<line x1="548.64" y1="221.00" x2="548.64" y2="31.00" stroke="#ff0000" stroke-opacity="0.40" stroke-width="1.00" />
		<polygon fill="#ff6600" fill-opacity="0.20" shape-rendering="crispEdges" points="413.50,23.10 413.50,31.50 318.50,31.50 318.50,23.10 " />
		<line x1="318.50" y1="30.50" x2="318.50" y2="23.10" stroke="#ff6600" stroke-opacity="0.40" stroke-width="1.00" />
		<line x1="413.50" y1="30.50" x2="413.50" y2="23.10" stroke="#ff6600" stroke-opacity="0.40" stroke-width="1.00" />
		<polygon fill="#ff6600" shape-rendering="crispEdges" points="312.79,22.35 312.50,20.50 312.79,18.65 313.65,16.97 314.97,15.65 316.65,14.79 318.50,14.50 318.50,26.50 316.65,26.21 314.97,25.35 313.65,24.03 " />
		<polygon fill="#ff6600" fill-opacity="0.60" shape-rendering="crispEdges" points="409.22,26.50 409.22,14.50 318.50,14.50 318.50,26.50 " />
		<text x="320.50" y="23.50" font-family="Helvetica" font-size="10" fill="#ffffff" >CXCL16 blastn hits</text>
		<polygon fill="#ff6600" fill-opacity="0.20" shape-rendering="crispEdges" points="413.48,31.00 413.48,222.01 318.37,222.01 318.37,31.00 " />
		<line x1="318.37" y1="221.00" x2="318.37" y2="31.00" stroke="#ff6600" stroke-opacity="0.40" stroke-width="1.00" />
		<line x1="413.48" y1="221.00" x2="413.48" y2="31.00" stroke="#ff6600" stroke-opacity="0.40" stroke-width="1.00" />
		<polygon fill="#e5e5e5" shape-rendering="crispEdges" points="862.00,13.00 862.00,-1.00 0.00,-1.00 0.00,13.00 " />
		<text x="0.00" y="10.00" font-family="Helvetica Bold" font-size="12" text-anchor="start" fill="#000000" >SOZL01001525.1:2315..39661 Naja naja isolate NN01 ScVE01q_1538;HRSCAF=1757, whole genome shotgun sequence</text>
	</g>
</svg>
