<?xml version="1.0" standalone="no" ?>
<!DOCTYPE svg PUBLIC "-//W3C//DTD SVG 1.1//EN" "http://www.w3.org/Graphics/SVG/1.1/DTD/svg11.dtd">
<svg width="838px" height="181px" xmlns="http://www.w3.org/2000/svg" version="1.1" viewBox="0 0 838 181" >
	<style type="text/css" > <![CDATA[
		@import url("https://www.ncbi.nlm.nih.gov/projects/sviewer/css/svg_fonts.css");
	]]>
	</style>
	<desc >Generated by NCBI Genome Workbench http://www.ncbi.nlm.nih.gov/tools/gbench/</desc>
	<defs >
		<clipPath id="clipping-rect1" >
			<rect x="0" y="14" width="838" height="20" />
		</clipPath>
		<linearGradient id="gradient1" gradientTransform="rotate(90)" >
			<stop offset="0%" stop-color="#6c6c6c" />
			<stop offset="50%" stop-color="#b5b5b5" />
			<stop offset="100%" stop-color="#6c6c6c" />
		</linearGradient>
		<linearGradient id="gradient2" gradientTransform="rotate(90)" >
			<stop offset="0%" stop-color="#10c010" />
			<stop offset="50%" stop-color="#87df87" />
			<stop offset="100%" stop-color="#10c010" />
		</linearGradient>
		<linearGradient id="gradient3" gradientTransform="rotate(90)" >
			<stop offset="0%" stop-color="#166e32" />
			<stop offset="50%" stop-color="#8ab698" />
			<stop offset="100%" stop-color="#166e32" />
		</linearGradient>
		<linearGradient id="gradient4" gradientTransform="rotate(90)" >
			<stop offset="0%" stop-color="#166e32" />
			<stop offset="50%" stop-color="#448b5a" />
			<stop offset="100%" stop-color="#166e32" />
		</linearGradient>
		<clipPath id="clipping-rect2" >
			<rect x="0" y="34" width="838" height="147" />
		</clipPath>
		<linearGradient id="gradient5" gradientTransform="rotate(90)" >
			<stop offset="0%" stop-color="#e6e6e6" stop-opacity="0.71" />
			<stop offset="100%" stop-color="#ffffff" stop-opacity="0.00" />
		</linearGradient>
	</defs>
	<g >
		<polygon fill="#ffffff" shape-rendering="crispEdges" points="838.00,33.00 838.00,13.00 0.00,13.00 0.00,33.00 " />
		<line x1="0.00" y1="30.89" x2="838.00" y2="30.89" stroke="#7f7f7f" stroke-width="1.00" clip-path="url('#clipping-rect1')" />
		<line x1="2.89" y1="30.89" x2="2.89" y2="28.79" stroke="#7f7f7f" stroke-width="1.00" clip-path="url('#clipping-rect1')" />
		<line x1="10.75" y1="30.89" x2="10.75" y2="28.79" stroke="#7f7f7f" stroke-width="1.00" clip-path="url('#clipping-rect1')" />
		<line x1="18.61" y1="30.89" x2="18.61" y2="27.74" stroke="#7f7f7f" stroke-width="1.00" clip-path="url('#clipping-rect1')" />
		<line x1="26.47" y1="30.89" x2="26.47" y2="28.79" stroke="#7f7f7f" stroke-width="1.00" clip-path="url('#clipping-rect1')" />
		<line x1="34.33" y1="30.89" x2="34.33" y2="28.79" stroke="#7f7f7f" stroke-width="1.00" clip-path="url('#clipping-rect1')" />
		<line x1="42.19" y1="30.89" x2="42.19" y2="28.79" stroke="#7f7f7f" stroke-width="1.00" clip-path="url('#clipping-rect1')" />
		<line x1="50.05" y1="30.89" x2="50.05" y2="28.79" stroke="#7f7f7f" stroke-width="1.00" clip-path="url('#clipping-rect1')" />
		<line x1="57.91" y1="30.89" x2="57.91" y2="27.74" stroke="#7f7f7f" stroke-width="1.00" clip-path="url('#clipping-rect1')" />
		<line x1="65.77" y1="30.89" x2="65.77" y2="28.79" stroke="#7f7f7f" stroke-width="1.00" clip-path="url('#clipping-rect1')" />
		<line x1="73.63" y1="30.89" x2="73.63" y2="28.79" stroke="#7f7f7f" stroke-width="1.00" clip-path="url('#clipping-rect1')" />
		<line x1="81.49" y1="30.89" x2="81.49" y2="28.79" stroke="#7f7f7f" stroke-width="1.00" clip-path="url('#clipping-rect1')" />
		<line x1="89.35" y1="30.89" x2="89.35" y2="28.79" stroke="#7f7f7f" stroke-width="1.00" clip-path="url('#clipping-rect1')" />
		<line x1="97.21" y1="30.89" x2="97.21" y2="27.74" stroke="#7f7f7f" stroke-width="1.00" clip-path="url('#clipping-rect1')" />
		<line x1="105.07" y1="30.89" x2="105.07" y2="28.79" stroke="#7f7f7f" stroke-width="1.00" clip-path="url('#clipping-rect1')" />
		<line x1="112.93" y1="30.89" x2="112.93" y2="28.79" stroke="#7f7f7f" stroke-width="1.00" clip-path="url('#clipping-rect1')" />
		<line x1="120.79" y1="30.89" x2="120.79" y2="28.79" stroke="#7f7f7f" stroke-width="1.00" clip-path="url('#clipping-rect1')" />
		<line x1="128.65" y1="30.89" x2="128.65" y2="28.79" stroke="#7f7f7f" stroke-width="1.00" clip-path="url('#clipping-rect1')" />
		<line x1="136.51" y1="30.89" x2="136.51" y2="27.74" stroke="#7f7f7f" stroke-width="1.00" clip-path="url('#clipping-rect1')" />
		<line x1="144.37" y1="30.89" x2="144.37" y2="28.79" stroke="#7f7f7f" stroke-width="1.00" clip-path="url('#clipping-rect1')" />
		<line x1="152.23" y1="30.89" x2="152.23" y2="28.79" stroke="#7f7f7f" stroke-width="1.00" clip-path="url('#clipping-rect1')" />
		<line x1="160.09" y1="30.89" x2="160.09" y2="28.79" stroke="#7f7f7f" stroke-width="1.00" clip-path="url('#clipping-rect1')" />
		<line x1="167.95" y1="30.89" x2="167.95" y2="28.79" stroke="#7f7f7f" stroke-width="1.00" clip-path="url('#clipping-rect1')" />
		<line x1="175.82" y1="30.89" x2="175.82" y2="27.74" stroke="#7f7f7f" stroke-width="1.00" clip-path="url('#clipping-rect1')" />
		<line x1="183.68" y1="30.89" x2="183.68" y2="28.79" stroke="#7f7f7f" stroke-width="1.00" clip-path="url('#clipping-rect1')" />
		<line x1="191.54" y1="30.89" x2="191.54" y2="28.79" stroke="#7f7f7f" stroke-width="1.00" clip-path="url('#clipping-rect1')" />
		<line x1="199.40" y1="30.89" x2="199.40" y2="28.79" stroke="#7f7f7f" stroke-width="1.00" clip-path="url('#clipping-rect1')" />
		<line x1="207.26" y1="30.89" x2="207.26" y2="28.79" stroke="#7f7f7f" stroke-width="1.00" clip-path="url('#clipping-rect1')" />
		<line x1="215.12" y1="30.89" x2="215.12" y2="27.74" stroke="#7f7f7f" stroke-width="1.00" clip-path="url('#clipping-rect1')" />
		<line x1="222.98" y1="30.89" x2="222.98" y2="28.79" stroke="#7f7f7f" stroke-width="1.00" clip-path="url('#clipping-rect1')" />
		<line x1="230.84" y1="30.89" x2="230.84" y2="28.79" stroke="#7f7f7f" stroke-width="1.00" clip-path="url('#clipping-rect1')" />
		<line x1="238.70" y1="30.89" x2="238.70" y2="28.79" stroke="#7f7f7f" stroke-width="1.00" clip-path="url('#clipping-rect1')" />
		<line x1="246.56" y1="30.89" x2="246.56" y2="28.79" stroke="#7f7f7f" stroke-width="1.00" clip-path="url('#clipping-rect1')" />
		<line x1="254.42" y1="30.89" x2="254.42" y2="27.74" stroke="#7f7f7f" stroke-width="1.00" clip-path="url('#clipping-rect1')" />
		<line x1="262.28" y1="30.89" x2="262.28" y2="28.79" stroke="#7f7f7f" stroke-width="1.00" clip-path="url('#clipping-rect1')" />
		<line x1="270.14" y1="30.89" x2="270.14" y2="28.79" stroke="#7f7f7f" stroke-width="1.00" clip-path="url('#clipping-rect1')" />
		<line x1="278.00" y1="30.89" x2="278.00" y2="28.79" stroke="#7f7f7f" stroke-width="1.00" clip-path="url('#clipping-rect1')" />
		<line x1="285.86" y1="30.89" x2="285.86" y2="28.79" stroke="#7f7f7f" stroke-width="1.00" clip-path="url('#clipping-rect1')" />
		<line x1="293.72" y1="30.89" x2="293.72" y2="27.74" stroke="#7f7f7f" stroke-width="1.00" clip-path="url('#clipping-rect1')" />
		<line x1="301.58" y1="30.89" x2="301.58" y2="28.79" stroke="#7f7f7f" stroke-width="1.00" clip-path="url('#clipping-rect1')" />
		<line x1="309.44" y1="30.89" x2="309.44" y2="28.79" stroke="#7f7f7f" stroke-width="1.00" clip-path="url('#clipping-rect1')" />
		<line x1="317.30" y1="30.89" x2="317.30" y2="28.79" stroke="#7f7f7f" stroke-width="1.00" clip-path="url('#clipping-rect1')" />
		<line x1="325.16" y1="30.89" x2="325.16" y2="28.79" stroke="#7f7f7f" stroke-width="1.00" clip-path="url('#clipping-rect1')" />
		<line x1="333.02" y1="30.89" x2="333.02" y2="27.74" stroke="#7f7f7f" stroke-width="1.00" clip-path="url('#clipping-rect1')" />
		<line x1="340.88" y1="30.89" x2="340.88" y2="28.79" stroke="#7f7f7f" stroke-width="1.00" clip-path="url('#clipping-rect1')" />
		<line x1="348.74" y1="30.89" x2="348.74" y2="28.79" stroke="#7f7f7f" stroke-width="1.00" clip-path="url('#clipping-rect1')" />
		<line x1="356.60" y1="30.89" x2="356.60" y2="28.79" stroke="#7f7f7f" stroke-width="1.00" clip-path="url('#clipping-rect1')" />
		<line x1="364.46" y1="30.89" x2="364.46" y2="28.79" stroke="#7f7f7f" stroke-width="1.00" clip-path="url('#clipping-rect1')" />
		<line x1="372.33" y1="30.89" x2="372.33" y2="27.74" stroke="#7f7f7f" stroke-width="1.00" clip-path="url('#clipping-rect1')" />
		<line x1="380.19" y1="30.89" x2="380.19" y2="28.79" stroke="#7f7f7f" stroke-width="1.00" clip-path="url('#clipping-rect1')" />
		<line x1="388.05" y1="30.89" x2="388.05" y2="28.79" stroke="#7f7f7f" stroke-width="1.00" clip-path="url('#clipping-rect1')" />
		<line x1="395.91" y1="30.89" x2="395.91" y2="28.79" stroke="#7f7f7f" stroke-width="1.00" clip-path="url('#clipping-rect1')" />
		<line x1="403.77" y1="30.89" x2="403.77" y2="28.79" stroke="#7f7f7f" stroke-width="1.00" clip-path="url('#clipping-rect1')" />
		<line x1="411.63" y1="30.89" x2="411.63" y2="27.74" stroke="#7f7f7f" stroke-width="1.00" clip-path="url('#clipping-rect1')" />
		<line x1="419.49" y1="30.89" x2="419.49" y2="28.79" stroke="#7f7f7f" stroke-width="1.00" clip-path="url('#clipping-rect1')" />
		<line x1="427.35" y1="30.89" x2="427.35" y2="28.79" stroke="#7f7f7f" stroke-width="1.00" clip-path="url('#clipping-rect1')" />
		<line x1="435.21" y1="30.89" x2="435.21" y2="28.79" stroke="#7f7f7f" stroke-width="1.00" clip-path="url('#clipping-rect1')" />
		<line x1="443.07" y1="30.89" x2="443.07" y2="28.79" stroke="#7f7f7f" stroke-width="1.00" clip-path="url('#clipping-rect1')" />
		<line x1="450.93" y1="30.89" x2="450.93" y2="27.74" stroke="#7f7f7f" stroke-width="1.00" clip-path="url('#clipping-rect1')" />
		<line x1="458.79" y1="30.89" x2="458.79" y2="28.79" stroke="#7f7f7f" stroke-width="1.00" clip-path="url('#clipping-rect1')" />
		<line x1="466.65" y1="30.89" x2="466.65" y2="28.79" stroke="#7f7f7f" stroke-width="1.00" clip-path="url('#clipping-rect1')" />
		<line x1="474.51" y1="30.89" x2="474.51" y2="28.79" stroke="#7f7f7f" stroke-width="1.00" clip-path="url('#clipping-rect1')" />
		<line x1="482.37" y1="30.89" x2="482.37" y2="28.79" stroke="#7f7f7f" stroke-width="1.00" clip-path="url('#clipping-rect1')" />
		<line x1="490.23" y1="30.89" x2="490.23" y2="27.74" stroke="#7f7f7f" stroke-width="1.00" clip-path="url('#clipping-rect1')" />
		<line x1="498.09" y1="30.89" x2="498.09" y2="28.79" stroke="#7f7f7f" stroke-width="1.00" clip-path="url('#clipping-rect1')" />
		<line x1="505.95" y1="30.89" x2="505.95" y2="28.79" stroke="#7f7f7f" stroke-width="1.00" clip-path="url('#clipping-rect1')" />
		<line x1="513.81" y1="30.89" x2="513.81" y2="28.79" stroke="#7f7f7f" stroke-width="1.00" clip-path="url('#clipping-rect1')" />
		<line x1="521.67" y1="30.89" x2="521.67" y2="28.79" stroke="#7f7f7f" stroke-width="1.00" clip-path="url('#clipping-rect1')" />
		<line x1="529.53" y1="30.89" x2="529.53" y2="27.74" stroke="#7f7f7f" stroke-width="1.00" clip-path="url('#clipping-rect1')" />
		<line x1="537.39" y1="30.89" x2="537.39" y2="28.79" stroke="#7f7f7f" stroke-width="1.00" clip-path="url('#clipping-rect1')" />
		<line x1="545.25" y1="30.89" x2="545.25" y2="28.79" stroke="#7f7f7f" stroke-width="1.00" clip-path="url('#clipping-rect1')" />
		<line x1="553.11" y1="30.89" x2="553.11" y2="28.79" stroke="#7f7f7f" stroke-width="1.00" clip-path="url('#clipping-rect1')" />
		<line x1="560.97" y1="30.89" x2="560.97" y2="28.79" stroke="#7f7f7f" stroke-width="1.00" clip-path="url('#clipping-rect1')" />
		<line x1="568.83" y1="30.89" x2="568.83" y2="27.74" stroke="#7f7f7f" stroke-width="1.00" clip-path="url('#clipping-rect1')" />
		<line x1="576.70" y1="30.89" x2="576.70" y2="28.79" stroke="#7f7f7f" stroke-width="1.00" clip-path="url('#clipping-rect1')" />
		<line x1="584.56" y1="30.89" x2="584.56" y2="28.79" stroke="#7f7f7f" stroke-width="1.00" clip-path="url('#clipping-rect1')" />
		<line x1="592.42" y1="30.89" x2="592.42" y2="28.79" stroke="#7f7f7f" stroke-width="1.00" clip-path="url('#clipping-rect1')" />
		<line x1="600.28" y1="30.89" x2="600.28" y2="28.79" stroke="#7f7f7f" stroke-width="1.00" clip-path="url('#clipping-rect1')" />
		<line x1="608.14" y1="30.89" x2="608.14" y2="27.74" stroke="#7f7f7f" stroke-width="1.00" clip-path="url('#clipping-rect1')" />
		<line x1="616.00" y1="30.89" x2="616.00" y2="28.79" stroke="#7f7f7f" stroke-width="1.00" clip-path="url('#clipping-rect1')" />
		<line x1="623.86" y1="30.89" x2="623.86" y2="28.79" stroke="#7f7f7f" stroke-width="1.00" clip-path="url('#clipping-rect1')" />
		<line x1="631.72" y1="30.89" x2="631.72" y2="28.79" stroke="#7f7f7f" stroke-width="1.00" clip-path="url('#clipping-rect1')" />
		<line x1="639.58" y1="30.89" x2="639.58" y2="28.79" stroke="#7f7f7f" stroke-width="1.00" clip-path="url('#clipping-rect1')" />
		<line x1="647.44" y1="30.89" x2="647.44" y2="27.74" stroke="#7f7f7f" stroke-width="1.00" clip-path="url('#clipping-rect1')" />
		<line x1="655.30" y1="30.89" x2="655.30" y2="28.79" stroke="#7f7f7f" stroke-width="1.00" clip-path="url('#clipping-rect1')" />
		<line x1="663.16" y1="30.89" x2="663.16" y2="28.79" stroke="#7f7f7f" stroke-width="1.00" clip-path="url('#clipping-rect1')" />
		<line x1="671.02" y1="30.89" x2="671.02" y2="28.79" stroke="#7f7f7f" stroke-width="1.00" clip-path="url('#clipping-rect1')" />
		<line x1="678.88" y1="30.89" x2="678.88" y2="28.79" stroke="#7f7f7f" stroke-width="1.00" clip-path="url('#clipping-rect1')" />
		<line x1="686.74" y1="30.89" x2="686.74" y2="27.74" stroke="#7f7f7f" stroke-width="1.00" clip-path="url('#clipping-rect1')" />
		<line x1="694.60" y1="30.89" x2="694.60" y2="28.79" stroke="#7f7f7f" stroke-width="1.00" clip-path="url('#clipping-rect1')" />
		<line x1="702.46" y1="30.89" x2="702.46" y2="28.79" stroke="#7f7f7f" stroke-width="1.00" clip-path="url('#clipping-rect1')" />
		<line x1="710.32" y1="30.89" x2="710.32" y2="28.79" stroke="#7f7f7f" stroke-width="1.00" clip-path="url('#clipping-rect1')" />
		<line x1="718.18" y1="30.89" x2="718.18" y2="28.79" stroke="#7f7f7f" stroke-width="1.00" clip-path="url('#clipping-rect1')" />
		<line x1="726.04" y1="30.89" x2="726.04" y2="27.74" stroke="#7f7f7f" stroke-width="1.00" clip-path="url('#clipping-rect1')" />
		<line x1="733.90" y1="30.89" x2="733.90" y2="28.79" stroke="#7f7f7f" stroke-width="1.00" clip-path="url('#clipping-rect1')" />
		<line x1="741.76" y1="30.89" x2="741.76" y2="28.79" stroke="#7f7f7f" stroke-width="1.00" clip-path="url('#clipping-rect1')" />
		<line x1="749.62" y1="30.89" x2="749.62" y2="28.79" stroke="#7f7f7f" stroke-width="1.00" clip-path="url('#clipping-rect1')" />
		<line x1="757.48" y1="30.89" x2="757.48" y2="28.79" stroke="#7f7f7f" stroke-width="1.00" clip-path="url('#clipping-rect1')" />
		<line x1="765.34" y1="30.89" x2="765.34" y2="27.74" stroke="#7f7f7f" stroke-width="1.00" clip-path="url('#clipping-rect1')" />
		<line x1="773.20" y1="30.89" x2="773.20" y2="28.79" stroke="#7f7f7f" stroke-width="1.00" clip-path="url('#clipping-rect1')" />
		<line x1="781.07" y1="30.89" x2="781.07" y2="28.79" stroke="#7f7f7f" stroke-width="1.00" clip-path="url('#clipping-rect1')" />
		<line x1="788.93" y1="30.89" x2="788.93" y2="28.79" stroke="#7f7f7f" stroke-width="1.00" clip-path="url('#clipping-rect1')" />
		<line x1="796.79" y1="30.89" x2="796.79" y2="28.79" stroke="#7f7f7f" stroke-width="1.00" clip-path="url('#clipping-rect1')" />
		<line x1="804.65" y1="30.89" x2="804.65" y2="27.74" stroke="#7f7f7f" stroke-width="1.00" clip-path="url('#clipping-rect1')" />
		<line x1="812.51" y1="30.89" x2="812.51" y2="28.79" stroke="#7f7f7f" stroke-width="1.00" clip-path="url('#clipping-rect1')" />
		<line x1="820.37" y1="30.89" x2="820.37" y2="28.79" stroke="#7f7f7f" stroke-width="1.00" clip-path="url('#clipping-rect1')" />
		<line x1="828.23" y1="30.89" x2="828.23" y2="28.79" stroke="#7f7f7f" stroke-width="1.00" clip-path="url('#clipping-rect1')" />
		<line x1="836.09" y1="30.89" x2="836.09" y2="28.79" stroke="#7f7f7f" stroke-width="1.00" clip-path="url('#clipping-rect1')" />
		<line x1="804.65" y1="33.00" x2="804.65" y2="15.11" stroke="#7f7f7f" stroke-width="1.00" clip-path="url('#clipping-rect1')" />
		<text x="728.04" y="25.63" font-family="Helvetica" font-size="12" fill="#333333" clip-path="url('#clipping-rect1')" >7,180 K</text>
		<line x1="726.04" y1="33.00" x2="726.04" y2="15.11" stroke="#7f7f7f" stroke-width="1.00" clip-path="url('#clipping-rect1')" />
		<text x="649.44" y="25.63" font-family="Helvetica" font-size="12" fill="#333333" clip-path="url('#clipping-rect1')" >7,160 K</text>
		<line x1="647.44" y1="33.00" x2="647.44" y2="15.11" stroke="#7f7f7f" stroke-width="1.00" clip-path="url('#clipping-rect1')" />
		<text x="570.83" y="25.63" font-family="Helvetica" font-size="12" fill="#333333" clip-path="url('#clipping-rect1')" >7,140 K</text>
		<line x1="568.83" y1="33.00" x2="568.83" y2="15.11" stroke="#7f7f7f" stroke-width="1.00" clip-path="url('#clipping-rect1')" />
		<text x="492.23" y="25.63" font-family="Helvetica" font-size="12" fill="#333333" clip-path="url('#clipping-rect1')" >7,120 K</text>
		<line x1="490.23" y1="33.00" x2="490.23" y2="15.11" stroke="#7f7f7f" stroke-width="1.00" clip-path="url('#clipping-rect1')" />
		<text x="413.63" y="25.63" font-family="Helvetica" font-size="12" fill="#333333" clip-path="url('#clipping-rect1')" >7,100 K</text>
		<line x1="411.63" y1="33.00" x2="411.63" y2="15.11" stroke="#7f7f7f" stroke-width="1.00" clip-path="url('#clipping-rect1')" />
		<text x="335.02" y="25.63" font-family="Helvetica" font-size="12" fill="#333333" clip-path="url('#clipping-rect1')" >7,080 K</text>
		<line x1="333.02" y1="33.00" x2="333.02" y2="15.11" stroke="#7f7f7f" stroke-width="1.00" clip-path="url('#clipping-rect1')" />
		<text x="256.42" y="25.63" font-family="Helvetica" font-size="12" fill="#333333" clip-path="url('#clipping-rect1')" >7,060 K</text>
		<line x1="254.42" y1="33.00" x2="254.42" y2="15.11" stroke="#7f7f7f" stroke-width="1.00" clip-path="url('#clipping-rect1')" />
		<text x="177.82" y="25.63" font-family="Helvetica" font-size="12" fill="#333333" clip-path="url('#clipping-rect1')" >7,040 K</text>
		<line x1="175.82" y1="33.00" x2="175.82" y2="15.11" stroke="#7f7f7f" stroke-width="1.00" clip-path="url('#clipping-rect1')" />
		<text x="99.21" y="25.63" font-family="Helvetica" font-size="12" fill="#333333" clip-path="url('#clipping-rect1')" >7,020 K</text>
		<line x1="97.21" y1="33.00" x2="97.21" y2="15.11" stroke="#7f7f7f" stroke-width="1.00" clip-path="url('#clipping-rect1')" />
		<text x="20.61" y="25.63" font-family="Helvetica" font-size="12" fill="#333333" clip-path="url('#clipping-rect1')" >7 M</text>
		<line x1="18.61" y1="33.00" x2="18.61" y2="15.11" stroke="#7f7f7f" stroke-width="1.00" clip-path="url('#clipping-rect1')" />
		<line x1="18.02" y1="180.00" x2="18.02" y2="33.00" stroke="#ebebeb" stroke-width="1.00" />
		<line x1="97.12" y1="180.00" x2="97.12" y2="33.00" stroke="#ebebeb" stroke-width="1.00" />
		<line x1="175.21" y1="180.00" x2="175.21" y2="33.00" stroke="#ebebeb" stroke-width="1.00" />
		<line x1="254.30" y1="180.00" x2="254.30" y2="33.00" stroke="#ebebeb" stroke-width="1.00" />
		<line x1="333.40" y1="180.00" x2="333.40" y2="33.00" stroke="#ebebeb" stroke-width="1.00" />
		<line x1="411.49" y1="180.00" x2="411.49" y2="33.00" stroke="#ebebeb" stroke-width="1.00" />
		<line x1="490.59" y1="180.00" x2="490.59" y2="33.00" stroke="#ebebeb" stroke-width="1.00" />
		<line x1="568.68" y1="180.00" x2="568.68" y2="33.00" stroke="#ebebeb" stroke-width="1.00" />
		<line x1="647.77" y1="180.00" x2="647.77" y2="33.00" stroke="#ebebeb" stroke-width="1.00" />
		<line x1="726.87" y1="180.00" x2="726.87" y2="33.00" stroke="#ebebeb" stroke-width="1.00" />
		<line x1="804.96" y1="180.00" x2="804.96" y2="33.00" stroke="#ebebeb" stroke-width="1.00" />
		<polygon fill="url('#gradient1')" shape-rendering="crispEdges" points="838.00,40.00 838.00,35.00 0.00,35.00 0.00,40.00 0.00,45.00 838.00,45.00 " />
		<line x1="0.00" y1="45.00" x2="0.00" y2="35.00" stroke="#6c6c6c" stroke-width="1.00" stroke-linejoin="round" />
		<line x1="0.00" y1="35.00" x2="838.00" y2="35.00" stroke="#6c6c6c" stroke-width="1.00" stroke-linejoin="round" />
		<line x1="838.00" y1="35.00" x2="838.00" y2="45.00" stroke="#6c6c6c" stroke-width="1.00" stroke-linejoin="round" />
		<line x1="0.00" y1="45.00" x2="838.00" y2="45.00" stroke="#6c6c6c" stroke-width="1.00" stroke-linejoin="round" />
		<polygon fill="url('#gradient2')" shape-rendering="crispEdges" points="838.00,39.50 838.00,46.00 0.00,46.00 0.00,39.50 0.00,33.00 838.00,33.00 " />
		<polygon fill="url('#gradient3')" shape-rendering="crispEdges" points="37.69,76.40 37.69,82.40 0.00,82.40 0.00,76.40 0.00,70.40 37.69,70.40 " />
		<polygon fill="#8ab698" shape-rendering="crispEdges" points="37.69,76.40 37.69,70.40 46.09,70.40 " />
		<polygon fill="#8ab698" shape-rendering="crispEdges" points="37.69,76.40 37.69,82.40 46.09,82.40 " />
		<line x1="46.09" y1="70.40" x2="37.69" y2="70.40" stroke="#166e32" stroke-width="1.50" />
		<line x1="46.09" y1="70.40" x2="37.69" y2="76.40" stroke="#166e32" stroke-width="1.50" />
		<line x1="46.09" y1="82.40" x2="37.69" y2="82.40" stroke="#166e32" stroke-width="1.50" />
		<line x1="46.09" y1="82.40" x2="37.69" y2="76.40" stroke="#166e32" stroke-width="1.50" />
		<polygon fill="#ffffff" shape-rendering="crispEdges" points="14.04,76.40 23.64,71.60 21.24,76.40 23.64,81.20 " />
		<polygon fill="#ffffff" shape-rendering="crispEdges" points="89.68,83.00 89.68,69.00 51.09,69.00 51.09,83.00 " />
		<text x="51.09" y="80.90" font-family="Helvetica" font-size="12" fill="#124d94" >NCOR1</text>
		<polygon fill="url('#gradient3')" shape-rendering="crispEdges" points="246.64,99.20 246.64,105.20 49.52,105.20 49.52,99.20 49.52,93.20 246.64,93.20 " />
		<polygon fill="url('#gradient3')" shape-rendering="crispEdges" points="246.64,99.20 246.64,107.60 255.04,99.20 246.64,90.80 " />
		<polygon fill="#8ab698" shape-rendering="crispEdges" points="49.52,99.20 49.52,93.20 41.12,93.20 " />
		<polygon fill="#8ab698" shape-rendering="crispEdges" points="49.52,99.20 49.52,105.20 41.12,105.20 " />
		<line x1="41.12" y1="93.20" x2="49.52" y2="93.20" stroke="#166e32" stroke-width="1.50" />
		<line x1="41.12" y1="93.20" x2="49.52" y2="99.20" stroke="#166e32" stroke-width="1.50" />
		<line x1="41.12" y1="105.20" x2="49.52" y2="105.20" stroke="#166e32" stroke-width="1.50" />
		<line x1="41.12" y1="105.20" x2="49.52" y2="99.20" stroke="#166e32" stroke-width="1.50" />
		<polygon fill="#ffffff" shape-rendering="crispEdges" points="102.88,99.20 93.28,94.40 95.68,99.20 93.28,104.00 " />
		<polygon fill="#e0e0e0" shape-rendering="crispEdges" points="202.88,99.20 193.28,94.40 195.68,99.20 193.28,104.00 " />
		<text x="10.15" y="103.70" font-family="Helvetica" font-size="12" fill="#124d94" >PIGL</text>
		<polygon fill="url('#gradient3')" shape-rendering="crispEdges" points="262.78,76.40 262.78,82.40 259.24,82.40 259.24,76.40 259.24,70.40 262.78,70.40 " />
		<polygon fill="#8ab698" shape-rendering="crispEdges" points="262.78,76.40 262.78,70.40 271.18,70.40 " />
		<polygon fill="#8ab698" shape-rendering="crispEdges" points="262.78,76.40 262.78,82.40 271.18,82.40 " />
		<line x1="271.18" y1="70.40" x2="262.78" y2="70.40" stroke="#166e32" stroke-width="1.50" />
		<line x1="271.18" y1="70.40" x2="262.78" y2="76.40" stroke="#166e32" stroke-width="1.50" />
		<line x1="271.18" y1="82.40" x2="262.78" y2="82.40" stroke="#166e32" stroke-width="1.50" />
		<line x1="271.18" y1="82.40" x2="262.78" y2="76.40" stroke="#166e32" stroke-width="1.50" />
		<polygon fill="#ffffff" shape-rendering="crispEdges" points="316.68,83.00 316.68,69.00 276.18,69.00 276.18,83.00 " />
		<text x="276.18" y="80.90" font-family="Helvetica" font-size="12" fill="#124d94" >CENPV</text>
		<polygon fill="url('#gradient3')" shape-rendering="crispEdges" points="359.35,122.00 359.35,128.00 289.19,128.00 289.19,122.00 289.19,116.00 359.35,116.00 " />
		<polygon fill="url('#gradient3')" shape-rendering="crispEdges" points="359.35,122.00 359.35,130.40 367.75,122.00 359.35,113.60 " />
		<polygon fill="#8ab698" shape-rendering="crispEdges" points="289.19,122.00 289.19,116.00 280.79,116.00 " />
		<polygon fill="#8ab698" shape-rendering="crispEdges" points="289.19,122.00 289.19,128.00 280.79,128.00 " />
		<line x1="280.79" y1="116.00" x2="289.19" y2="116.00" stroke="#166e32" stroke-width="1.50" />
		<line x1="280.79" y1="116.00" x2="289.19" y2="122.00" stroke="#166e32" stroke-width="1.50" />
		<line x1="280.79" y1="128.00" x2="289.19" y2="128.00" stroke="#166e32" stroke-width="1.50" />
		<line x1="280.79" y1="128.00" x2="289.19" y2="122.00" stroke="#166e32" stroke-width="1.50" />
		<polygon fill="#ffffff" shape-rendering="crispEdges" points="329.07,122.00 319.47,117.20 321.87,122.00 319.47,126.80 " />
		<text x="237.90" y="126.50" font-family="Helvetica" font-size="12" fill="#124d94" >TRPV2</text>
		<polygon fill="url('#gradient3')" shape-rendering="crispEdges" points="301.60,144.80 301.60,150.80 293.55,150.80 293.55,144.80 293.55,138.80 301.60,138.80 " />
		<text x="205.24" y="149.30" font-family="Helvetica" font-size="12" fill="#124d94" >LOC101747587</text>
		<polygon fill="url('#gradient3')" shape-rendering="crispEdges" points="500.30,76.40 500.30,82.40 418.14,82.40 418.14,76.40 418.14,70.40 500.30,70.40 " />
		<polygon fill="url('#gradient3')" shape-rendering="crispEdges" points="500.30,76.40 500.30,84.80 508.70,76.40 500.30,68.00 " />
		<polygon fill="#8ab698" shape-rendering="crispEdges" points="418.14,76.40 418.14,70.40 409.74,70.40 " />
		<polygon fill="#8ab698" shape-rendering="crispEdges" points="418.14,76.40 418.14,82.40 409.74,82.40 " />
		<line x1="409.74" y1="70.40" x2="418.14" y2="70.40" stroke="#166e32" stroke-width="1.50" />
		<line x1="409.74" y1="70.40" x2="418.14" y2="76.40" stroke="#166e32" stroke-width="1.50" />
		<line x1="409.74" y1="82.40" x2="418.14" y2="82.40" stroke="#166e32" stroke-width="1.50" />
		<line x1="409.74" y1="82.40" x2="418.14" y2="76.40" stroke="#166e32" stroke-width="1.50" />
		<polygon fill="#ffffff" shape-rendering="crispEdges" points="464.02,76.40 454.42,71.60 456.82,76.40 454.42,81.20 " />
		<text x="368.34" y="80.90" font-family="Helvetica" font-size="12" fill="#124d94" >P2RX5</text>
		<polygon fill="url('#gradient3')" shape-rendering="crispEdges" points="423.55,99.20 423.55,105.20 420.68,105.20 420.68,99.20 420.68,93.20 423.55,93.20 " />
		<polygon fill="#8ab698" shape-rendering="crispEdges" points="423.55,99.20 423.55,93.20 431.95,93.20 " />
		<polygon fill="#8ab698" shape-rendering="crispEdges" points="423.55,99.20 423.55,105.20 431.95,105.20 " />
		<line x1="431.95" y1="93.20" x2="423.55" y2="93.20" stroke="#166e32" stroke-width="1.50" />
		<line x1="431.95" y1="93.20" x2="423.55" y2="99.20" stroke="#166e32" stroke-width="1.50" />
		<line x1="431.95" y1="105.20" x2="423.55" y2="105.20" stroke="#166e32" stroke-width="1.50" />
		<line x1="431.95" y1="105.20" x2="423.55" y2="99.20" stroke="#166e32" stroke-width="1.50" />
		<polygon fill="#ffffff" shape-rendering="crispEdges" points="469.21,106.00 469.21,92.00 436.95,92.00 436.95,106.00 " />
		<text x="436.95" y="103.70" font-family="Helvetica" font-size="12" fill="#124d94" >GSG2</text>
		<polygon fill="url('#gradient3')" shape-rendering="crispEdges" points="513.09,167.60 513.09,173.60 509.49,173.60 509.49,167.60 509.49,161.60 513.09,161.60 " />
		<polygon fill="#ffffff" shape-rendering="crispEdges" points="549.84,174.00 549.84,160.00 518.09,160.00 518.09,174.00 " />
		<text x="518.09" y="172.10" font-family="Helvetica" font-size="12" fill="#124d94" >EMC6</text>
		<polygon fill="url('#gradient3')" shape-rendering="crispEdges" points="518.97,144.80 518.97,150.80 513.53,150.80 513.53,144.80 513.53,138.80 518.97,138.80 " />
		<polygon fill="url('#gradient4')" shape-rendering="crispEdges" points="518.97,144.80 518.97,153.20 527.37,144.80 518.97,136.40 " />
		<text x="456.70" y="149.30" font-family="Helvetica" font-size="12" fill="#124d94" >TAX1BP3</text>
		<polygon fill="url('#gradient3')" shape-rendering="crispEdges" points="549.93,122.00 549.93,128.00 536.43,128.00 536.43,122.00 536.43,116.00 549.93,116.00 " />
		<polygon fill="url('#gradient3')" shape-rendering="crispEdges" points="536.43,122.00 536.43,130.40 528.03,122.00 536.43,113.60 " />
		<polygon fill="#8ab698" shape-rendering="crispEdges" points="549.93,122.00 549.93,116.00 558.33,116.00 " />
		<polygon fill="#8ab698" shape-rendering="crispEdges" points="549.93,122.00 549.93,128.00 558.33,128.00 " />
		<line x1="558.33" y1="116.00" x2="549.93" y2="116.00" stroke="#166e32" stroke-width="1.50" />
		<line x1="558.33" y1="116.00" x2="549.93" y2="122.00" stroke="#166e32" stroke-width="1.50" />
		<line x1="558.33" y1="128.00" x2="549.93" y2="128.00" stroke="#166e32" stroke-width="1.50" />
		<line x1="558.33" y1="128.00" x2="549.93" y2="122.00" stroke="#166e32" stroke-width="1.50" />
		<polygon fill="#ffffff" shape-rendering="crispEdges" points="594.87,129.00 594.87,115.00 563.33,115.00 563.33,129.00 " />
		<text x="563.33" y="126.50" font-family="Helvetica" font-size="12" fill="#124d94" >CTNS</text>
		<polygon fill="url('#gradient3')" shape-rendering="crispEdges" points="582.20,76.40 582.20,82.40 567.25,82.40 567.25,76.40 567.25,70.40 582.20,70.40 " />
		<polygon fill="url('#gradient3')" shape-rendering="crispEdges" points="582.20,76.40 582.20,84.80 590.60,76.40 582.20,68.00 " />
		<polygon fill="#8ab698" shape-rendering="crispEdges" points="567.25,76.40 567.25,70.40 558.85,70.40 " />
		<polygon fill="#8ab698" shape-rendering="crispEdges" points="567.25,76.40 567.25,82.40 558.85,82.40 " />
		<line x1="558.85" y1="70.40" x2="567.25" y2="70.40" stroke="#166e32" stroke-width="1.50" />
		<line x1="558.85" y1="70.40" x2="567.25" y2="76.40" stroke="#166e32" stroke-width="1.50" />
		<line x1="558.85" y1="82.40" x2="567.25" y2="82.40" stroke="#166e32" stroke-width="1.50" />
		<line x1="558.85" y1="82.40" x2="567.25" y2="76.40" stroke="#166e32" stroke-width="1.50" />
		<text x="521.86" y="80.90" font-family="Helvetica" font-size="12" fill="#124d94" >SHPK</text>
		<polygon fill="url('#gradient3')" shape-rendering="crispEdges" points="636.94,99.20 636.94,105.20 587.61,105.20 587.61,99.20 587.61,93.20 636.94,93.20 " />
		<polygon fill="url('#gradient3')" shape-rendering="crispEdges" points="636.94,99.20 636.94,107.60 645.34,99.20 636.94,90.80 " />
		<polygon fill="#8ab698" shape-rendering="crispEdges" points="587.61,99.20 587.61,93.20 579.21,93.20 " />
		<polygon fill="#8ab698" shape-rendering="crispEdges" points="587.61,99.20 587.61,105.20 579.21,105.20 " />
		<line x1="579.21" y1="93.20" x2="587.61" y2="93.20" stroke="#166e32" stroke-width="1.50" />
		<line x1="579.21" y1="93.20" x2="587.61" y2="99.20" stroke="#166e32" stroke-width="1.50" />
		<line x1="579.21" y1="105.20" x2="587.61" y2="105.20" stroke="#166e32" stroke-width="1.50" />
		<line x1="579.21" y1="105.20" x2="587.61" y2="99.20" stroke="#166e32" stroke-width="1.50" />
		<polygon fill="#ffffff" shape-rendering="crispEdges" points="617.08,99.20 607.48,94.40 609.88,99.20 607.48,104.00 " />
		<text x="538.29" y="103.70" font-family="Helvetica" font-size="12" fill="#124d94" >TRPV1</text>
		<polygon fill="url('#gradient3')" shape-rendering="crispEdges" points="743.63,76.40 743.63,82.40 651.21,82.40 651.21,76.40 651.21,70.40 743.63,70.40 " />
		<polygon fill="url('#gradient3')" shape-rendering="crispEdges" points="743.63,76.40 743.63,84.80 752.03,76.40 743.63,68.00 " />
		<polygon fill="#8ab698" shape-rendering="crispEdges" points="651.21,76.40 651.21,70.40 642.81,70.40 " />
		<polygon fill="#8ab698" shape-rendering="crispEdges" points="651.21,76.40 651.21,82.40 642.81,82.40 " />
		<line x1="642.81" y1="70.40" x2="651.21" y2="70.40" stroke="#166e32" stroke-width="1.50" />
		<line x1="642.81" y1="70.40" x2="651.21" y2="76.40" stroke="#166e32" stroke-width="1.50" />
		<line x1="642.81" y1="82.40" x2="651.21" y2="82.40" stroke="#166e32" stroke-width="1.50" />
		<line x1="642.81" y1="82.40" x2="651.21" y2="76.40" stroke="#166e32" stroke-width="1.50" />
		<polygon fill="#ffffff" shape-rendering="crispEdges" points="702.22,76.40 692.62,71.60 695.02,76.40 692.62,81.20 " />
		<text x="599.98" y="80.90" font-family="Helvetica" font-size="12" fill="#124d94" >TRPV3</text>
		<polygon fill="url('#gradient3')" shape-rendering="crispEdges" points="777.76,99.20 777.76,105.20 760.17,105.20 760.17,99.20 760.17,93.20 777.76,93.20 " />
		<polygon fill="url('#gradient3')" shape-rendering="crispEdges" points="760.17,99.20 760.17,107.60 751.77,99.20 760.17,90.80 " />
		<polygon fill="#8ab698" shape-rendering="crispEdges" points="777.76,99.20 777.76,93.20 786.16,93.20 " />
		<polygon fill="#8ab698" shape-rendering="crispEdges" points="777.76,99.20 777.76,105.20 786.16,105.20 " />
		<line x1="786.16" y1="93.20" x2="777.76" y2="93.20" stroke="#166e32" stroke-width="1.50" />
		<line x1="786.16" y1="93.20" x2="777.76" y2="99.20" stroke="#166e32" stroke-width="1.50" />
		<line x1="786.16" y1="105.20" x2="777.76" y2="105.20" stroke="#166e32" stroke-width="1.50" />
		<line x1="786.16" y1="105.20" x2="777.76" y2="99.20" stroke="#166e32" stroke-width="1.50" />
		<polygon fill="#ffffff" shape-rendering="crispEdges" points="764.16,99.20 773.76,94.40 771.36,99.20 773.76,104.00 " />
		<polygon fill="#ffffff" shape-rendering="crispEdges" points="822.80,106.00 822.80,92.00 791.16,92.00 791.16,106.00 " />
		<text x="791.16" y="103.70" font-family="Helvetica" font-size="12" fill="#124d94" >ASPA</text>
		<polygon fill="url('#gradient3')" shape-rendering="crispEdges" points="807.32,122.00 807.32,128.00 794.96,128.00 794.96,122.00 794.96,116.00 807.32,116.00 " />
		<polygon fill="url('#gradient3')" shape-rendering="crispEdges" points="807.32,122.00 807.32,130.40 815.72,122.00 807.32,113.60 " />
		<polygon fill="#8ab698" shape-rendering="crispEdges" points="794.96,122.00 794.96,116.00 786.56,116.00 " />
		<polygon fill="#8ab698" shape-rendering="crispEdges" points="794.96,122.00 794.96,128.00 786.56,128.00 " />
		<line x1="786.56" y1="116.00" x2="794.96" y2="116.00" stroke="#166e32" stroke-width="1.50" />
		<line x1="786.56" y1="116.00" x2="794.96" y2="122.00" stroke="#166e32" stroke-width="1.50" />
		<line x1="786.56" y1="128.00" x2="794.96" y2="128.00" stroke="#166e32" stroke-width="1.50" />
		<line x1="786.56" y1="128.00" x2="794.96" y2="122.00" stroke="#166e32" stroke-width="1.50" />
		<text x="730.00" y="126.50" font-family="Helvetica" font-size="12" fill="#124d94" >SPATA22</text>
		<polygon fill="url('#gradient3')" shape-rendering="crispEdges" points="838.00,76.40 838.00,82.40 820.88,82.40 820.88,76.40 820.88,70.40 838.00,70.40 " />
		<polygon fill="url('#gradient3')" shape-rendering="crispEdges" points="820.88,76.40 820.88,84.80 812.48,76.40 820.88,68.00 " />
		<polygon fill="#ffffff" shape-rendering="crispEdges" points="824.64,76.40 834.24,71.60 831.84,76.40 834.24,81.20 " />
		<polygon fill="url('#gradient5')" shape-rendering="crispEdges" points="0.00,62.00 838.00,62.00 838.00,47.00 0.00,47.00 " clip-path="url('#clipping-rect2')" />
		<text x="0.00" y="58.00" font-family="Helvetica" font-size="14" fill="#333333" >Genes, NCBI Gallus gallus Annotation Release 106, 2022-03-03</text>
		<polygon fill="#0000ff" fill-opacity="0.20" shape-rendering="crispEdges" points="425.50,33.50 425.50,23.10 425.50,23.10 " />
		<polygon fill="#0000ff" fill-opacity="0.20" shape-rendering="crispEdges" points="425.50,33.50 425.50,33.50 425.50,23.10 " />
		<line x1="425.50" y1="32.50" x2="425.50" y2="23.10" stroke="#0000ff" stroke-opacity="0.40" stroke-width="1.00" />
		<line x1="425.50" y1="32.50" x2="425.50" y2="23.10" stroke="#0000ff" stroke-opacity="0.40" stroke-width="1.00" />
		<polygon fill="#0000ff" shape-rendering="crispEdges" points="419.79,22.35 419.50,20.50 419.79,18.65 420.65,16.97 421.97,15.65 423.65,14.79 425.50,14.50 425.50,26.50 423.65,26.21 421.97,25.35 420.65,24.03 " />
		<polygon fill="#0000ff" fill-opacity="0.60" shape-rendering="crispEdges" points="467.14,26.50 467.14,14.50 425.50,14.50 425.50,26.50 " />
		<text x="427.50" y="23.50" font-family="Helvetica" font-size="10" fill="#ffffff" >HASPIN</text>
		<polygon fill="#0000ff" fill-opacity="0.20" shape-rendering="crispEdges" points="425.51,181.01 425.51,33.00 425.51,33.00 " />
		<polygon fill="#0000ff" fill-opacity="0.20" shape-rendering="crispEdges" points="425.51,181.01 425.51,181.01 425.51,33.00 " />
		<line x1="425.51" y1="180.00" x2="425.51" y2="33.00" stroke="#0000ff" stroke-opacity="0.40" stroke-width="1.00" />
		<line x1="425.51" y1="180.00" x2="425.51" y2="33.00" stroke="#0000ff" stroke-opacity="0.40" stroke-width="1.00" />
		<polygon fill="#e5e5e5" shape-rendering="crispEdges" points="838.00,13.00 838.00,-1.00 0.00,-1.00 0.00,13.00 " />
		<text x="0.00" y="10.00" font-family="Helvetica Bold" font-size="12" text-anchor="start" fill="#000000" >NC_052550.1:6995265..7208486 Gallus gallus isolate bGalGal1 chromosome 19, bGalGal1.mat.broiler.GRCg7b, whole genome shotgun sequence</text>
	</g>
</svg>
