<?xml version="1.0" standalone="no" ?>
<!DOCTYPE svg PUBLIC "-//W3C//DTD SVG 1.1//EN" "http://www.w3.org/Graphics/SVG/1.1/DTD/svg11.dtd">
<svg width="838px" height="158px" xmlns="http://www.w3.org/2000/svg" version="1.1" viewBox="0 0 838 158" >
	<style type="text/css" > <![CDATA[
		@import url("https://www.ncbi.nlm.nih.gov/projects/sviewer/css/svg_fonts.css");
	]]>
	</style>
	<desc >Generated by NCBI Genome Workbench http://www.ncbi.nlm.nih.gov/tools/gbench/</desc>
	<defs >
		<clipPath id="clipping-rect1" >
			<rect x="0" y="14" width="838" height="20" />
		</clipPath>
		<linearGradient id="gradient1" gradientTransform="rotate(90)" >
			<stop offset="0%" stop-color="#6c6c6c" />
			<stop offset="50%" stop-color="#b5b5b5" />
			<stop offset="100%" stop-color="#6c6c6c" />
		</linearGradient>
		<linearGradient id="gradient2" gradientTransform="rotate(90)" >
			<stop offset="0%" stop-color="#10c010" />
			<stop offset="50%" stop-color="#87df87" />
			<stop offset="100%" stop-color="#10c010" />
		</linearGradient>
		<linearGradient id="gradient3" gradientTransform="rotate(90)" >
			<stop offset="0%" stop-color="#166e32" />
			<stop offset="50%" stop-color="#8ab698" />
			<stop offset="100%" stop-color="#166e32" />
		</linearGradient>
		<linearGradient id="gradient4" gradientTransform="rotate(90)" >
			<stop offset="0%" stop-color="#166e32" />
			<stop offset="50%" stop-color="#448b5a" />
			<stop offset="100%" stop-color="#166e32" />
		</linearGradient>
		<clipPath id="clipping-rect2" >
			<rect x="0" y="34" width="838" height="124" />
		</clipPath>
		<linearGradient id="gradient5" gradientTransform="rotate(90)" >
			<stop offset="0%" stop-color="#e6e6e6" stop-opacity="0.71" />
			<stop offset="100%" stop-color="#ffffff" stop-opacity="0.00" />
		</linearGradient>
	</defs>
	<g >
		<polygon fill="#ffffff" shape-rendering="crispEdges" points="838.00,33.00 838.00,13.00 0.00,13.00 0.00,33.00 " />
		<line x1="0.00" y1="30.89" x2="838.00" y2="30.89" stroke="#7f7f7f" stroke-width="1.00" clip-path="url('#clipping-rect1')" />
		<line x1="1.49" y1="30.89" x2="1.49" y2="28.79" stroke="#7f7f7f" stroke-width="1.00" clip-path="url('#clipping-rect1')" />
		<line x1="7.55" y1="30.89" x2="7.55" y2="28.79" stroke="#7f7f7f" stroke-width="1.00" clip-path="url('#clipping-rect1')" />
		<line x1="13.61" y1="30.89" x2="13.61" y2="28.79" stroke="#7f7f7f" stroke-width="1.00" clip-path="url('#clipping-rect1')" />
		<line x1="19.67" y1="30.89" x2="19.67" y2="28.79" stroke="#7f7f7f" stroke-width="1.00" clip-path="url('#clipping-rect1')" />
		<line x1="25.74" y1="30.89" x2="25.74" y2="28.79" stroke="#7f7f7f" stroke-width="1.00" clip-path="url('#clipping-rect1')" />
		<line x1="31.80" y1="30.89" x2="31.80" y2="28.79" stroke="#7f7f7f" stroke-width="1.00" clip-path="url('#clipping-rect1')" />
		<line x1="37.86" y1="30.89" x2="37.86" y2="27.74" stroke="#7f7f7f" stroke-width="1.00" clip-path="url('#clipping-rect1')" />
		<line x1="43.92" y1="30.89" x2="43.92" y2="28.79" stroke="#7f7f7f" stroke-width="1.00" clip-path="url('#clipping-rect1')" />
		<line x1="49.98" y1="30.89" x2="49.98" y2="28.79" stroke="#7f7f7f" stroke-width="1.00" clip-path="url('#clipping-rect1')" />
		<line x1="56.04" y1="30.89" x2="56.04" y2="28.79" stroke="#7f7f7f" stroke-width="1.00" clip-path="url('#clipping-rect1')" />
		<line x1="62.10" y1="30.89" x2="62.10" y2="28.79" stroke="#7f7f7f" stroke-width="1.00" clip-path="url('#clipping-rect1')" />
		<line x1="68.16" y1="30.89" x2="68.16" y2="28.79" stroke="#7f7f7f" stroke-width="1.00" clip-path="url('#clipping-rect1')" />
		<line x1="74.22" y1="30.89" x2="74.22" y2="28.79" stroke="#7f7f7f" stroke-width="1.00" clip-path="url('#clipping-rect1')" />
		<line x1="80.28" y1="30.89" x2="80.28" y2="28.79" stroke="#7f7f7f" stroke-width="1.00" clip-path="url('#clipping-rect1')" />
		<line x1="86.34" y1="30.89" x2="86.34" y2="28.79" stroke="#7f7f7f" stroke-width="1.00" clip-path="url('#clipping-rect1')" />
		<line x1="92.40" y1="30.89" x2="92.40" y2="28.79" stroke="#7f7f7f" stroke-width="1.00" clip-path="url('#clipping-rect1')" />
		<line x1="98.46" y1="30.89" x2="98.46" y2="27.74" stroke="#7f7f7f" stroke-width="1.00" clip-path="url('#clipping-rect1')" />
		<line x1="104.52" y1="30.89" x2="104.52" y2="28.79" stroke="#7f7f7f" stroke-width="1.00" clip-path="url('#clipping-rect1')" />
		<line x1="110.58" y1="30.89" x2="110.58" y2="28.79" stroke="#7f7f7f" stroke-width="1.00" clip-path="url('#clipping-rect1')" />
		<line x1="116.64" y1="30.89" x2="116.64" y2="28.79" stroke="#7f7f7f" stroke-width="1.00" clip-path="url('#clipping-rect1')" />
		<line x1="122.70" y1="30.89" x2="122.70" y2="28.79" stroke="#7f7f7f" stroke-width="1.00" clip-path="url('#clipping-rect1')" />
		<line x1="128.76" y1="30.89" x2="128.76" y2="28.79" stroke="#7f7f7f" stroke-width="1.00" clip-path="url('#clipping-rect1')" />
		<line x1="134.82" y1="30.89" x2="134.82" y2="28.79" stroke="#7f7f7f" stroke-width="1.00" clip-path="url('#clipping-rect1')" />
		<line x1="140.88" y1="30.89" x2="140.88" y2="28.79" stroke="#7f7f7f" stroke-width="1.00" clip-path="url('#clipping-rect1')" />
		<line x1="146.94" y1="30.89" x2="146.94" y2="28.79" stroke="#7f7f7f" stroke-width="1.00" clip-path="url('#clipping-rect1')" />
		<line x1="153.00" y1="30.89" x2="153.00" y2="28.79" stroke="#7f7f7f" stroke-width="1.00" clip-path="url('#clipping-rect1')" />
		<line x1="159.06" y1="30.89" x2="159.06" y2="27.74" stroke="#7f7f7f" stroke-width="1.00" clip-path="url('#clipping-rect1')" />
		<line x1="165.12" y1="30.89" x2="165.12" y2="28.79" stroke="#7f7f7f" stroke-width="1.00" clip-path="url('#clipping-rect1')" />
		<line x1="171.18" y1="30.89" x2="171.18" y2="28.79" stroke="#7f7f7f" stroke-width="1.00" clip-path="url('#clipping-rect1')" />
		<line x1="177.24" y1="30.89" x2="177.24" y2="28.79" stroke="#7f7f7f" stroke-width="1.00" clip-path="url('#clipping-rect1')" />
		<line x1="183.30" y1="30.89" x2="183.30" y2="28.79" stroke="#7f7f7f" stroke-width="1.00" clip-path="url('#clipping-rect1')" />
		<line x1="189.36" y1="30.89" x2="189.36" y2="28.79" stroke="#7f7f7f" stroke-width="1.00" clip-path="url('#clipping-rect1')" />
		<line x1="195.42" y1="30.89" x2="195.42" y2="28.79" stroke="#7f7f7f" stroke-width="1.00" clip-path="url('#clipping-rect1')" />
		<line x1="201.49" y1="30.89" x2="201.49" y2="28.79" stroke="#7f7f7f" stroke-width="1.00" clip-path="url('#clipping-rect1')" />
		<line x1="207.55" y1="30.89" x2="207.55" y2="28.79" stroke="#7f7f7f" stroke-width="1.00" clip-path="url('#clipping-rect1')" />
		<line x1="213.61" y1="30.89" x2="213.61" y2="28.79" stroke="#7f7f7f" stroke-width="1.00" clip-path="url('#clipping-rect1')" />
		<line x1="219.67" y1="30.89" x2="219.67" y2="27.74" stroke="#7f7f7f" stroke-width="1.00" clip-path="url('#clipping-rect1')" />
		<line x1="225.73" y1="30.89" x2="225.73" y2="28.79" stroke="#7f7f7f" stroke-width="1.00" clip-path="url('#clipping-rect1')" />
		<line x1="231.79" y1="30.89" x2="231.79" y2="28.79" stroke="#7f7f7f" stroke-width="1.00" clip-path="url('#clipping-rect1')" />
		<line x1="237.85" y1="30.89" x2="237.85" y2="28.79" stroke="#7f7f7f" stroke-width="1.00" clip-path="url('#clipping-rect1')" />
		<line x1="243.91" y1="30.89" x2="243.91" y2="28.79" stroke="#7f7f7f" stroke-width="1.00" clip-path="url('#clipping-rect1')" />
		<line x1="249.97" y1="30.89" x2="249.97" y2="28.79" stroke="#7f7f7f" stroke-width="1.00" clip-path="url('#clipping-rect1')" />
		<line x1="256.03" y1="30.89" x2="256.03" y2="28.79" stroke="#7f7f7f" stroke-width="1.00" clip-path="url('#clipping-rect1')" />
		<line x1="262.09" y1="30.89" x2="262.09" y2="28.79" stroke="#7f7f7f" stroke-width="1.00" clip-path="url('#clipping-rect1')" />
		<line x1="268.15" y1="30.89" x2="268.15" y2="28.79" stroke="#7f7f7f" stroke-width="1.00" clip-path="url('#clipping-rect1')" />
		<line x1="274.21" y1="30.89" x2="274.21" y2="28.79" stroke="#7f7f7f" stroke-width="1.00" clip-path="url('#clipping-rect1')" />
		<line x1="280.27" y1="30.89" x2="280.27" y2="27.74" stroke="#7f7f7f" stroke-width="1.00" clip-path="url('#clipping-rect1')" />
		<line x1="286.33" y1="30.89" x2="286.33" y2="28.79" stroke="#7f7f7f" stroke-width="1.00" clip-path="url('#clipping-rect1')" />
		<line x1="292.39" y1="30.89" x2="292.39" y2="28.79" stroke="#7f7f7f" stroke-width="1.00" clip-path="url('#clipping-rect1')" />
		<line x1="298.45" y1="30.89" x2="298.45" y2="28.79" stroke="#7f7f7f" stroke-width="1.00" clip-path="url('#clipping-rect1')" />
		<line x1="304.51" y1="30.89" x2="304.51" y2="28.79" stroke="#7f7f7f" stroke-width="1.00" clip-path="url('#clipping-rect1')" />
		<line x1="310.57" y1="30.89" x2="310.57" y2="28.79" stroke="#7f7f7f" stroke-width="1.00" clip-path="url('#clipping-rect1')" />
		<line x1="316.63" y1="30.89" x2="316.63" y2="28.79" stroke="#7f7f7f" stroke-width="1.00" clip-path="url('#clipping-rect1')" />
		<line x1="322.69" y1="30.89" x2="322.69" y2="28.79" stroke="#7f7f7f" stroke-width="1.00" clip-path="url('#clipping-rect1')" />
		<line x1="328.75" y1="30.89" x2="328.75" y2="28.79" stroke="#7f7f7f" stroke-width="1.00" clip-path="url('#clipping-rect1')" />
		<line x1="334.81" y1="30.89" x2="334.81" y2="28.79" stroke="#7f7f7f" stroke-width="1.00" clip-path="url('#clipping-rect1')" />
		<line x1="340.87" y1="30.89" x2="340.87" y2="27.74" stroke="#7f7f7f" stroke-width="1.00" clip-path="url('#clipping-rect1')" />
		<line x1="346.93" y1="30.89" x2="346.93" y2="28.79" stroke="#7f7f7f" stroke-width="1.00" clip-path="url('#clipping-rect1')" />
		<line x1="352.99" y1="30.89" x2="352.99" y2="28.79" stroke="#7f7f7f" stroke-width="1.00" clip-path="url('#clipping-rect1')" />
		<line x1="359.05" y1="30.89" x2="359.05" y2="28.79" stroke="#7f7f7f" stroke-width="1.00" clip-path="url('#clipping-rect1')" />
		<line x1="365.11" y1="30.89" x2="365.11" y2="28.79" stroke="#7f7f7f" stroke-width="1.00" clip-path="url('#clipping-rect1')" />
		<line x1="371.17" y1="30.89" x2="371.17" y2="28.79" stroke="#7f7f7f" stroke-width="1.00" clip-path="url('#clipping-rect1')" />
		<line x1="377.24" y1="30.89" x2="377.24" y2="28.79" stroke="#7f7f7f" stroke-width="1.00" clip-path="url('#clipping-rect1')" />
		<line x1="383.30" y1="30.89" x2="383.30" y2="28.79" stroke="#7f7f7f" stroke-width="1.00" clip-path="url('#clipping-rect1')" />
		<line x1="389.36" y1="30.89" x2="389.36" y2="28.79" stroke="#7f7f7f" stroke-width="1.00" clip-path="url('#clipping-rect1')" />
		<line x1="395.42" y1="30.89" x2="395.42" y2="28.79" stroke="#7f7f7f" stroke-width="1.00" clip-path="url('#clipping-rect1')" />
		<line x1="401.48" y1="30.89" x2="401.48" y2="27.74" stroke="#7f7f7f" stroke-width="1.00" clip-path="url('#clipping-rect1')" />
		<line x1="407.54" y1="30.89" x2="407.54" y2="28.79" stroke="#7f7f7f" stroke-width="1.00" clip-path="url('#clipping-rect1')" />
		<line x1="413.60" y1="30.89" x2="413.60" y2="28.79" stroke="#7f7f7f" stroke-width="1.00" clip-path="url('#clipping-rect1')" />
		<line x1="419.66" y1="30.89" x2="419.66" y2="28.79" stroke="#7f7f7f" stroke-width="1.00" clip-path="url('#clipping-rect1')" />
		<line x1="425.72" y1="30.89" x2="425.72" y2="28.79" stroke="#7f7f7f" stroke-width="1.00" clip-path="url('#clipping-rect1')" />
		<line x1="431.78" y1="30.89" x2="431.78" y2="28.79" stroke="#7f7f7f" stroke-width="1.00" clip-path="url('#clipping-rect1')" />
		<line x1="437.84" y1="30.89" x2="437.84" y2="28.79" stroke="#7f7f7f" stroke-width="1.00" clip-path="url('#clipping-rect1')" />
		<line x1="443.90" y1="30.89" x2="443.90" y2="28.79" stroke="#7f7f7f" stroke-width="1.00" clip-path="url('#clipping-rect1')" />
		<line x1="449.96" y1="30.89" x2="449.96" y2="28.79" stroke="#7f7f7f" stroke-width="1.00" clip-path="url('#clipping-rect1')" />
		<line x1="456.02" y1="30.89" x2="456.02" y2="28.79" stroke="#7f7f7f" stroke-width="1.00" clip-path="url('#clipping-rect1')" />
		<line x1="462.08" y1="30.89" x2="462.08" y2="27.74" stroke="#7f7f7f" stroke-width="1.00" clip-path="url('#clipping-rect1')" />
		<line x1="468.14" y1="30.89" x2="468.14" y2="28.79" stroke="#7f7f7f" stroke-width="1.00" clip-path="url('#clipping-rect1')" />
		<line x1="474.20" y1="30.89" x2="474.20" y2="28.79" stroke="#7f7f7f" stroke-width="1.00" clip-path="url('#clipping-rect1')" />
		<line x1="480.26" y1="30.89" x2="480.26" y2="28.79" stroke="#7f7f7f" stroke-width="1.00" clip-path="url('#clipping-rect1')" />
		<line x1="486.32" y1="30.89" x2="486.32" y2="28.79" stroke="#7f7f7f" stroke-width="1.00" clip-path="url('#clipping-rect1')" />
		<line x1="492.38" y1="30.89" x2="492.38" y2="28.79" stroke="#7f7f7f" stroke-width="1.00" clip-path="url('#clipping-rect1')" />
		<line x1="498.44" y1="30.89" x2="498.44" y2="28.79" stroke="#7f7f7f" stroke-width="1.00" clip-path="url('#clipping-rect1')" />
		<line x1="504.50" y1="30.89" x2="504.50" y2="28.79" stroke="#7f7f7f" stroke-width="1.00" clip-path="url('#clipping-rect1')" />
		<line x1="510.56" y1="30.89" x2="510.56" y2="28.79" stroke="#7f7f7f" stroke-width="1.00" clip-path="url('#clipping-rect1')" />
		<line x1="516.62" y1="30.89" x2="516.62" y2="28.79" stroke="#7f7f7f" stroke-width="1.00" clip-path="url('#clipping-rect1')" />
		<line x1="522.68" y1="30.89" x2="522.68" y2="27.74" stroke="#7f7f7f" stroke-width="1.00" clip-path="url('#clipping-rect1')" />
		<line x1="528.74" y1="30.89" x2="528.74" y2="28.79" stroke="#7f7f7f" stroke-width="1.00" clip-path="url('#clipping-rect1')" />
		<line x1="534.80" y1="30.89" x2="534.80" y2="28.79" stroke="#7f7f7f" stroke-width="1.00" clip-path="url('#clipping-rect1')" />
		<line x1="540.86" y1="30.89" x2="540.86" y2="28.79" stroke="#7f7f7f" stroke-width="1.00" clip-path="url('#clipping-rect1')" />
		<line x1="546.92" y1="30.89" x2="546.92" y2="28.79" stroke="#7f7f7f" stroke-width="1.00" clip-path="url('#clipping-rect1')" />
		<line x1="552.99" y1="30.89" x2="552.99" y2="28.79" stroke="#7f7f7f" stroke-width="1.00" clip-path="url('#clipping-rect1')" />
		<line x1="559.05" y1="30.89" x2="559.05" y2="28.79" stroke="#7f7f7f" stroke-width="1.00" clip-path="url('#clipping-rect1')" />
		<line x1="565.11" y1="30.89" x2="565.11" y2="28.79" stroke="#7f7f7f" stroke-width="1.00" clip-path="url('#clipping-rect1')" />
		<line x1="571.17" y1="30.89" x2="571.17" y2="28.79" stroke="#7f7f7f" stroke-width="1.00" clip-path="url('#clipping-rect1')" />
		<line x1="577.23" y1="30.89" x2="577.23" y2="28.79" stroke="#7f7f7f" stroke-width="1.00" clip-path="url('#clipping-rect1')" />
		<line x1="583.29" y1="30.89" x2="583.29" y2="27.74" stroke="#7f7f7f" stroke-width="1.00" clip-path="url('#clipping-rect1')" />
		<line x1="589.35" y1="30.89" x2="589.35" y2="28.79" stroke="#7f7f7f" stroke-width="1.00" clip-path="url('#clipping-rect1')" />
		<line x1="595.41" y1="30.89" x2="595.41" y2="28.79" stroke="#7f7f7f" stroke-width="1.00" clip-path="url('#clipping-rect1')" />
		<line x1="601.47" y1="30.89" x2="601.47" y2="28.79" stroke="#7f7f7f" stroke-width="1.00" clip-path="url('#clipping-rect1')" />
		<line x1="607.53" y1="30.89" x2="607.53" y2="28.79" stroke="#7f7f7f" stroke-width="1.00" clip-path="url('#clipping-rect1')" />
		<line x1="613.59" y1="30.89" x2="613.59" y2="28.79" stroke="#7f7f7f" stroke-width="1.00" clip-path="url('#clipping-rect1')" />
		<line x1="619.65" y1="30.89" x2="619.65" y2="28.79" stroke="#7f7f7f" stroke-width="1.00" clip-path="url('#clipping-rect1')" />
		<line x1="625.71" y1="30.89" x2="625.71" y2="28.79" stroke="#7f7f7f" stroke-width="1.00" clip-path="url('#clipping-rect1')" />
		<line x1="631.77" y1="30.89" x2="631.77" y2="28.79" stroke="#7f7f7f" stroke-width="1.00" clip-path="url('#clipping-rect1')" />
		<line x1="637.83" y1="30.89" x2="637.83" y2="28.79" stroke="#7f7f7f" stroke-width="1.00" clip-path="url('#clipping-rect1')" />
		<line x1="643.89" y1="30.89" x2="643.89" y2="27.74" stroke="#7f7f7f" stroke-width="1.00" clip-path="url('#clipping-rect1')" />
		<line x1="649.95" y1="30.89" x2="649.95" y2="28.79" stroke="#7f7f7f" stroke-width="1.00" clip-path="url('#clipping-rect1')" />
		<line x1="656.01" y1="30.89" x2="656.01" y2="28.79" stroke="#7f7f7f" stroke-width="1.00" clip-path="url('#clipping-rect1')" />
		<line x1="662.07" y1="30.89" x2="662.07" y2="28.79" stroke="#7f7f7f" stroke-width="1.00" clip-path="url('#clipping-rect1')" />
		<line x1="668.13" y1="30.89" x2="668.13" y2="28.79" stroke="#7f7f7f" stroke-width="1.00" clip-path="url('#clipping-rect1')" />
		<line x1="674.19" y1="30.89" x2="674.19" y2="28.79" stroke="#7f7f7f" stroke-width="1.00" clip-path="url('#clipping-rect1')" />
		<line x1="680.25" y1="30.89" x2="680.25" y2="28.79" stroke="#7f7f7f" stroke-width="1.00" clip-path="url('#clipping-rect1')" />
		<line x1="686.31" y1="30.89" x2="686.31" y2="28.79" stroke="#7f7f7f" stroke-width="1.00" clip-path="url('#clipping-rect1')" />
		<line x1="692.37" y1="30.89" x2="692.37" y2="28.79" stroke="#7f7f7f" stroke-width="1.00" clip-path="url('#clipping-rect1')" />
		<line x1="698.43" y1="30.89" x2="698.43" y2="28.79" stroke="#7f7f7f" stroke-width="1.00" clip-path="url('#clipping-rect1')" />
		<line x1="704.49" y1="30.89" x2="704.49" y2="27.74" stroke="#7f7f7f" stroke-width="1.00" clip-path="url('#clipping-rect1')" />
		<line x1="710.55" y1="30.89" x2="710.55" y2="28.79" stroke="#7f7f7f" stroke-width="1.00" clip-path="url('#clipping-rect1')" />
		<line x1="716.61" y1="30.89" x2="716.61" y2="28.79" stroke="#7f7f7f" stroke-width="1.00" clip-path="url('#clipping-rect1')" />
		<line x1="722.67" y1="30.89" x2="722.67" y2="28.79" stroke="#7f7f7f" stroke-width="1.00" clip-path="url('#clipping-rect1')" />
		<line x1="728.74" y1="30.89" x2="728.74" y2="28.79" stroke="#7f7f7f" stroke-width="1.00" clip-path="url('#clipping-rect1')" />
		<line x1="734.80" y1="30.89" x2="734.80" y2="28.79" stroke="#7f7f7f" stroke-width="1.00" clip-path="url('#clipping-rect1')" />
		<line x1="740.86" y1="30.89" x2="740.86" y2="28.79" stroke="#7f7f7f" stroke-width="1.00" clip-path="url('#clipping-rect1')" />
		<line x1="746.92" y1="30.89" x2="746.92" y2="28.79" stroke="#7f7f7f" stroke-width="1.00" clip-path="url('#clipping-rect1')" />
		<line x1="752.98" y1="30.89" x2="752.98" y2="28.79" stroke="#7f7f7f" stroke-width="1.00" clip-path="url('#clipping-rect1')" />
		<line x1="759.04" y1="30.89" x2="759.04" y2="28.79" stroke="#7f7f7f" stroke-width="1.00" clip-path="url('#clipping-rect1')" />
		<line x1="765.10" y1="30.89" x2="765.10" y2="27.74" stroke="#7f7f7f" stroke-width="1.00" clip-path="url('#clipping-rect1')" />
		<line x1="771.16" y1="30.89" x2="771.16" y2="28.79" stroke="#7f7f7f" stroke-width="1.00" clip-path="url('#clipping-rect1')" />
		<line x1="777.22" y1="30.89" x2="777.22" y2="28.79" stroke="#7f7f7f" stroke-width="1.00" clip-path="url('#clipping-rect1')" />
		<line x1="783.28" y1="30.89" x2="783.28" y2="28.79" stroke="#7f7f7f" stroke-width="1.00" clip-path="url('#clipping-rect1')" />
		<line x1="789.34" y1="30.89" x2="789.34" y2="28.79" stroke="#7f7f7f" stroke-width="1.00" clip-path="url('#clipping-rect1')" />
		<line x1="795.40" y1="30.89" x2="795.40" y2="28.79" stroke="#7f7f7f" stroke-width="1.00" clip-path="url('#clipping-rect1')" />
		<line x1="801.46" y1="30.89" x2="801.46" y2="28.79" stroke="#7f7f7f" stroke-width="1.00" clip-path="url('#clipping-rect1')" />
		<line x1="807.52" y1="30.89" x2="807.52" y2="28.79" stroke="#7f7f7f" stroke-width="1.00" clip-path="url('#clipping-rect1')" />
		<line x1="813.58" y1="30.89" x2="813.58" y2="28.79" stroke="#7f7f7f" stroke-width="1.00" clip-path="url('#clipping-rect1')" />
		<line x1="819.64" y1="30.89" x2="819.64" y2="28.79" stroke="#7f7f7f" stroke-width="1.00" clip-path="url('#clipping-rect1')" />
		<line x1="825.70" y1="30.89" x2="825.70" y2="27.74" stroke="#7f7f7f" stroke-width="1.00" clip-path="url('#clipping-rect1')" />
		<line x1="831.76" y1="30.89" x2="831.76" y2="28.79" stroke="#7f7f7f" stroke-width="1.00" clip-path="url('#clipping-rect1')" />
		<line x1="837.82" y1="30.89" x2="837.82" y2="28.79" stroke="#7f7f7f" stroke-width="1.00" clip-path="url('#clipping-rect1')" />
		<text x="767.10" y="25.63" font-family="Helvetica" font-size="12" fill="#333333" clip-path="url('#clipping-rect1')" >5,460 K</text>
		<line x1="765.10" y1="33.00" x2="765.10" y2="15.11" stroke="#7f7f7f" stroke-width="1.00" clip-path="url('#clipping-rect1')" />
		<text x="645.89" y="25.63" font-family="Helvetica" font-size="12" fill="#333333" clip-path="url('#clipping-rect1')" >5,440 K</text>
		<line x1="643.89" y1="33.00" x2="643.89" y2="15.11" stroke="#7f7f7f" stroke-width="1.00" clip-path="url('#clipping-rect1')" />
		<text x="524.68" y="25.63" font-family="Helvetica" font-size="12" fill="#333333" clip-path="url('#clipping-rect1')" >5,420 K</text>
		<line x1="522.68" y1="33.00" x2="522.68" y2="15.11" stroke="#7f7f7f" stroke-width="1.00" clip-path="url('#clipping-rect1')" />
		<text x="403.48" y="25.63" font-family="Helvetica" font-size="12" fill="#333333" clip-path="url('#clipping-rect1')" >5,400 K</text>
		<line x1="401.48" y1="33.00" x2="401.48" y2="15.11" stroke="#7f7f7f" stroke-width="1.00" clip-path="url('#clipping-rect1')" />
		<text x="282.27" y="25.63" font-family="Helvetica" font-size="12" fill="#333333" clip-path="url('#clipping-rect1')" >5,380 K</text>
		<line x1="280.27" y1="33.00" x2="280.27" y2="15.11" stroke="#7f7f7f" stroke-width="1.00" clip-path="url('#clipping-rect1')" />
		<text x="161.06" y="25.63" font-family="Helvetica" font-size="12" fill="#333333" clip-path="url('#clipping-rect1')" >5,360 K</text>
		<line x1="159.06" y1="33.00" x2="159.06" y2="15.11" stroke="#7f7f7f" stroke-width="1.00" clip-path="url('#clipping-rect1')" />
		<text x="39.86" y="25.63" font-family="Helvetica" font-size="12" fill="#333333" clip-path="url('#clipping-rect1')" >5,340 K</text>
		<line x1="37.86" y1="33.00" x2="37.86" y2="15.11" stroke="#7f7f7f" stroke-width="1.00" clip-path="url('#clipping-rect1')" />
		<line x1="37.04" y1="157.00" x2="37.04" y2="33.00" stroke="#ebebeb" stroke-width="1.00" />
		<line x1="159.19" y1="157.00" x2="159.19" y2="33.00" stroke="#ebebeb" stroke-width="1.00" />
		<line x1="280.33" y1="157.00" x2="280.33" y2="33.00" stroke="#ebebeb" stroke-width="1.00" />
		<line x1="401.48" y1="157.00" x2="401.48" y2="33.00" stroke="#ebebeb" stroke-width="1.00" />
		<line x1="522.62" y1="157.00" x2="522.62" y2="33.00" stroke="#ebebeb" stroke-width="1.00" />
		<line x1="643.77" y1="157.00" x2="643.77" y2="33.00" stroke="#ebebeb" stroke-width="1.00" />
		<line x1="765.91" y1="157.00" x2="765.91" y2="33.00" stroke="#ebebeb" stroke-width="1.00" />
		<polygon fill="url('#gradient1')" shape-rendering="crispEdges" points="838.00,40.00 838.00,35.00 0.00,35.00 0.00,40.00 0.00,45.00 838.00,45.00 " />
		<line x1="0.00" y1="45.00" x2="0.00" y2="35.00" stroke="#6c6c6c" stroke-width="1.00" stroke-linejoin="round" />
		<line x1="0.00" y1="35.00" x2="838.00" y2="35.00" stroke="#6c6c6c" stroke-width="1.00" stroke-linejoin="round" />
		<line x1="838.00" y1="35.00" x2="838.00" y2="45.00" stroke="#6c6c6c" stroke-width="1.00" stroke-linejoin="round" />
		<line x1="0.00" y1="45.00" x2="838.00" y2="45.00" stroke="#6c6c6c" stroke-width="1.00" stroke-linejoin="round" />
		<polygon fill="url('#gradient2')" shape-rendering="crispEdges" points="838.00,39.50 838.00,46.00 0.00,46.00 0.00,39.50 0.00,33.00 838.00,33.00 " />
		<polygon fill="url('#gradient3')" shape-rendering="crispEdges" points="69.80,76.40 69.80,82.40 0.00,82.40 0.00,76.40 0.00,70.40 69.80,70.40 " />
		<polygon fill="url('#gradient3')" shape-rendering="crispEdges" points="69.80,76.40 69.80,84.80 78.20,76.40 69.80,68.00 " />
		<polygon fill="#ffffff" shape-rendering="crispEdges" points="39.70,76.40 30.10,71.60 32.50,76.40 30.10,81.20 " />
		<polygon fill="url('#gradient3')" shape-rendering="crispEdges" points="55.04,99.20 55.04,105.20 53.83,105.20 53.83,99.20 53.83,93.20 55.04,93.20 " />
		<polygon fill="url('#gradient3')" shape-rendering="crispEdges" points="53.83,99.20 53.83,107.60 45.43,99.20 53.83,90.80 " />
		<polygon fill="#8ab698" shape-rendering="crispEdges" points="55.04,99.20 55.04,93.20 63.44,93.20 " />
		<polygon fill="#8ab698" shape-rendering="crispEdges" points="55.04,99.20 55.04,105.20 63.44,105.20 " />
		<line x1="63.44" y1="93.20" x2="55.04" y2="93.20" stroke="#166e32" stroke-width="1.50" />
		<line x1="63.44" y1="93.20" x2="55.04" y2="99.20" stroke="#166e32" stroke-width="1.50" />
		<line x1="63.44" y1="105.20" x2="55.04" y2="105.20" stroke="#166e32" stroke-width="1.50" />
		<line x1="63.44" y1="105.20" x2="55.04" y2="99.20" stroke="#166e32" stroke-width="1.50" />
		<polygon fill="#ffffff" shape-rendering="crispEdges" points="108.94,106.00 108.94,92.00 68.44,92.00 68.44,106.00 " />
		<text x="68.44" y="103.70" font-family="Helvetica" font-size="12" fill="#124d94" >CENPV</text>
		<polygon fill="url('#gradient3')" shape-rendering="crispEdges" points="274.12,122.00 274.12,128.00 93.65,128.00 93.65,122.00 93.65,116.00 274.12,116.00 " />
		<polygon fill="url('#gradient3')" shape-rendering="crispEdges" points="274.12,122.00 274.12,130.40 282.52,122.00 274.12,113.60 " />
		<polygon fill="#8ab698" shape-rendering="crispEdges" points="93.65,122.00 93.65,116.00 85.25,116.00 " />
		<polygon fill="#8ab698" shape-rendering="crispEdges" points="93.65,122.00 93.65,128.00 85.25,128.00 " />
		<line x1="85.25" y1="116.00" x2="93.65" y2="116.00" stroke="#166e32" stroke-width="1.50" />
		<line x1="85.25" y1="116.00" x2="93.65" y2="122.00" stroke="#166e32" stroke-width="1.50" />
		<line x1="85.25" y1="128.00" x2="93.65" y2="128.00" stroke="#166e32" stroke-width="1.50" />
		<line x1="85.25" y1="128.00" x2="93.65" y2="122.00" stroke="#166e32" stroke-width="1.50" />
		<polygon fill="#ffffff" shape-rendering="crispEdges" points="138.69,122.00 129.09,117.20 131.49,122.00 129.09,126.80 " />
		<polygon fill="#e0e0e0" shape-rendering="crispEdges" points="238.69,122.00 229.09,117.20 231.49,122.00 229.09,126.80 " />
		<polygon fill="#ffffff" shape-rendering="crispEdges" points="81.25,129.00 81.25,115.00 0.00,115.00 0.00,129.00 " />
		<text x="0.00" y="126.50" font-family="Helvetica" font-size="12" fill="#124d94" >LOC107322411</text>
		<polygon fill="url('#gradient3')" shape-rendering="crispEdges" points="101.27,144.80 101.27,150.80 95.01,150.80 95.01,144.80 95.01,138.80 101.27,138.80 " />
		<polygon fill="url('#gradient4')" shape-rendering="crispEdges" points="101.27,144.80 101.27,153.20 109.67,144.80 101.27,136.40 " />
		<text x="66.23" y="149.30" font-family="Helvetica" font-size="12" fill="#124d94" >UBC</text>
		<polygon fill="url('#gradient3')" shape-rendering="crispEdges" points="294.78,99.20 294.78,105.20 288.71,105.20 288.71,99.20 288.71,93.20 294.78,93.20 " />
		<polygon fill="url('#gradient3')" shape-rendering="crispEdges" points="288.71,99.20 288.71,107.60 280.31,99.20 288.71,90.80 " />
		<polygon fill="#8ab698" shape-rendering="crispEdges" points="294.78,99.20 294.78,93.20 303.18,93.20 " />
		<polygon fill="#8ab698" shape-rendering="crispEdges" points="294.78,99.20 294.78,105.20 303.18,105.20 " />
		<line x1="303.18" y1="93.20" x2="294.78" y2="93.20" stroke="#166e32" stroke-width="1.50" />
		<line x1="303.18" y1="93.20" x2="294.78" y2="99.20" stroke="#166e32" stroke-width="1.50" />
		<line x1="303.18" y1="105.20" x2="294.78" y2="105.20" stroke="#166e32" stroke-width="1.50" />
		<line x1="303.18" y1="105.20" x2="294.78" y2="99.20" stroke="#166e32" stroke-width="1.50" />
		<polygon fill="#ffffff" shape-rendering="crispEdges" points="350.93,106.00 350.93,92.00 308.18,92.00 308.18,106.00 " />
		<text x="308.18" y="103.70" font-family="Helvetica" font-size="12" fill="#124d94" >HASPIN</text>
		<polygon fill="url('#gradient3')" shape-rendering="crispEdges" points="409.90,76.40 409.90,82.40 311.73,82.40 311.73,76.40 311.73,70.40 409.90,70.40 " />
		<polygon fill="url('#gradient3')" shape-rendering="crispEdges" points="409.90,76.40 409.90,84.80 418.30,76.40 409.90,68.00 " />
		<polygon fill="#8ab698" shape-rendering="crispEdges" points="311.73,76.40 311.73,70.40 303.33,70.40 " />
		<polygon fill="#8ab698" shape-rendering="crispEdges" points="311.73,76.40 311.73,82.40 303.33,82.40 " />
		<line x1="303.33" y1="70.40" x2="311.73" y2="70.40" stroke="#166e32" stroke-width="1.50" />
		<line x1="303.33" y1="70.40" x2="311.73" y2="76.40" stroke="#166e32" stroke-width="1.50" />
		<line x1="303.33" y1="82.40" x2="311.73" y2="82.40" stroke="#166e32" stroke-width="1.50" />
		<line x1="303.33" y1="82.40" x2="311.73" y2="76.40" stroke="#166e32" stroke-width="1.50" />
		<polygon fill="#ffffff" shape-rendering="crispEdges" points="365.61,76.40 356.01,71.60 358.41,76.40 356.01,81.20 " />
		<text x="261.92" y="80.90" font-family="Helvetica" font-size="12" fill="#124d94" >P2RX5</text>
		<polygon fill="url('#gradient3')" shape-rendering="crispEdges" points="425.25,144.80 425.25,150.80 420.19,150.80 420.19,144.80 420.19,138.80 425.25,138.80 " />
		<polygon fill="#ffffff" shape-rendering="crispEdges" points="462.00,151.00 462.00,137.00 430.25,137.00 430.25,151.00 " />
		<text x="430.25" y="149.30" font-family="Helvetica" font-size="12" fill="#124d94" >EMC6</text>
		<polygon fill="url('#gradient3')" shape-rendering="crispEdges" points="439.31,99.20 439.31,105.20 432.44,105.20 432.44,99.20 432.44,93.20 439.31,93.20 " />
		<polygon fill="url('#gradient3')" shape-rendering="crispEdges" points="439.31,99.20 439.31,107.60 447.71,99.20 439.31,90.80 " />
		<polygon fill="#8ab698" shape-rendering="crispEdges" points="432.44,99.20 432.44,93.20 424.04,93.20 " />
		<polygon fill="#8ab698" shape-rendering="crispEdges" points="432.44,99.20 432.44,105.20 424.04,105.20 " />
		<line x1="424.04" y1="93.20" x2="432.44" y2="93.20" stroke="#166e32" stroke-width="1.50" />
		<line x1="424.04" y1="93.20" x2="432.44" y2="99.20" stroke="#166e32" stroke-width="1.50" />
		<line x1="424.04" y1="105.20" x2="432.44" y2="105.20" stroke="#166e32" stroke-width="1.50" />
		<line x1="424.04" y1="105.20" x2="432.44" y2="99.20" stroke="#166e32" stroke-width="1.50" />
		<text x="367.21" y="103.70" font-family="Helvetica" font-size="12" fill="#124d94" >TAX1BP3</text>
		<polygon fill="url('#gradient3')" shape-rendering="crispEdges" points="487.80,122.00 487.80,128.00 457.34,128.00 457.34,122.00 457.34,116.00 487.80,116.00 " />
		<polygon fill="url('#gradient3')" shape-rendering="crispEdges" points="457.34,122.00 457.34,130.40 448.94,122.00 457.34,113.60 " />
		<polygon fill="#8ab698" shape-rendering="crispEdges" points="487.80,122.00 487.80,116.00 496.20,116.00 " />
		<polygon fill="#8ab698" shape-rendering="crispEdges" points="487.80,122.00 487.80,128.00 496.20,128.00 " />
		<line x1="496.20" y1="116.00" x2="487.80" y2="116.00" stroke="#166e32" stroke-width="1.50" />
		<line x1="496.20" y1="116.00" x2="487.80" y2="122.00" stroke="#166e32" stroke-width="1.50" />
		<line x1="496.20" y1="128.00" x2="487.80" y2="128.00" stroke="#166e32" stroke-width="1.50" />
		<line x1="496.20" y1="128.00" x2="487.80" y2="122.00" stroke="#166e32" stroke-width="1.50" />
		<polygon fill="#ffffff" shape-rendering="crispEdges" points="467.77,122.00 477.37,117.20 474.97,122.00 477.37,126.80 " />
		<polygon fill="#ffffff" shape-rendering="crispEdges" points="532.75,129.00 532.75,115.00 501.20,115.00 501.20,129.00 " />
		<text x="501.20" y="126.50" font-family="Helvetica" font-size="12" fill="#124d94" >CTNS</text>
		<polygon fill="url('#gradient3')" shape-rendering="crispEdges" points="534.16,99.20 534.16,105.20 500.98,105.20 500.98,99.20 500.98,93.20 534.16,93.20 " />
		<polygon fill="url('#gradient3')" shape-rendering="crispEdges" points="534.16,99.20 534.16,107.60 542.56,99.20 534.16,90.80 " />
		<polygon fill="#8ab698" shape-rendering="crispEdges" points="500.98,99.20 500.98,93.20 492.58,93.20 " />
		<polygon fill="#8ab698" shape-rendering="crispEdges" points="500.98,99.20 500.98,105.20 492.58,105.20 " />
		<line x1="492.58" y1="93.20" x2="500.98" y2="93.20" stroke="#166e32" stroke-width="1.50" />
		<line x1="492.58" y1="93.20" x2="500.98" y2="99.20" stroke="#166e32" stroke-width="1.50" />
		<line x1="492.58" y1="105.20" x2="500.98" y2="105.20" stroke="#166e32" stroke-width="1.50" />
		<line x1="492.58" y1="105.20" x2="500.98" y2="99.20" stroke="#166e32" stroke-width="1.50" />
		<polygon fill="#ffffff" shape-rendering="crispEdges" points="522.37,99.20 512.77,94.40 515.17,99.20 512.77,104.00 " />
		<text x="455.59" y="103.70" font-family="Helvetica" font-size="12" fill="#124d94" >SHPK</text>
		<polygon fill="url('#gradient3')" shape-rendering="crispEdges" points="640.55,76.40 640.55,82.40 552.69,82.40 552.69,76.40 552.69,70.40 640.55,70.40 " />
		<polygon fill="url('#gradient3')" shape-rendering="crispEdges" points="640.55,76.40 640.55,84.80 648.95,76.40 640.55,68.00 " />
		<polygon fill="#8ab698" shape-rendering="crispEdges" points="552.69,76.40 552.69,70.40 544.29,70.40 " />
		<polygon fill="#8ab698" shape-rendering="crispEdges" points="552.69,76.40 552.69,82.40 544.29,82.40 " />
		<line x1="544.29" y1="70.40" x2="552.69" y2="70.40" stroke="#166e32" stroke-width="1.50" />
		<line x1="544.29" y1="70.40" x2="552.69" y2="76.40" stroke="#166e32" stroke-width="1.50" />
		<line x1="544.29" y1="82.40" x2="552.69" y2="82.40" stroke="#166e32" stroke-width="1.50" />
		<line x1="544.29" y1="82.40" x2="552.69" y2="76.40" stroke="#166e32" stroke-width="1.50" />
		<polygon fill="#ffffff" shape-rendering="crispEdges" points="601.42,76.40 591.82,71.60 594.22,76.40 591.82,81.20 " />
		<text x="503.37" y="80.90" font-family="Helvetica" font-size="12" fill="#124d94" >TRPV1</text>
		<polygon fill="url('#gradient3')" shape-rendering="crispEdges" points="775.72,122.00 775.72,128.00 658.04,128.00 658.04,122.00 658.04,116.00 775.72,116.00 " />
		<polygon fill="url('#gradient3')" shape-rendering="crispEdges" points="775.72,122.00 775.72,130.40 784.12,122.00 775.72,113.60 " />
		<polygon fill="#8ab698" shape-rendering="crispEdges" points="658.04,122.00 658.04,116.00 649.64,116.00 " />
		<polygon fill="#8ab698" shape-rendering="crispEdges" points="658.04,122.00 658.04,128.00 649.64,128.00 " />
		<line x1="649.64" y1="116.00" x2="658.04" y2="116.00" stroke="#166e32" stroke-width="1.50" />
		<line x1="649.64" y1="116.00" x2="658.04" y2="122.00" stroke="#166e32" stroke-width="1.50" />
		<line x1="649.64" y1="128.00" x2="658.04" y2="128.00" stroke="#166e32" stroke-width="1.50" />
		<line x1="649.64" y1="128.00" x2="658.04" y2="122.00" stroke="#166e32" stroke-width="1.50" />
		<polygon fill="#ffffff" shape-rendering="crispEdges" points="671.68,122.00 662.08,117.20 664.48,122.00 662.08,126.80 " />
		<polygon fill="#e0e0e0" shape-rendering="crispEdges" points="771.68,122.00 762.08,117.20 764.48,122.00 762.08,126.80 " />
		<text x="606.81" y="126.50" font-family="Helvetica" font-size="12" fill="#124d94" >TRPV3</text>
		<polygon fill="url('#gradient3')" shape-rendering="crispEdges" points="703.30,144.80 703.30,150.80 692.73,150.80 692.73,144.80 692.73,138.80 703.30,138.80 " />
		<polygon fill="url('#gradient4')" shape-rendering="crispEdges" points="692.73,144.80 692.73,153.20 684.33,144.80 692.73,136.40 " />
		<polygon fill="#8ab698" shape-rendering="crispEdges" points="703.30,144.80 703.30,138.80 711.70,138.80 " />
		<polygon fill="#8ab698" shape-rendering="crispEdges" points="703.30,144.80 703.30,150.80 711.70,150.80 " />
		<line x1="711.70" y1="138.80" x2="703.30" y2="138.80" stroke="#166e32" stroke-width="1.50" />
		<line x1="711.70" y1="138.80" x2="703.30" y2="144.80" stroke="#166e32" stroke-width="1.50" />
		<line x1="711.70" y1="150.80" x2="703.30" y2="150.80" stroke="#166e32" stroke-width="1.50" />
		<line x1="711.70" y1="150.80" x2="703.30" y2="144.80" stroke="#166e32" stroke-width="1.50" />
		<polygon fill="#ffffff" shape-rendering="crispEdges" points="799.93,151.00 799.93,137.00 716.70,137.00 716.70,151.00 " />
		<text x="716.70" y="149.30" font-family="Helvetica" font-size="12" fill="#124d94" >LOC107322408</text>
		<polygon fill="url('#gradient3')" shape-rendering="crispEdges" points="820.96,99.20 820.96,105.20 785.17,105.20 785.17,99.20 785.17,93.20 820.96,93.20 " />
		<polygon fill="url('#gradient3')" shape-rendering="crispEdges" points="785.17,99.20 785.17,107.60 776.77,99.20 785.17,90.80 " />
		<polygon fill="#8ab698" shape-rendering="crispEdges" points="820.96,99.20 820.96,93.20 829.36,93.20 " />
		<polygon fill="#8ab698" shape-rendering="crispEdges" points="820.96,99.20 820.96,105.20 829.36,105.20 " />
		<line x1="829.36" y1="93.20" x2="820.96" y2="93.20" stroke="#166e32" stroke-width="1.50" />
		<line x1="829.36" y1="93.20" x2="820.96" y2="99.20" stroke="#166e32" stroke-width="1.50" />
		<line x1="829.36" y1="105.20" x2="820.96" y2="105.20" stroke="#166e32" stroke-width="1.50" />
		<line x1="829.36" y1="105.20" x2="820.96" y2="99.20" stroke="#166e32" stroke-width="1.50" />
		<polygon fill="#ffffff" shape-rendering="crispEdges" points="798.27,99.20 807.87,94.40 805.47,99.20 807.87,104.00 " />
		<polygon fill="url('#gradient3')" shape-rendering="crispEdges" points="838.00,76.40 838.00,82.40 830.22,82.40 830.22,76.40 830.22,70.40 838.00,70.40 " />
		<text x="773.66" y="80.90" font-family="Helvetica" font-size="12" fill="#124d94" >SPATA22</text>
		<polygon fill="url('#gradient5')" shape-rendering="crispEdges" points="0.00,62.00 838.01,62.00 838.01,47.00 0.00,47.00 " clip-path="url('#clipping-rect2')" />
		<text x="0.00" y="58.00" font-family="Helvetica" font-size="14" fill="#333333" >Genes, NCBI Coturnix japonica Annotation Release 101, 2020-02-18</text>
		<polygon fill="#e5e5e5" shape-rendering="crispEdges" points="838.00,13.00 838.00,-1.00 0.00,-1.00 0.00,13.00 " />
		<text x="0.00" y="10.00" font-family="Helvetica Bold" font-size="12" text-anchor="start" fill="#000000" >NC_029534.1:5333753..5472029 Coturnix japonica isolate 7356 chromosome 19, Coturnix japonica 2.1, whole genome shotgun sequence</text>
	</g>
</svg>
