<?xml version="1.0" standalone="no" ?>
<!DOCTYPE svg PUBLIC "-//W3C//DTD SVG 1.1//EN" "http://www.w3.org/Graphics/SVG/1.1/DTD/svg11.dtd">
<svg width="838px" height="158px" xmlns="http://www.w3.org/2000/svg" version="1.1" viewBox="0 0 838 158" >
	<style type="text/css" > <![CDATA[
		@import url("https://www.ncbi.nlm.nih.gov/projects/sviewer/css/svg_fonts.css");
	]]>
	</style>
	<desc >Generated by NCBI Genome Workbench http://www.ncbi.nlm.nih.gov/tools/gbench/</desc>
	<defs >
		<clipPath id="clipping-rect1" >
			<rect x="0" y="14" width="838" height="20" />
		</clipPath>
		<linearGradient id="gradient1" gradientTransform="rotate(90)" >
			<stop offset="0%" stop-color="#6c6c6c" />
			<stop offset="50%" stop-color="#b5b5b5" />
			<stop offset="100%" stop-color="#6c6c6c" />
		</linearGradient>
		<linearGradient id="gradient2" gradientTransform="rotate(90)" >
			<stop offset="0%" stop-color="#10c010" />
			<stop offset="50%" stop-color="#87df87" />
			<stop offset="100%" stop-color="#10c010" />
		</linearGradient>
		<linearGradient id="gradient3" gradientTransform="rotate(90)" >
			<stop offset="0%" stop-color="#166e32" />
			<stop offset="50%" stop-color="#8ab698" />
			<stop offset="100%" stop-color="#166e32" />
		</linearGradient>
		<linearGradient id="gradient4" gradientTransform="rotate(90)" >
			<stop offset="0%" stop-color="#166e32" />
			<stop offset="50%" stop-color="#448b5a" />
			<stop offset="100%" stop-color="#166e32" />
		</linearGradient>
		<clipPath id="clipping-rect2" >
			<rect x="0" y="34" width="838" height="124" />
		</clipPath>
		<linearGradient id="gradient5" gradientTransform="rotate(90)" >
			<stop offset="0%" stop-color="#e6e6e6" stop-opacity="0.71" />
			<stop offset="100%" stop-color="#ffffff" stop-opacity="0.00" />
		</linearGradient>
	</defs>
	<g >
		<polygon fill="#ffffff" shape-rendering="crispEdges" points="838.00,33.00 838.00,13.00 0.00,13.00 0.00,33.00 " />
		<line x1="0.00" y1="31.00" x2="838.00" y2="31.00" stroke="#7f7f7f" stroke-width="1.00" clip-path="url('#clipping-rect1')" />
		<line x1="837.62" y1="31.00" x2="837.62" y2="29.00" stroke="#7f7f7f" stroke-width="1.00" clip-path="url('#clipping-rect1')" />
		<line x1="829.53" y1="31.00" x2="829.53" y2="29.00" stroke="#7f7f7f" stroke-width="1.00" clip-path="url('#clipping-rect1')" />
		<line x1="821.45" y1="31.00" x2="821.45" y2="29.00" stroke="#7f7f7f" stroke-width="1.00" clip-path="url('#clipping-rect1')" />
		<line x1="813.37" y1="31.00" x2="813.37" y2="29.00" stroke="#7f7f7f" stroke-width="1.00" clip-path="url('#clipping-rect1')" />
		<line x1="805.29" y1="31.00" x2="805.29" y2="29.00" stroke="#7f7f7f" stroke-width="1.00" clip-path="url('#clipping-rect1')" />
		<line x1="797.21" y1="31.00" x2="797.21" y2="29.00" stroke="#7f7f7f" stroke-width="1.00" clip-path="url('#clipping-rect1')" />
		<line x1="789.13" y1="31.00" x2="789.13" y2="29.00" stroke="#7f7f7f" stroke-width="1.00" clip-path="url('#clipping-rect1')" />
		<line x1="781.05" y1="31.00" x2="781.05" y2="29.00" stroke="#7f7f7f" stroke-width="1.00" clip-path="url('#clipping-rect1')" />
		<line x1="772.96" y1="31.00" x2="772.96" y2="29.00" stroke="#7f7f7f" stroke-width="1.00" clip-path="url('#clipping-rect1')" />
		<line x1="764.88" y1="31.00" x2="764.88" y2="28.00" stroke="#7f7f7f" stroke-width="1.00" clip-path="url('#clipping-rect1')" />
		<line x1="756.80" y1="31.00" x2="756.80" y2="29.00" stroke="#7f7f7f" stroke-width="1.00" clip-path="url('#clipping-rect1')" />
		<line x1="748.72" y1="31.00" x2="748.72" y2="29.00" stroke="#7f7f7f" stroke-width="1.00" clip-path="url('#clipping-rect1')" />
		<line x1="740.64" y1="31.00" x2="740.64" y2="29.00" stroke="#7f7f7f" stroke-width="1.00" clip-path="url('#clipping-rect1')" />
		<line x1="732.56" y1="31.00" x2="732.56" y2="29.00" stroke="#7f7f7f" stroke-width="1.00" clip-path="url('#clipping-rect1')" />
		<line x1="724.48" y1="31.00" x2="724.48" y2="29.00" stroke="#7f7f7f" stroke-width="1.00" clip-path="url('#clipping-rect1')" />
		<line x1="716.40" y1="31.00" x2="716.40" y2="29.00" stroke="#7f7f7f" stroke-width="1.00" clip-path="url('#clipping-rect1')" />
		<line x1="708.31" y1="31.00" x2="708.31" y2="29.00" stroke="#7f7f7f" stroke-width="1.00" clip-path="url('#clipping-rect1')" />
		<line x1="700.23" y1="31.00" x2="700.23" y2="29.00" stroke="#7f7f7f" stroke-width="1.00" clip-path="url('#clipping-rect1')" />
		<line x1="692.15" y1="31.00" x2="692.15" y2="29.00" stroke="#7f7f7f" stroke-width="1.00" clip-path="url('#clipping-rect1')" />
		<line x1="684.07" y1="31.00" x2="684.07" y2="28.00" stroke="#7f7f7f" stroke-width="1.00" clip-path="url('#clipping-rect1')" />
		<line x1="675.99" y1="31.00" x2="675.99" y2="29.00" stroke="#7f7f7f" stroke-width="1.00" clip-path="url('#clipping-rect1')" />
		<line x1="667.91" y1="31.00" x2="667.91" y2="29.00" stroke="#7f7f7f" stroke-width="1.00" clip-path="url('#clipping-rect1')" />
		<line x1="659.83" y1="31.00" x2="659.83" y2="29.00" stroke="#7f7f7f" stroke-width="1.00" clip-path="url('#clipping-rect1')" />
		<line x1="651.74" y1="31.00" x2="651.74" y2="29.00" stroke="#7f7f7f" stroke-width="1.00" clip-path="url('#clipping-rect1')" />
		<line x1="643.66" y1="31.00" x2="643.66" y2="29.00" stroke="#7f7f7f" stroke-width="1.00" clip-path="url('#clipping-rect1')" />
		<line x1="635.58" y1="31.00" x2="635.58" y2="29.00" stroke="#7f7f7f" stroke-width="1.00" clip-path="url('#clipping-rect1')" />
		<line x1="627.50" y1="31.00" x2="627.50" y2="29.00" stroke="#7f7f7f" stroke-width="1.00" clip-path="url('#clipping-rect1')" />
		<line x1="619.42" y1="31.00" x2="619.42" y2="29.00" stroke="#7f7f7f" stroke-width="1.00" clip-path="url('#clipping-rect1')" />
		<line x1="611.34" y1="31.00" x2="611.34" y2="29.00" stroke="#7f7f7f" stroke-width="1.00" clip-path="url('#clipping-rect1')" />
		<line x1="603.26" y1="31.00" x2="603.26" y2="28.00" stroke="#7f7f7f" stroke-width="1.00" clip-path="url('#clipping-rect1')" />
		<line x1="595.17" y1="31.00" x2="595.17" y2="29.00" stroke="#7f7f7f" stroke-width="1.00" clip-path="url('#clipping-rect1')" />
		<line x1="587.09" y1="31.00" x2="587.09" y2="29.00" stroke="#7f7f7f" stroke-width="1.00" clip-path="url('#clipping-rect1')" />
		<line x1="579.01" y1="31.00" x2="579.01" y2="29.00" stroke="#7f7f7f" stroke-width="1.00" clip-path="url('#clipping-rect1')" />
		<line x1="570.93" y1="31.00" x2="570.93" y2="29.00" stroke="#7f7f7f" stroke-width="1.00" clip-path="url('#clipping-rect1')" />
		<line x1="562.85" y1="31.00" x2="562.85" y2="29.00" stroke="#7f7f7f" stroke-width="1.00" clip-path="url('#clipping-rect1')" />
		<line x1="554.77" y1="31.00" x2="554.77" y2="29.00" stroke="#7f7f7f" stroke-width="1.00" clip-path="url('#clipping-rect1')" />
		<line x1="546.69" y1="31.00" x2="546.69" y2="29.00" stroke="#7f7f7f" stroke-width="1.00" clip-path="url('#clipping-rect1')" />
		<line x1="538.60" y1="31.00" x2="538.60" y2="29.00" stroke="#7f7f7f" stroke-width="1.00" clip-path="url('#clipping-rect1')" />
		<line x1="530.52" y1="31.00" x2="530.52" y2="29.00" stroke="#7f7f7f" stroke-width="1.00" clip-path="url('#clipping-rect1')" />
		<line x1="522.44" y1="31.00" x2="522.44" y2="28.00" stroke="#7f7f7f" stroke-width="1.00" clip-path="url('#clipping-rect1')" />
		<line x1="514.36" y1="31.00" x2="514.36" y2="29.00" stroke="#7f7f7f" stroke-width="1.00" clip-path="url('#clipping-rect1')" />
		<line x1="506.28" y1="31.00" x2="506.28" y2="29.00" stroke="#7f7f7f" stroke-width="1.00" clip-path="url('#clipping-rect1')" />
		<line x1="498.20" y1="31.00" x2="498.20" y2="29.00" stroke="#7f7f7f" stroke-width="1.00" clip-path="url('#clipping-rect1')" />
		<line x1="490.12" y1="31.00" x2="490.12" y2="29.00" stroke="#7f7f7f" stroke-width="1.00" clip-path="url('#clipping-rect1')" />
		<line x1="482.03" y1="31.00" x2="482.03" y2="29.00" stroke="#7f7f7f" stroke-width="1.00" clip-path="url('#clipping-rect1')" />
		<line x1="473.95" y1="31.00" x2="473.95" y2="29.00" stroke="#7f7f7f" stroke-width="1.00" clip-path="url('#clipping-rect1')" />
		<line x1="465.87" y1="31.00" x2="465.87" y2="29.00" stroke="#7f7f7f" stroke-width="1.00" clip-path="url('#clipping-rect1')" />
		<line x1="457.79" y1="31.00" x2="457.79" y2="29.00" stroke="#7f7f7f" stroke-width="1.00" clip-path="url('#clipping-rect1')" />
		<line x1="449.71" y1="31.00" x2="449.71" y2="29.00" stroke="#7f7f7f" stroke-width="1.00" clip-path="url('#clipping-rect1')" />
		<line x1="441.63" y1="31.00" x2="441.63" y2="28.00" stroke="#7f7f7f" stroke-width="1.00" clip-path="url('#clipping-rect1')" />
		<line x1="433.55" y1="31.00" x2="433.55" y2="29.00" stroke="#7f7f7f" stroke-width="1.00" clip-path="url('#clipping-rect1')" />
		<line x1="425.47" y1="31.00" x2="425.47" y2="29.00" stroke="#7f7f7f" stroke-width="1.00" clip-path="url('#clipping-rect1')" />
		<line x1="417.38" y1="31.00" x2="417.38" y2="29.00" stroke="#7f7f7f" stroke-width="1.00" clip-path="url('#clipping-rect1')" />
		<line x1="409.30" y1="31.00" x2="409.30" y2="29.00" stroke="#7f7f7f" stroke-width="1.00" clip-path="url('#clipping-rect1')" />
		<line x1="401.22" y1="31.00" x2="401.22" y2="29.00" stroke="#7f7f7f" stroke-width="1.00" clip-path="url('#clipping-rect1')" />
		<line x1="393.14" y1="31.00" x2="393.14" y2="29.00" stroke="#7f7f7f" stroke-width="1.00" clip-path="url('#clipping-rect1')" />
		<line x1="385.06" y1="31.00" x2="385.06" y2="29.00" stroke="#7f7f7f" stroke-width="1.00" clip-path="url('#clipping-rect1')" />
		<line x1="376.98" y1="31.00" x2="376.98" y2="29.00" stroke="#7f7f7f" stroke-width="1.00" clip-path="url('#clipping-rect1')" />
		<line x1="368.90" y1="31.00" x2="368.90" y2="29.00" stroke="#7f7f7f" stroke-width="1.00" clip-path="url('#clipping-rect1')" />
		<line x1="360.81" y1="31.00" x2="360.81" y2="28.00" stroke="#7f7f7f" stroke-width="1.00" clip-path="url('#clipping-rect1')" />
		<line x1="352.73" y1="31.00" x2="352.73" y2="29.00" stroke="#7f7f7f" stroke-width="1.00" clip-path="url('#clipping-rect1')" />
		<line x1="344.65" y1="31.00" x2="344.65" y2="29.00" stroke="#7f7f7f" stroke-width="1.00" clip-path="url('#clipping-rect1')" />
		<line x1="336.57" y1="31.00" x2="336.57" y2="29.00" stroke="#7f7f7f" stroke-width="1.00" clip-path="url('#clipping-rect1')" />
		<line x1="328.49" y1="31.00" x2="328.49" y2="29.00" stroke="#7f7f7f" stroke-width="1.00" clip-path="url('#clipping-rect1')" />
		<line x1="320.41" y1="31.00" x2="320.41" y2="29.00" stroke="#7f7f7f" stroke-width="1.00" clip-path="url('#clipping-rect1')" />
		<line x1="312.33" y1="31.00" x2="312.33" y2="29.00" stroke="#7f7f7f" stroke-width="1.00" clip-path="url('#clipping-rect1')" />
		<line x1="304.24" y1="31.00" x2="304.24" y2="29.00" stroke="#7f7f7f" stroke-width="1.00" clip-path="url('#clipping-rect1')" />
		<line x1="296.16" y1="31.00" x2="296.16" y2="29.00" stroke="#7f7f7f" stroke-width="1.00" clip-path="url('#clipping-rect1')" />
		<line x1="288.08" y1="31.00" x2="288.08" y2="29.00" stroke="#7f7f7f" stroke-width="1.00" clip-path="url('#clipping-rect1')" />
		<line x1="280.00" y1="31.00" x2="280.00" y2="28.00" stroke="#7f7f7f" stroke-width="1.00" clip-path="url('#clipping-rect1')" />
		<line x1="271.92" y1="31.00" x2="271.92" y2="29.00" stroke="#7f7f7f" stroke-width="1.00" clip-path="url('#clipping-rect1')" />
		<line x1="263.84" y1="31.00" x2="263.84" y2="29.00" stroke="#7f7f7f" stroke-width="1.00" clip-path="url('#clipping-rect1')" />
		<line x1="255.76" y1="31.00" x2="255.76" y2="29.00" stroke="#7f7f7f" stroke-width="1.00" clip-path="url('#clipping-rect1')" />
		<line x1="247.67" y1="31.00" x2="247.67" y2="29.00" stroke="#7f7f7f" stroke-width="1.00" clip-path="url('#clipping-rect1')" />
		<line x1="239.59" y1="31.00" x2="239.59" y2="29.00" stroke="#7f7f7f" stroke-width="1.00" clip-path="url('#clipping-rect1')" />
		<line x1="231.51" y1="31.00" x2="231.51" y2="29.00" stroke="#7f7f7f" stroke-width="1.00" clip-path="url('#clipping-rect1')" />
		<line x1="223.43" y1="31.00" x2="223.43" y2="29.00" stroke="#7f7f7f" stroke-width="1.00" clip-path="url('#clipping-rect1')" />
		<line x1="215.35" y1="31.00" x2="215.35" y2="29.00" stroke="#7f7f7f" stroke-width="1.00" clip-path="url('#clipping-rect1')" />
		<line x1="207.27" y1="31.00" x2="207.27" y2="29.00" stroke="#7f7f7f" stroke-width="1.00" clip-path="url('#clipping-rect1')" />
		<line x1="199.19" y1="31.00" x2="199.19" y2="28.00" stroke="#7f7f7f" stroke-width="1.00" clip-path="url('#clipping-rect1')" />
		<line x1="191.10" y1="31.00" x2="191.10" y2="29.00" stroke="#7f7f7f" stroke-width="1.00" clip-path="url('#clipping-rect1')" />
		<line x1="183.02" y1="31.00" x2="183.02" y2="29.00" stroke="#7f7f7f" stroke-width="1.00" clip-path="url('#clipping-rect1')" />
		<line x1="174.94" y1="31.00" x2="174.94" y2="29.00" stroke="#7f7f7f" stroke-width="1.00" clip-path="url('#clipping-rect1')" />
		<line x1="166.86" y1="31.00" x2="166.86" y2="29.00" stroke="#7f7f7f" stroke-width="1.00" clip-path="url('#clipping-rect1')" />
		<line x1="158.78" y1="31.00" x2="158.78" y2="29.00" stroke="#7f7f7f" stroke-width="1.00" clip-path="url('#clipping-rect1')" />
		<line x1="150.70" y1="31.00" x2="150.70" y2="29.00" stroke="#7f7f7f" stroke-width="1.00" clip-path="url('#clipping-rect1')" />
		<line x1="142.62" y1="31.00" x2="142.62" y2="29.00" stroke="#7f7f7f" stroke-width="1.00" clip-path="url('#clipping-rect1')" />
		<line x1="134.53" y1="31.00" x2="134.53" y2="29.00" stroke="#7f7f7f" stroke-width="1.00" clip-path="url('#clipping-rect1')" />
		<line x1="126.45" y1="31.00" x2="126.45" y2="29.00" stroke="#7f7f7f" stroke-width="1.00" clip-path="url('#clipping-rect1')" />
		<line x1="118.37" y1="31.00" x2="118.37" y2="28.00" stroke="#7f7f7f" stroke-width="1.00" clip-path="url('#clipping-rect1')" />
		<line x1="110.29" y1="31.00" x2="110.29" y2="29.00" stroke="#7f7f7f" stroke-width="1.00" clip-path="url('#clipping-rect1')" />
		<line x1="102.21" y1="31.00" x2="102.21" y2="29.00" stroke="#7f7f7f" stroke-width="1.00" clip-path="url('#clipping-rect1')" />
		<line x1="94.13" y1="31.00" x2="94.13" y2="29.00" stroke="#7f7f7f" stroke-width="1.00" clip-path="url('#clipping-rect1')" />
		<line x1="86.05" y1="31.00" x2="86.05" y2="29.00" stroke="#7f7f7f" stroke-width="1.00" clip-path="url('#clipping-rect1')" />
		<line x1="77.97" y1="31.00" x2="77.97" y2="29.00" stroke="#7f7f7f" stroke-width="1.00" clip-path="url('#clipping-rect1')" />
		<line x1="69.88" y1="31.00" x2="69.88" y2="29.00" stroke="#7f7f7f" stroke-width="1.00" clip-path="url('#clipping-rect1')" />
		<line x1="61.80" y1="31.00" x2="61.80" y2="29.00" stroke="#7f7f7f" stroke-width="1.00" clip-path="url('#clipping-rect1')" />
		<line x1="53.72" y1="31.00" x2="53.72" y2="29.00" stroke="#7f7f7f" stroke-width="1.00" clip-path="url('#clipping-rect1')" />
		<line x1="45.64" y1="31.00" x2="45.64" y2="29.00" stroke="#7f7f7f" stroke-width="1.00" clip-path="url('#clipping-rect1')" />
		<line x1="37.56" y1="31.00" x2="37.56" y2="28.00" stroke="#7f7f7f" stroke-width="1.00" clip-path="url('#clipping-rect1')" />
		<line x1="29.48" y1="31.00" x2="29.48" y2="29.00" stroke="#7f7f7f" stroke-width="1.00" clip-path="url('#clipping-rect1')" />
		<line x1="21.40" y1="31.00" x2="21.40" y2="29.00" stroke="#7f7f7f" stroke-width="1.00" clip-path="url('#clipping-rect1')" />
		<line x1="13.31" y1="31.00" x2="13.31" y2="29.00" stroke="#7f7f7f" stroke-width="1.00" clip-path="url('#clipping-rect1')" />
		<line x1="5.23" y1="31.00" x2="5.23" y2="29.00" stroke="#7f7f7f" stroke-width="1.00" clip-path="url('#clipping-rect1')" />
		<text x="766.88" y="26.00" font-family="Helvetica" font-size="12" fill="#333333" clip-path="url('#clipping-rect1')" >4,130 K</text>
		<line x1="764.88" y1="33.00" x2="764.88" y2="16.00" stroke="#7f7f7f" stroke-width="1.00" clip-path="url('#clipping-rect1')" />
		<text x="686.07" y="26.00" font-family="Helvetica" font-size="12" fill="#333333" clip-path="url('#clipping-rect1')" >4,140 K</text>
		<line x1="684.07" y1="33.00" x2="684.07" y2="16.00" stroke="#7f7f7f" stroke-width="1.00" clip-path="url('#clipping-rect1')" />
		<text x="605.26" y="26.00" font-family="Helvetica" font-size="12" fill="#333333" clip-path="url('#clipping-rect1')" >4,150 K</text>
		<line x1="603.26" y1="33.00" x2="603.26" y2="16.00" stroke="#7f7f7f" stroke-width="1.00" clip-path="url('#clipping-rect1')" />
		<text x="524.44" y="26.00" font-family="Helvetica" font-size="12" fill="#333333" clip-path="url('#clipping-rect1')" >4,160 K</text>
		<line x1="522.44" y1="33.00" x2="522.44" y2="16.00" stroke="#7f7f7f" stroke-width="1.00" clip-path="url('#clipping-rect1')" />
		<text x="443.63" y="26.00" font-family="Helvetica" font-size="12" fill="#333333" clip-path="url('#clipping-rect1')" >4,170 K</text>
		<line x1="441.63" y1="33.00" x2="441.63" y2="16.00" stroke="#7f7f7f" stroke-width="1.00" clip-path="url('#clipping-rect1')" />
		<text x="362.81" y="26.00" font-family="Helvetica" font-size="12" fill="#333333" clip-path="url('#clipping-rect1')" >4,180 K</text>
		<line x1="360.81" y1="33.00" x2="360.81" y2="16.00" stroke="#7f7f7f" stroke-width="1.00" clip-path="url('#clipping-rect1')" />
		<text x="282.00" y="26.00" font-family="Helvetica" font-size="12" fill="#333333" clip-path="url('#clipping-rect1')" >4,190 K</text>
		<line x1="280.00" y1="33.00" x2="280.00" y2="16.00" stroke="#7f7f7f" stroke-width="1.00" clip-path="url('#clipping-rect1')" />
		<text x="201.19" y="26.00" font-family="Helvetica" font-size="12" fill="#333333" clip-path="url('#clipping-rect1')" >4,200 K</text>
		<line x1="199.19" y1="33.00" x2="199.19" y2="16.00" stroke="#7f7f7f" stroke-width="1.00" clip-path="url('#clipping-rect1')" />
		<text x="120.37" y="26.00" font-family="Helvetica" font-size="12" fill="#333333" clip-path="url('#clipping-rect1')" >4,210 K</text>
		<line x1="118.37" y1="33.00" x2="118.37" y2="16.00" stroke="#7f7f7f" stroke-width="1.00" clip-path="url('#clipping-rect1')" />
		<text x="39.56" y="26.00" font-family="Helvetica" font-size="12" fill="#333333" clip-path="url('#clipping-rect1')" >4,220 K</text>
		<line x1="37.56" y1="33.00" x2="37.56" y2="16.00" stroke="#7f7f7f" stroke-width="1.00" clip-path="url('#clipping-rect1')" />
		<line x1="764.91" y1="157.00" x2="764.91" y2="33.00" stroke="#ebebeb" stroke-width="1.00" />
		<line x1="684.82" y1="157.00" x2="684.82" y2="33.00" stroke="#ebebeb" stroke-width="1.00" />
		<line x1="603.72" y1="157.00" x2="603.72" y2="33.00" stroke="#ebebeb" stroke-width="1.00" />
		<line x1="522.62" y1="157.00" x2="522.62" y2="33.00" stroke="#ebebeb" stroke-width="1.00" />
		<line x1="441.53" y1="157.00" x2="441.53" y2="33.00" stroke="#ebebeb" stroke-width="1.00" />
		<line x1="360.43" y1="157.00" x2="360.43" y2="33.00" stroke="#ebebeb" stroke-width="1.00" />
		<line x1="280.33" y1="157.00" x2="280.33" y2="33.00" stroke="#ebebeb" stroke-width="1.00" />
		<line x1="199.24" y1="157.00" x2="199.24" y2="33.00" stroke="#ebebeb" stroke-width="1.00" />
		<line x1="118.14" y1="157.00" x2="118.14" y2="33.00" stroke="#ebebeb" stroke-width="1.00" />
		<line x1="37.04" y1="157.00" x2="37.04" y2="33.00" stroke="#ebebeb" stroke-width="1.00" />
		<polygon fill="url('#gradient1')" shape-rendering="crispEdges" points="0.00,40.00 0.00,35.00 838.00,35.00 838.00,40.00 838.00,45.00 0.00,45.00 " />
		<line x1="838.00" y1="45.00" x2="838.00" y2="35.00" stroke="#6c6c6c" stroke-width="1.00" stroke-linejoin="round" />
		<line x1="838.00" y1="35.00" x2="0.00" y2="35.00" stroke="#6c6c6c" stroke-width="1.00" stroke-linejoin="round" />
		<line x1="0.00" y1="35.00" x2="0.00" y2="45.00" stroke="#6c6c6c" stroke-width="1.00" stroke-linejoin="round" />
		<line x1="838.00" y1="45.00" x2="0.00" y2="45.00" stroke="#6c6c6c" stroke-width="1.00" stroke-linejoin="round" />
		<polygon fill="url('#gradient2')" shape-rendering="crispEdges" points="0.00,39.50 0.00,46.00 838.00,46.00 838.00,39.50 838.00,33.00 0.00,33.00 " />
		<polygon fill="url('#gradient3')" shape-rendering="crispEdges" points="782.43,76.40 782.43,82.40 838.00,82.40 838.00,76.40 838.00,70.40 782.43,70.40 " />
		<polygon fill="#8ab698" shape-rendering="crispEdges" points="782.43,76.40 782.43,70.40 774.03,70.40 " />
		<polygon fill="#8ab698" shape-rendering="crispEdges" points="782.43,76.40 782.43,82.40 774.03,82.40 " />
		<line x1="774.03" y1="70.40" x2="782.43" y2="70.40" stroke="#166e32" stroke-width="1.50" />
		<line x1="774.03" y1="70.40" x2="782.43" y2="76.40" stroke="#166e32" stroke-width="1.50" />
		<line x1="774.03" y1="82.40" x2="782.43" y2="82.40" stroke="#166e32" stroke-width="1.50" />
		<line x1="774.03" y1="82.40" x2="782.43" y2="76.40" stroke="#166e32" stroke-width="1.50" />
		<polygon fill="#ffffff" shape-rendering="crispEdges" points="815.01,76.40 805.41,71.60 807.81,76.40 805.41,81.20 " />
		<polygon fill="#ffffff" shape-rendering="crispEdges" points="737.04,83.00 737.04,69.00 769.03,69.00 769.03,83.00 " />
		<text x="737.04" y="80.90" font-family="Helvetica" font-size="12" fill="#124d94" >SHPK</text>
		<polygon fill="url('#gradient3')" shape-rendering="crispEdges" points="760.65,99.20 760.65,105.20 815.13,105.20 815.13,99.20 815.13,93.20 760.65,93.20 " />
		<polygon fill="url('#gradient3')" shape-rendering="crispEdges" points="760.65,99.20 760.65,107.60 752.25,99.20 760.65,90.80 " />
		<polygon fill="#8ab698" shape-rendering="crispEdges" points="815.13,99.20 815.13,93.20 823.53,93.20 " />
		<polygon fill="#8ab698" shape-rendering="crispEdges" points="815.13,99.20 815.13,105.20 823.53,105.20 " />
		<line x1="823.53" y1="93.20" x2="815.13" y2="93.20" stroke="#166e32" stroke-width="1.50" />
		<line x1="823.53" y1="93.20" x2="815.13" y2="99.20" stroke="#166e32" stroke-width="1.50" />
		<line x1="823.53" y1="105.20" x2="815.13" y2="105.20" stroke="#166e32" stroke-width="1.50" />
		<line x1="823.53" y1="105.20" x2="815.13" y2="99.20" stroke="#166e32" stroke-width="1.50" />
		<polygon fill="#ffffff" shape-rendering="crispEdges" points="783.09,99.20 792.69,94.40 790.29,99.20 792.69,104.00 " />
		<polygon fill="url('#gradient3')" shape-rendering="crispEdges" points="730.25,122.00 730.25,128.00 741.93,128.00 741.93,122.00 741.93,116.00 730.25,116.00 " />
		<polygon fill="url('#gradient3')" shape-rendering="crispEdges" points="741.93,122.00 741.93,130.40 750.33,122.00 741.93,113.60 " />
		<polygon fill="#8ab698" shape-rendering="crispEdges" points="730.25,122.00 730.25,116.00 721.85,116.00 " />
		<polygon fill="#8ab698" shape-rendering="crispEdges" points="730.25,122.00 730.25,128.00 721.85,128.00 " />
		<line x1="721.85" y1="116.00" x2="730.25" y2="116.00" stroke="#166e32" stroke-width="1.50" />
		<line x1="721.85" y1="116.00" x2="730.25" y2="122.00" stroke="#166e32" stroke-width="1.50" />
		<line x1="721.85" y1="128.00" x2="730.25" y2="128.00" stroke="#166e32" stroke-width="1.50" />
		<line x1="721.85" y1="128.00" x2="730.25" y2="122.00" stroke="#166e32" stroke-width="1.50" />
		<polygon fill="#ffffff" shape-rendering="crispEdges" points="665.03,129.00 665.03,115.00 716.85,115.00 716.85,129.00 " />
		<text x="665.03" y="126.50" font-family="Helvetica" font-size="12" fill="#124d94" >TAX1BP3</text>
		<line x1="713.32" y1="138.80" x2="713.32" y2="150.80" stroke="#166e32" stroke-width="1.00" />
		<polygon fill="#8ab698" shape-rendering="crispEdges" points="713.32,144.80 713.32,138.80 721.72,138.80 " />
		<polygon fill="#8ab698" shape-rendering="crispEdges" points="713.32,144.80 713.32,150.80 721.72,150.80 " />
		<line x1="721.72" y1="138.80" x2="713.32" y2="138.80" stroke="#166e32" stroke-width="1.50" />
		<line x1="721.72" y1="138.80" x2="713.32" y2="144.80" stroke="#166e32" stroke-width="1.50" />
		<line x1="721.72" y1="150.80" x2="713.32" y2="150.80" stroke="#166e32" stroke-width="1.50" />
		<line x1="721.72" y1="150.80" x2="713.32" y2="144.80" stroke="#166e32" stroke-width="1.50" />
		<text x="726.72" y="149.30" font-family="Helvetica" font-size="12" fill="#124d94" >EMC6</text>
		<polygon fill="url('#gradient3')" shape-rendering="crispEdges" points="607.76,76.40 607.76,82.40 697.99,82.40 697.99,76.40 697.99,70.40 607.76,70.40 " />
		<polygon fill="url('#gradient3')" shape-rendering="crispEdges" points="697.99,76.40 697.99,84.80 706.39,76.40 697.99,68.00 " />
		<polygon fill="#8ab698" shape-rendering="crispEdges" points="607.76,76.40 607.76,70.40 599.36,70.40 " />
		<polygon fill="#8ab698" shape-rendering="crispEdges" points="607.76,76.40 607.76,82.40 599.36,82.40 " />
		<line x1="599.36" y1="70.40" x2="607.76" y2="70.40" stroke="#166e32" stroke-width="1.50" />
		<line x1="599.36" y1="70.40" x2="607.76" y2="76.40" stroke="#166e32" stroke-width="1.50" />
		<line x1="599.36" y1="82.40" x2="607.76" y2="82.40" stroke="#166e32" stroke-width="1.50" />
		<line x1="599.36" y1="82.40" x2="607.76" y2="76.40" stroke="#166e32" stroke-width="1.50" />
		<polygon fill="#ffffff" shape-rendering="crispEdges" points="657.68,76.40 648.08,71.60 650.48,76.40 648.08,81.20 " />
		<polygon fill="#ffffff" shape-rendering="crispEdges" points="557.96,83.00 557.96,69.00 594.36,69.00 594.36,83.00 " />
		<text x="557.96" y="80.90" font-family="Helvetica" font-size="12" fill="#124d94" >P2RX5</text>
		<polygon fill="url('#gradient3')" shape-rendering="crispEdges" points="557.47,122.00 557.47,128.00 560.97,128.00 560.97,122.00 560.97,116.00 557.47,116.00 " />
		<polygon fill="url('#gradient3')" shape-rendering="crispEdges" points="560.97,122.00 560.97,130.40 569.37,122.00 560.97,113.60 " />
		<polygon fill="#8ab698" shape-rendering="crispEdges" points="557.47,122.00 557.47,116.00 549.07,116.00 " />
		<polygon fill="#8ab698" shape-rendering="crispEdges" points="557.47,122.00 557.47,128.00 549.07,128.00 " />
		<line x1="549.07" y1="116.00" x2="557.47" y2="116.00" stroke="#166e32" stroke-width="1.50" />
		<line x1="549.07" y1="116.00" x2="557.47" y2="122.00" stroke="#166e32" stroke-width="1.50" />
		<line x1="549.07" y1="128.00" x2="557.47" y2="128.00" stroke="#166e32" stroke-width="1.50" />
		<line x1="549.07" y1="128.00" x2="557.47" y2="122.00" stroke="#166e32" stroke-width="1.50" />
		<polygon fill="#ffffff" shape-rendering="crispEdges" points="460.75,129.00 460.75,115.00 544.07,115.00 544.07,129.00 " />
		<text x="460.75" y="126.50" font-family="Helvetica" font-size="12" fill="#124d94" >LOC119713287</text>
		<polygon fill="url('#gradient3')" shape-rendering="crispEdges" points="283.51,76.40 283.51,82.40 524.25,82.40 524.25,76.40 524.25,70.40 283.51,70.40 " />
		<polygon fill="url('#gradient3')" shape-rendering="crispEdges" points="524.25,76.40 524.25,84.80 532.65,76.40 524.25,68.00 " />
		<polygon fill="#8ab698" shape-rendering="crispEdges" points="283.51,76.40 283.51,70.40 275.11,70.40 " />
		<polygon fill="#8ab698" shape-rendering="crispEdges" points="283.51,76.40 283.51,82.40 275.11,82.40 " />
		<line x1="275.11" y1="70.40" x2="283.51" y2="70.40" stroke="#166e32" stroke-width="1.50" />
		<line x1="275.11" y1="70.40" x2="283.51" y2="76.40" stroke="#166e32" stroke-width="1.50" />
		<line x1="275.11" y1="82.40" x2="283.51" y2="82.40" stroke="#166e32" stroke-width="1.50" />
		<line x1="275.11" y1="82.40" x2="283.51" y2="76.40" stroke="#166e32" stroke-width="1.50" />
		<polygon fill="#ffffff" shape-rendering="crispEdges" points="508.68,76.40 499.08,71.60 501.48,76.40 499.08,81.20 " />
		<polygon fill="#e0e0e0" shape-rendering="crispEdges" points="408.68,76.40 399.08,71.60 401.48,76.40 399.08,81.20 " />
		<polygon fill="#c1c1c1" shape-rendering="crispEdges" points="308.68,76.40 299.08,71.60 301.48,76.40 299.08,81.20 " />
		<polygon fill="#ffffff" shape-rendering="crispEdges" points="235.97,83.00 235.97,69.00 270.11,69.00 270.11,83.00 " />
		<text x="235.97" y="80.90" font-family="Helvetica" font-size="12" fill="#124d94" >ITGAE</text>
		<polygon fill="url('#gradient3')" shape-rendering="crispEdges" points="475.28,99.20 475.28,105.20 493.66,105.20 493.66,99.20 493.66,93.20 475.28,93.20 " />
		<polygon fill="url('#gradient3')" shape-rendering="crispEdges" points="475.28,99.20 475.28,107.60 466.88,99.20 475.28,90.80 " />
		<polygon fill="#8ab698" shape-rendering="crispEdges" points="493.66,99.20 493.66,93.20 502.06,93.20 " />
		<polygon fill="#8ab698" shape-rendering="crispEdges" points="493.66,99.20 493.66,105.20 502.06,105.20 " />
		<line x1="502.06" y1="93.20" x2="493.66" y2="93.20" stroke="#166e32" stroke-width="1.50" />
		<line x1="502.06" y1="93.20" x2="493.66" y2="99.20" stroke="#166e32" stroke-width="1.50" />
		<line x1="502.06" y1="105.20" x2="493.66" y2="105.20" stroke="#166e32" stroke-width="1.50" />
		<line x1="502.06" y1="105.20" x2="493.66" y2="99.20" stroke="#166e32" stroke-width="1.50" />
		<polygon fill="#ffffff" shape-rendering="crispEdges" points="479.67,99.20 489.27,94.40 486.87,99.20 489.27,104.00 " />
		<text x="507.06" y="103.70" font-family="Helvetica" font-size="12" fill="#124d94" >HASPIN</text>
		<polygon fill="url('#gradient3')" shape-rendering="crispEdges" points="161.60,99.20 161.60,105.20 241.98,105.20 241.98,99.20 241.98,93.20 161.60,93.20 " />
		<polygon fill="url('#gradient3')" shape-rendering="crispEdges" points="241.98,99.20 241.98,107.60 250.38,99.20 241.98,90.80 " />
		<polygon fill="#8ab698" shape-rendering="crispEdges" points="161.60,99.20 161.60,93.20 153.20,93.20 " />
		<polygon fill="#8ab698" shape-rendering="crispEdges" points="161.60,99.20 161.60,105.20 153.20,105.20 " />
		<line x1="153.20" y1="93.20" x2="161.60" y2="93.20" stroke="#166e32" stroke-width="1.50" />
		<line x1="153.20" y1="93.20" x2="161.60" y2="99.20" stroke="#166e32" stroke-width="1.50" />
		<line x1="153.20" y1="105.20" x2="161.60" y2="105.20" stroke="#166e32" stroke-width="1.50" />
		<line x1="153.20" y1="105.20" x2="161.60" y2="99.20" stroke="#166e32" stroke-width="1.50" />
		<polygon fill="#ffffff" shape-rendering="crispEdges" points="206.59,99.20 196.99,94.40 199.39,99.20 196.99,104.00 " />
		<polygon fill="#ffffff" shape-rendering="crispEdges" points="64.96,106.00 64.96,92.00 148.20,92.00 148.20,106.00 " />
		<text x="64.96" y="103.70" font-family="Helvetica" font-size="12" fill="#124d94" >LOC101798148</text>
		<polygon fill="url('#gradient3')" shape-rendering="crispEdges" points="90.83,144.80 90.83,150.80 95.83,150.80 95.83,144.80 95.83,138.80 90.83,138.80 " />
		<polygon fill="url('#gradient4')" shape-rendering="crispEdges" points="95.83,144.80 95.83,153.20 104.23,144.80 95.83,136.40 " />
		<polygon fill="#8ab698" shape-rendering="crispEdges" points="90.83,144.80 90.83,138.80 82.43,138.80 " />
		<polygon fill="#8ab698" shape-rendering="crispEdges" points="90.83,144.80 90.83,150.80 82.43,150.80 " />
		<line x1="82.43" y1="138.80" x2="90.83" y2="138.80" stroke="#166e32" stroke-width="1.50" />
		<line x1="82.43" y1="138.80" x2="90.83" y2="144.80" stroke="#166e32" stroke-width="1.50" />
		<line x1="82.43" y1="150.80" x2="90.83" y2="150.80" stroke="#166e32" stroke-width="1.50" />
		<line x1="82.43" y1="150.80" x2="90.83" y2="144.80" stroke="#166e32" stroke-width="1.50" />
		<polygon fill="#ffffff" shape-rendering="crispEdges" points="-0.01,151.00 -0.01,137.00 82.43,137.00 82.43,151.00 " />
		<text x="3.07" y="149.30" font-family="Helvetica" font-size="12" fill="#124d94" >LOC1017990...</text>
		<polygon fill="url('#gradient3')" shape-rendering="crispEdges" points="0.00,76.40 0.00,82.40 49.81,82.40 49.81,76.40 49.81,70.40 0.00,70.40 " />
		<polygon fill="url('#gradient3')" shape-rendering="crispEdges" points="49.81,76.40 49.81,84.80 58.21,76.40 49.81,68.00 " />
		<polygon fill="#ffffff" shape-rendering="crispEdges" points="29.71,76.40 20.11,71.60 22.51,76.40 20.11,81.20 " />
		<polygon fill="url('#gradient3')" shape-rendering="crispEdges" points="12.89,122.00 12.89,128.00 22.41,128.00 22.41,122.00 22.41,116.00 12.89,116.00 " />
		<polygon fill="url('#gradient3')" shape-rendering="crispEdges" points="12.89,122.00 12.89,130.40 4.49,122.00 12.89,113.60 " />
		<polygon fill="#8ab698" shape-rendering="crispEdges" points="22.41,122.00 22.41,116.00 30.81,116.00 " />
		<polygon fill="#8ab698" shape-rendering="crispEdges" points="22.41,122.00 22.41,128.00 30.81,128.00 " />
		<line x1="30.81" y1="116.00" x2="22.41" y2="116.00" stroke="#166e32" stroke-width="1.50" />
		<line x1="30.81" y1="116.00" x2="22.41" y2="122.00" stroke="#166e32" stroke-width="1.50" />
		<line x1="30.81" y1="128.00" x2="22.41" y2="128.00" stroke="#166e32" stroke-width="1.50" />
		<line x1="30.81" y1="128.00" x2="22.41" y2="122.00" stroke="#166e32" stroke-width="1.50" />
		<text x="35.81" y="126.50" font-family="Helvetica" font-size="12" fill="#124d94" >CENPV</text>
		<polygon fill="url('#gradient5')" shape-rendering="crispEdges" points="0.00,62.00 837.99,62.00 837.99,47.00 0.00,47.00 " clip-path="url('#clipping-rect2')" />
		<text x="0.00" y="58.00" font-family="Helvetica" font-size="14" fill="#333333" >Genes, NCBI Anas platyrhynchos Annotation Release 104, 2020-12-15</text>
		<polygon fill="#0000ff" fill-opacity="0.20" shape-rendering="crispEdges" points="83.50,33.50 83.50,23.10 83.50,23.10 " />
		<polygon fill="#0000ff" fill-opacity="0.20" shape-rendering="crispEdges" points="83.50,33.50 83.50,33.50 83.50,23.10 " />
		<line x1="83.50" y1="32.50" x2="83.50" y2="23.10" stroke="#0000ff" stroke-opacity="0.40" stroke-width="1.00" />
		<line x1="83.50" y1="32.50" x2="83.50" y2="23.10" stroke="#0000ff" stroke-opacity="0.40" stroke-width="1.00" />
		<polygon fill="#0000ff" shape-rendering="crispEdges" points="77.79,22.35 77.50,20.50 77.79,18.65 78.65,16.97 79.97,15.65 81.65,14.79 83.50,14.50 83.50,26.50 81.65,26.21 79.97,25.35 78.65,24.03 " />
		<polygon fill="#0000ff" fill-opacity="0.60" shape-rendering="crispEdges" points="108.78,26.50 108.78,14.50 83.50,14.50 83.50,26.50 " />
		<text x="85.50" y="23.50" font-family="Helvetica" font-size="10" fill="#ffffff" >UBB</text>
		<polygon fill="#0000ff" fill-opacity="0.20" shape-rendering="crispEdges" points="83.10,158.01 83.10,33.00 83.10,33.00 " />
		<polygon fill="#0000ff" fill-opacity="0.20" shape-rendering="crispEdges" points="83.10,158.01 83.10,158.01 83.10,33.00 " />
		<line x1="83.10" y1="157.00" x2="83.10" y2="33.00" stroke="#0000ff" stroke-opacity="0.40" stroke-width="1.00" />
		<line x1="83.10" y1="157.00" x2="83.10" y2="33.00" stroke="#0000ff" stroke-opacity="0.40" stroke-width="1.00" />
		<polygon fill="#0000ff" fill-opacity="0.20" shape-rendering="crispEdges" points="177.50,33.50 177.50,23.10 177.50,23.10 " />
		<polygon fill="#0000ff" fill-opacity="0.20" shape-rendering="crispEdges" points="177.50,33.50 177.50,33.50 177.50,23.10 " />
		<line x1="177.50" y1="32.50" x2="177.50" y2="23.10" stroke="#0000ff" stroke-opacity="0.40" stroke-width="1.00" />
		<line x1="177.50" y1="32.50" x2="177.50" y2="23.10" stroke="#0000ff" stroke-opacity="0.40" stroke-width="1.00" />
		<polygon fill="#0000ff" shape-rendering="crispEdges" points="171.79,22.35 171.50,20.50 171.79,18.65 172.65,16.97 173.97,15.65 175.65,14.79 177.50,14.50 177.50,26.50 175.65,26.21 173.97,25.35 172.65,24.03 " />
		<polygon fill="#0000ff" fill-opacity="0.60" shape-rendering="crispEdges" points="215.08,26.50 215.08,14.50 177.50,14.50 177.50,26.50 " />
		<text x="179.50" y="23.50" font-family="Helvetica" font-size="10" fill="#ffffff" >TRPV2</text>
		<polygon fill="#0000ff" fill-opacity="0.20" shape-rendering="crispEdges" points="177.21,158.01 177.21,33.00 177.21,33.00 " />
		<polygon fill="#0000ff" fill-opacity="0.20" shape-rendering="crispEdges" points="177.21,158.01 177.21,158.01 177.21,33.00 " />
		<line x1="177.21" y1="157.00" x2="177.21" y2="33.00" stroke="#0000ff" stroke-opacity="0.40" stroke-width="1.00" />
		<line x1="177.21" y1="157.00" x2="177.21" y2="33.00" stroke="#0000ff" stroke-opacity="0.40" stroke-width="1.00" />
		<polygon fill="#e5e5e5" shape-rendering="crispEdges" points="838.00,13.00 838.00,-1.00 0.00,-1.00 0.00,13.00 " />
		<text x="0.00" y="10.00" font-family="Helvetica Bold" font-size="12" text-anchor="start" fill="#000000" >NC_051791.1:4120952..4224647 Anas platyrhynchos isolate Z2 breed Pekin duck chromosome 20, ZJU1.0, whole genome shotgun sequence</text>
	</g>
</svg>
