<?xml version="1.0" standalone="no" ?>
<!DOCTYPE svg PUBLIC "-//W3C//DTD SVG 1.1//EN" "http://www.w3.org/Graphics/SVG/1.1/DTD/svg11.dtd">
<svg width="838px" height="135px" xmlns="http://www.w3.org/2000/svg" version="1.1" viewBox="0 0 838 135" >
	<style type="text/css" > <![CDATA[
		@import url("https://www.ncbi.nlm.nih.gov/projects/sviewer/css/svg_fonts.css");
	]]>
	</style>
	<desc >Generated by NCBI Genome Workbench http://www.ncbi.nlm.nih.gov/tools/gbench/</desc>
	<defs >
		<clipPath id="clipping-rect1" >
			<rect x="0" y="14" width="838" height="20" />
		</clipPath>
		<linearGradient id="gradient1" gradientTransform="rotate(90)" >
			<stop offset="0%" stop-color="#6c6c6c" />
			<stop offset="50%" stop-color="#b5b5b5" />
			<stop offset="100%" stop-color="#6c6c6c" />
		</linearGradient>
		<linearGradient id="gradient2" gradientTransform="rotate(90)" >
			<stop offset="0%" stop-color="#10c010" />
			<stop offset="50%" stop-color="#87df87" />
			<stop offset="100%" stop-color="#10c010" />
		</linearGradient>
		<linearGradient id="gradient3" gradientTransform="rotate(90)" >
			<stop offset="0%" stop-color="#166e32" />
			<stop offset="50%" stop-color="#8ab698" />
			<stop offset="100%" stop-color="#166e32" />
		</linearGradient>
		<clipPath id="clipping-rect2" >
			<rect x="0" y="34" width="838" height="101" />
		</clipPath>
		<linearGradient id="gradient4" gradientTransform="rotate(90)" >
			<stop offset="0%" stop-color="#e6e6e6" stop-opacity="0.71" />
			<stop offset="100%" stop-color="#ffffff" stop-opacity="0.00" />
		</linearGradient>
	</defs>
	<g >
		<polygon fill="#ffffff" shape-rendering="crispEdges" points="838.00,33.00 838.00,13.00 0.00,13.00 0.00,33.00 " />
		<line x1="0.00" y1="31.00" x2="838.00" y2="31.00" stroke="#7f7f7f" stroke-width="1.00" clip-path="url('#clipping-rect1')" />
		<line x1="833.98" y1="31.00" x2="833.98" y2="29.00" stroke="#7f7f7f" stroke-width="1.00" clip-path="url('#clipping-rect1')" />
		<line x1="826.48" y1="31.00" x2="826.48" y2="29.00" stroke="#7f7f7f" stroke-width="1.00" clip-path="url('#clipping-rect1')" />
		<line x1="818.98" y1="31.00" x2="818.98" y2="29.00" stroke="#7f7f7f" stroke-width="1.00" clip-path="url('#clipping-rect1')" />
		<line x1="811.48" y1="31.00" x2="811.48" y2="28.00" stroke="#7f7f7f" stroke-width="1.00" clip-path="url('#clipping-rect1')" />
		<line x1="803.98" y1="31.00" x2="803.98" y2="29.00" stroke="#7f7f7f" stroke-width="1.00" clip-path="url('#clipping-rect1')" />
		<line x1="796.48" y1="31.00" x2="796.48" y2="29.00" stroke="#7f7f7f" stroke-width="1.00" clip-path="url('#clipping-rect1')" />
		<line x1="788.98" y1="31.00" x2="788.98" y2="29.00" stroke="#7f7f7f" stroke-width="1.00" clip-path="url('#clipping-rect1')" />
		<line x1="781.47" y1="31.00" x2="781.47" y2="29.00" stroke="#7f7f7f" stroke-width="1.00" clip-path="url('#clipping-rect1')" />
		<line x1="773.97" y1="31.00" x2="773.97" y2="29.00" stroke="#7f7f7f" stroke-width="1.00" clip-path="url('#clipping-rect1')" />
		<line x1="766.47" y1="31.00" x2="766.47" y2="29.00" stroke="#7f7f7f" stroke-width="1.00" clip-path="url('#clipping-rect1')" />
		<line x1="758.97" y1="31.00" x2="758.97" y2="29.00" stroke="#7f7f7f" stroke-width="1.00" clip-path="url('#clipping-rect1')" />
		<line x1="751.47" y1="31.00" x2="751.47" y2="29.00" stroke="#7f7f7f" stroke-width="1.00" clip-path="url('#clipping-rect1')" />
		<line x1="743.97" y1="31.00" x2="743.97" y2="29.00" stroke="#7f7f7f" stroke-width="1.00" clip-path="url('#clipping-rect1')" />
		<line x1="736.47" y1="31.00" x2="736.47" y2="28.00" stroke="#7f7f7f" stroke-width="1.00" clip-path="url('#clipping-rect1')" />
		<line x1="728.97" y1="31.00" x2="728.97" y2="29.00" stroke="#7f7f7f" stroke-width="1.00" clip-path="url('#clipping-rect1')" />
		<line x1="721.47" y1="31.00" x2="721.47" y2="29.00" stroke="#7f7f7f" stroke-width="1.00" clip-path="url('#clipping-rect1')" />
		<line x1="713.96" y1="31.00" x2="713.96" y2="29.00" stroke="#7f7f7f" stroke-width="1.00" clip-path="url('#clipping-rect1')" />
		<line x1="706.46" y1="31.00" x2="706.46" y2="29.00" stroke="#7f7f7f" stroke-width="1.00" clip-path="url('#clipping-rect1')" />
		<line x1="698.96" y1="31.00" x2="698.96" y2="29.00" stroke="#7f7f7f" stroke-width="1.00" clip-path="url('#clipping-rect1')" />
		<line x1="691.46" y1="31.00" x2="691.46" y2="29.00" stroke="#7f7f7f" stroke-width="1.00" clip-path="url('#clipping-rect1')" />
		<line x1="683.96" y1="31.00" x2="683.96" y2="29.00" stroke="#7f7f7f" stroke-width="1.00" clip-path="url('#clipping-rect1')" />
		<line x1="676.46" y1="31.00" x2="676.46" y2="29.00" stroke="#7f7f7f" stroke-width="1.00" clip-path="url('#clipping-rect1')" />
		<line x1="668.96" y1="31.00" x2="668.96" y2="29.00" stroke="#7f7f7f" stroke-width="1.00" clip-path="url('#clipping-rect1')" />
		<line x1="661.46" y1="31.00" x2="661.46" y2="28.00" stroke="#7f7f7f" stroke-width="1.00" clip-path="url('#clipping-rect1')" />
		<line x1="653.96" y1="31.00" x2="653.96" y2="29.00" stroke="#7f7f7f" stroke-width="1.00" clip-path="url('#clipping-rect1')" />
		<line x1="646.45" y1="31.00" x2="646.45" y2="29.00" stroke="#7f7f7f" stroke-width="1.00" clip-path="url('#clipping-rect1')" />
		<line x1="638.95" y1="31.00" x2="638.95" y2="29.00" stroke="#7f7f7f" stroke-width="1.00" clip-path="url('#clipping-rect1')" />
		<line x1="631.45" y1="31.00" x2="631.45" y2="29.00" stroke="#7f7f7f" stroke-width="1.00" clip-path="url('#clipping-rect1')" />
		<line x1="623.95" y1="31.00" x2="623.95" y2="29.00" stroke="#7f7f7f" stroke-width="1.00" clip-path="url('#clipping-rect1')" />
		<line x1="616.45" y1="31.00" x2="616.45" y2="29.00" stroke="#7f7f7f" stroke-width="1.00" clip-path="url('#clipping-rect1')" />
		<line x1="608.95" y1="31.00" x2="608.95" y2="29.00" stroke="#7f7f7f" stroke-width="1.00" clip-path="url('#clipping-rect1')" />
		<line x1="601.45" y1="31.00" x2="601.45" y2="29.00" stroke="#7f7f7f" stroke-width="1.00" clip-path="url('#clipping-rect1')" />
		<line x1="593.95" y1="31.00" x2="593.95" y2="29.00" stroke="#7f7f7f" stroke-width="1.00" clip-path="url('#clipping-rect1')" />
		<line x1="586.44" y1="31.00" x2="586.44" y2="28.00" stroke="#7f7f7f" stroke-width="1.00" clip-path="url('#clipping-rect1')" />
		<line x1="578.94" y1="31.00" x2="578.94" y2="29.00" stroke="#7f7f7f" stroke-width="1.00" clip-path="url('#clipping-rect1')" />
		<line x1="571.44" y1="31.00" x2="571.44" y2="29.00" stroke="#7f7f7f" stroke-width="1.00" clip-path="url('#clipping-rect1')" />
		<line x1="563.94" y1="31.00" x2="563.94" y2="29.00" stroke="#7f7f7f" stroke-width="1.00" clip-path="url('#clipping-rect1')" />
		<line x1="556.44" y1="31.00" x2="556.44" y2="29.00" stroke="#7f7f7f" stroke-width="1.00" clip-path="url('#clipping-rect1')" />
		<line x1="548.94" y1="31.00" x2="548.94" y2="29.00" stroke="#7f7f7f" stroke-width="1.00" clip-path="url('#clipping-rect1')" />
		<line x1="541.44" y1="31.00" x2="541.44" y2="29.00" stroke="#7f7f7f" stroke-width="1.00" clip-path="url('#clipping-rect1')" />
		<line x1="533.94" y1="31.00" x2="533.94" y2="29.00" stroke="#7f7f7f" stroke-width="1.00" clip-path="url('#clipping-rect1')" />
		<line x1="526.44" y1="31.00" x2="526.44" y2="29.00" stroke="#7f7f7f" stroke-width="1.00" clip-path="url('#clipping-rect1')" />
		<line x1="518.93" y1="31.00" x2="518.93" y2="29.00" stroke="#7f7f7f" stroke-width="1.00" clip-path="url('#clipping-rect1')" />
		<line x1="511.43" y1="31.00" x2="511.43" y2="28.00" stroke="#7f7f7f" stroke-width="1.00" clip-path="url('#clipping-rect1')" />
		<line x1="503.93" y1="31.00" x2="503.93" y2="29.00" stroke="#7f7f7f" stroke-width="1.00" clip-path="url('#clipping-rect1')" />
		<line x1="496.43" y1="31.00" x2="496.43" y2="29.00" stroke="#7f7f7f" stroke-width="1.00" clip-path="url('#clipping-rect1')" />
		<line x1="488.93" y1="31.00" x2="488.93" y2="29.00" stroke="#7f7f7f" stroke-width="1.00" clip-path="url('#clipping-rect1')" />
		<line x1="481.43" y1="31.00" x2="481.43" y2="29.00" stroke="#7f7f7f" stroke-width="1.00" clip-path="url('#clipping-rect1')" />
		<line x1="473.93" y1="31.00" x2="473.93" y2="29.00" stroke="#7f7f7f" stroke-width="1.00" clip-path="url('#clipping-rect1')" />
		<line x1="466.43" y1="31.00" x2="466.43" y2="29.00" stroke="#7f7f7f" stroke-width="1.00" clip-path="url('#clipping-rect1')" />
		<line x1="458.92" y1="31.00" x2="458.92" y2="29.00" stroke="#7f7f7f" stroke-width="1.00" clip-path="url('#clipping-rect1')" />
		<line x1="451.42" y1="31.00" x2="451.42" y2="29.00" stroke="#7f7f7f" stroke-width="1.00" clip-path="url('#clipping-rect1')" />
		<line x1="443.92" y1="31.00" x2="443.92" y2="29.00" stroke="#7f7f7f" stroke-width="1.00" clip-path="url('#clipping-rect1')" />
		<line x1="436.42" y1="31.00" x2="436.42" y2="28.00" stroke="#7f7f7f" stroke-width="1.00" clip-path="url('#clipping-rect1')" />
		<line x1="428.92" y1="31.00" x2="428.92" y2="29.00" stroke="#7f7f7f" stroke-width="1.00" clip-path="url('#clipping-rect1')" />
		<line x1="421.42" y1="31.00" x2="421.42" y2="29.00" stroke="#7f7f7f" stroke-width="1.00" clip-path="url('#clipping-rect1')" />
		<line x1="413.92" y1="31.00" x2="413.92" y2="29.00" stroke="#7f7f7f" stroke-width="1.00" clip-path="url('#clipping-rect1')" />
		<line x1="406.42" y1="31.00" x2="406.42" y2="29.00" stroke="#7f7f7f" stroke-width="1.00" clip-path="url('#clipping-rect1')" />
		<line x1="398.92" y1="31.00" x2="398.92" y2="29.00" stroke="#7f7f7f" stroke-width="1.00" clip-path="url('#clipping-rect1')" />
		<line x1="391.41" y1="31.00" x2="391.41" y2="29.00" stroke="#7f7f7f" stroke-width="1.00" clip-path="url('#clipping-rect1')" />
		<line x1="383.91" y1="31.00" x2="383.91" y2="29.00" stroke="#7f7f7f" stroke-width="1.00" clip-path="url('#clipping-rect1')" />
		<line x1="376.41" y1="31.00" x2="376.41" y2="29.00" stroke="#7f7f7f" stroke-width="1.00" clip-path="url('#clipping-rect1')" />
		<line x1="368.91" y1="31.00" x2="368.91" y2="29.00" stroke="#7f7f7f" stroke-width="1.00" clip-path="url('#clipping-rect1')" />
		<line x1="361.41" y1="31.00" x2="361.41" y2="28.00" stroke="#7f7f7f" stroke-width="1.00" clip-path="url('#clipping-rect1')" />
		<line x1="353.91" y1="31.00" x2="353.91" y2="29.00" stroke="#7f7f7f" stroke-width="1.00" clip-path="url('#clipping-rect1')" />
		<line x1="346.41" y1="31.00" x2="346.41" y2="29.00" stroke="#7f7f7f" stroke-width="1.00" clip-path="url('#clipping-rect1')" />
		<line x1="338.91" y1="31.00" x2="338.91" y2="29.00" stroke="#7f7f7f" stroke-width="1.00" clip-path="url('#clipping-rect1')" />
		<line x1="331.41" y1="31.00" x2="331.41" y2="29.00" stroke="#7f7f7f" stroke-width="1.00" clip-path="url('#clipping-rect1')" />
		<line x1="323.90" y1="31.00" x2="323.90" y2="29.00" stroke="#7f7f7f" stroke-width="1.00" clip-path="url('#clipping-rect1')" />
		<line x1="316.40" y1="31.00" x2="316.40" y2="29.00" stroke="#7f7f7f" stroke-width="1.00" clip-path="url('#clipping-rect1')" />
		<line x1="308.90" y1="31.00" x2="308.90" y2="29.00" stroke="#7f7f7f" stroke-width="1.00" clip-path="url('#clipping-rect1')" />
		<line x1="301.40" y1="31.00" x2="301.40" y2="29.00" stroke="#7f7f7f" stroke-width="1.00" clip-path="url('#clipping-rect1')" />
		<line x1="293.90" y1="31.00" x2="293.90" y2="29.00" stroke="#7f7f7f" stroke-width="1.00" clip-path="url('#clipping-rect1')" />
		<line x1="286.40" y1="31.00" x2="286.40" y2="28.00" stroke="#7f7f7f" stroke-width="1.00" clip-path="url('#clipping-rect1')" />
		<line x1="278.90" y1="31.00" x2="278.90" y2="29.00" stroke="#7f7f7f" stroke-width="1.00" clip-path="url('#clipping-rect1')" />
		<line x1="271.40" y1="31.00" x2="271.40" y2="29.00" stroke="#7f7f7f" stroke-width="1.00" clip-path="url('#clipping-rect1')" />
		<line x1="263.89" y1="31.00" x2="263.89" y2="29.00" stroke="#7f7f7f" stroke-width="1.00" clip-path="url('#clipping-rect1')" />
		<line x1="256.39" y1="31.00" x2="256.39" y2="29.00" stroke="#7f7f7f" stroke-width="1.00" clip-path="url('#clipping-rect1')" />
		<line x1="248.89" y1="31.00" x2="248.89" y2="29.00" stroke="#7f7f7f" stroke-width="1.00" clip-path="url('#clipping-rect1')" />
		<line x1="241.39" y1="31.00" x2="241.39" y2="29.00" stroke="#7f7f7f" stroke-width="1.00" clip-path="url('#clipping-rect1')" />
		<line x1="233.89" y1="31.00" x2="233.89" y2="29.00" stroke="#7f7f7f" stroke-width="1.00" clip-path="url('#clipping-rect1')" />
		<line x1="226.39" y1="31.00" x2="226.39" y2="29.00" stroke="#7f7f7f" stroke-width="1.00" clip-path="url('#clipping-rect1')" />
		<line x1="218.89" y1="31.00" x2="218.89" y2="29.00" stroke="#7f7f7f" stroke-width="1.00" clip-path="url('#clipping-rect1')" />
		<line x1="211.39" y1="31.00" x2="211.39" y2="28.00" stroke="#7f7f7f" stroke-width="1.00" clip-path="url('#clipping-rect1')" />
		<line x1="203.89" y1="31.00" x2="203.89" y2="29.00" stroke="#7f7f7f" stroke-width="1.00" clip-path="url('#clipping-rect1')" />
		<line x1="196.38" y1="31.00" x2="196.38" y2="29.00" stroke="#7f7f7f" stroke-width="1.00" clip-path="url('#clipping-rect1')" />
		<line x1="188.88" y1="31.00" x2="188.88" y2="29.00" stroke="#7f7f7f" stroke-width="1.00" clip-path="url('#clipping-rect1')" />
		<line x1="181.38" y1="31.00" x2="181.38" y2="29.00" stroke="#7f7f7f" stroke-width="1.00" clip-path="url('#clipping-rect1')" />
		<line x1="173.88" y1="31.00" x2="173.88" y2="29.00" stroke="#7f7f7f" stroke-width="1.00" clip-path="url('#clipping-rect1')" />
		<line x1="166.38" y1="31.00" x2="166.38" y2="29.00" stroke="#7f7f7f" stroke-width="1.00" clip-path="url('#clipping-rect1')" />
		<line x1="158.88" y1="31.00" x2="158.88" y2="29.00" stroke="#7f7f7f" stroke-width="1.00" clip-path="url('#clipping-rect1')" />
		<line x1="151.38" y1="31.00" x2="151.38" y2="29.00" stroke="#7f7f7f" stroke-width="1.00" clip-path="url('#clipping-rect1')" />
		<line x1="143.88" y1="31.00" x2="143.88" y2="29.00" stroke="#7f7f7f" stroke-width="1.00" clip-path="url('#clipping-rect1')" />
		<line x1="136.37" y1="31.00" x2="136.37" y2="28.00" stroke="#7f7f7f" stroke-width="1.00" clip-path="url('#clipping-rect1')" />
		<line x1="128.87" y1="31.00" x2="128.87" y2="29.00" stroke="#7f7f7f" stroke-width="1.00" clip-path="url('#clipping-rect1')" />
		<line x1="121.37" y1="31.00" x2="121.37" y2="29.00" stroke="#7f7f7f" stroke-width="1.00" clip-path="url('#clipping-rect1')" />
		<line x1="113.87" y1="31.00" x2="113.87" y2="29.00" stroke="#7f7f7f" stroke-width="1.00" clip-path="url('#clipping-rect1')" />
		<line x1="106.37" y1="31.00" x2="106.37" y2="29.00" stroke="#7f7f7f" stroke-width="1.00" clip-path="url('#clipping-rect1')" />
		<line x1="98.87" y1="31.00" x2="98.87" y2="29.00" stroke="#7f7f7f" stroke-width="1.00" clip-path="url('#clipping-rect1')" />
		<line x1="91.37" y1="31.00" x2="91.37" y2="29.00" stroke="#7f7f7f" stroke-width="1.00" clip-path="url('#clipping-rect1')" />
		<line x1="83.87" y1="31.00" x2="83.87" y2="29.00" stroke="#7f7f7f" stroke-width="1.00" clip-path="url('#clipping-rect1')" />
		<line x1="76.37" y1="31.00" x2="76.37" y2="29.00" stroke="#7f7f7f" stroke-width="1.00" clip-path="url('#clipping-rect1')" />
		<line x1="68.86" y1="31.00" x2="68.86" y2="29.00" stroke="#7f7f7f" stroke-width="1.00" clip-path="url('#clipping-rect1')" />
		<line x1="61.36" y1="31.00" x2="61.36" y2="28.00" stroke="#7f7f7f" stroke-width="1.00" clip-path="url('#clipping-rect1')" />
		<line x1="53.86" y1="31.00" x2="53.86" y2="29.00" stroke="#7f7f7f" stroke-width="1.00" clip-path="url('#clipping-rect1')" />
		<line x1="46.36" y1="31.00" x2="46.36" y2="29.00" stroke="#7f7f7f" stroke-width="1.00" clip-path="url('#clipping-rect1')" />
		<line x1="38.86" y1="31.00" x2="38.86" y2="29.00" stroke="#7f7f7f" stroke-width="1.00" clip-path="url('#clipping-rect1')" />
		<line x1="31.36" y1="31.00" x2="31.36" y2="29.00" stroke="#7f7f7f" stroke-width="1.00" clip-path="url('#clipping-rect1')" />
		<line x1="23.86" y1="31.00" x2="23.86" y2="29.00" stroke="#7f7f7f" stroke-width="1.00" clip-path="url('#clipping-rect1')" />
		<line x1="16.36" y1="31.00" x2="16.36" y2="29.00" stroke="#7f7f7f" stroke-width="1.00" clip-path="url('#clipping-rect1')" />
		<line x1="8.86" y1="31.00" x2="8.86" y2="29.00" stroke="#7f7f7f" stroke-width="1.00" clip-path="url('#clipping-rect1')" />
		<line x1="1.35" y1="31.00" x2="1.35" y2="29.00" stroke="#7f7f7f" stroke-width="1.00" clip-path="url('#clipping-rect1')" />
		<line x1="811.48" y1="33.00" x2="811.48" y2="16.00" stroke="#7f7f7f" stroke-width="1.00" clip-path="url('#clipping-rect1')" />
		<text x="738.47" y="26.00" font-family="Helvetica" font-size="12" fill="#333333" clip-path="url('#clipping-rect1')" >2,650 K</text>
		<line x1="736.47" y1="33.00" x2="736.47" y2="16.00" stroke="#7f7f7f" stroke-width="1.00" clip-path="url('#clipping-rect1')" />
		<text x="663.46" y="26.00" font-family="Helvetica" font-size="12" fill="#333333" clip-path="url('#clipping-rect1')" >2,660 K</text>
		<line x1="661.46" y1="33.00" x2="661.46" y2="16.00" stroke="#7f7f7f" stroke-width="1.00" clip-path="url('#clipping-rect1')" />
		<text x="588.44" y="26.00" font-family="Helvetica" font-size="12" fill="#333333" clip-path="url('#clipping-rect1')" >2,670 K</text>
		<line x1="586.44" y1="33.00" x2="586.44" y2="16.00" stroke="#7f7f7f" stroke-width="1.00" clip-path="url('#clipping-rect1')" />
		<text x="513.43" y="26.00" font-family="Helvetica" font-size="12" fill="#333333" clip-path="url('#clipping-rect1')" >2,680 K</text>
		<line x1="511.43" y1="33.00" x2="511.43" y2="16.00" stroke="#7f7f7f" stroke-width="1.00" clip-path="url('#clipping-rect1')" />
		<text x="438.42" y="26.00" font-family="Helvetica" font-size="12" fill="#333333" clip-path="url('#clipping-rect1')" >2,690 K</text>
		<line x1="436.42" y1="33.00" x2="436.42" y2="16.00" stroke="#7f7f7f" stroke-width="1.00" clip-path="url('#clipping-rect1')" />
		<text x="363.41" y="26.00" font-family="Helvetica" font-size="12" fill="#333333" clip-path="url('#clipping-rect1')" >2,700 K</text>
		<line x1="361.41" y1="33.00" x2="361.41" y2="16.00" stroke="#7f7f7f" stroke-width="1.00" clip-path="url('#clipping-rect1')" />
		<text x="288.40" y="26.00" font-family="Helvetica" font-size="12" fill="#333333" clip-path="url('#clipping-rect1')" >2,710 K</text>
		<line x1="286.40" y1="33.00" x2="286.40" y2="16.00" stroke="#7f7f7f" stroke-width="1.00" clip-path="url('#clipping-rect1')" />
		<text x="213.39" y="26.00" font-family="Helvetica" font-size="12" fill="#333333" clip-path="url('#clipping-rect1')" >2,720 K</text>
		<line x1="211.39" y1="33.00" x2="211.39" y2="16.00" stroke="#7f7f7f" stroke-width="1.00" clip-path="url('#clipping-rect1')" />
		<text x="138.37" y="26.00" font-family="Helvetica" font-size="12" fill="#333333" clip-path="url('#clipping-rect1')" >2,730 K</text>
		<line x1="136.37" y1="33.00" x2="136.37" y2="16.00" stroke="#7f7f7f" stroke-width="1.00" clip-path="url('#clipping-rect1')" />
		<text x="63.36" y="26.00" font-family="Helvetica" font-size="12" fill="#333333" clip-path="url('#clipping-rect1')" >2,740 K</text>
		<line x1="61.36" y1="33.00" x2="61.36" y2="16.00" stroke="#7f7f7f" stroke-width="1.00" clip-path="url('#clipping-rect1')" />
		<line x1="811.97" y1="134.00" x2="811.97" y2="33.00" stroke="#ebebeb" stroke-width="1.00" />
		<line x1="736.88" y1="134.00" x2="736.88" y2="33.00" stroke="#ebebeb" stroke-width="1.00" />
		<line x1="661.79" y1="134.00" x2="661.79" y2="33.00" stroke="#ebebeb" stroke-width="1.00" />
		<line x1="586.70" y1="134.00" x2="586.70" y2="33.00" stroke="#ebebeb" stroke-width="1.00" />
		<line x1="511.61" y1="134.00" x2="511.61" y2="33.00" stroke="#ebebeb" stroke-width="1.00" />
		<line x1="436.52" y1="134.00" x2="436.52" y2="33.00" stroke="#ebebeb" stroke-width="1.00" />
		<line x1="361.43" y1="134.00" x2="361.43" y2="33.00" stroke="#ebebeb" stroke-width="1.00" />
		<line x1="286.34" y1="134.00" x2="286.34" y2="33.00" stroke="#ebebeb" stroke-width="1.00" />
		<line x1="211.25" y1="134.00" x2="211.25" y2="33.00" stroke="#ebebeb" stroke-width="1.00" />
		<line x1="136.16" y1="134.00" x2="136.16" y2="33.00" stroke="#ebebeb" stroke-width="1.00" />
		<line x1="61.07" y1="134.00" x2="61.07" y2="33.00" stroke="#ebebeb" stroke-width="1.00" />
		<polygon fill="url('#gradient1')" shape-rendering="crispEdges" points="0.00,40.00 0.00,35.00 838.00,35.00 838.00,40.00 838.00,45.00 0.00,45.00 " />
		<line x1="838.00" y1="45.00" x2="838.00" y2="35.00" stroke="#6c6c6c" stroke-width="1.00" stroke-linejoin="round" />
		<line x1="838.00" y1="35.00" x2="0.00" y2="35.00" stroke="#6c6c6c" stroke-width="1.00" stroke-linejoin="round" />
		<line x1="0.00" y1="35.00" x2="0.00" y2="45.00" stroke="#6c6c6c" stroke-width="1.00" stroke-linejoin="round" />
		<line x1="838.00" y1="45.00" x2="0.00" y2="45.00" stroke="#6c6c6c" stroke-width="1.00" stroke-linejoin="round" />
		<polygon fill="url('#gradient2')" shape-rendering="crispEdges" points="740.99,39.50 740.99,46.00 838.00,46.00 838.00,39.50 838.00,33.00 740.99,33.00 " />
		<polygon fill="#101010" shape-rendering="crispEdges" points="737.00,33.00 737.00,46.00 741.00,46.00 741.00,33.00 " />
		<polygon fill="url('#gradient2')" shape-rendering="crispEdges" points="510.99,39.50 510.99,46.00 737.00,46.00 737.00,39.50 737.00,33.00 510.99,33.00 " />
		<polygon fill="#101010" shape-rendering="crispEdges" points="502.00,33.00 502.00,46.00 511.00,46.00 511.00,33.00 " />
		<polygon fill="url('#gradient2')" shape-rendering="crispEdges" points="35.99,39.50 35.99,46.00 502.00,46.00 502.00,39.50 502.00,33.00 35.99,33.00 " />
		<polygon fill="#101010" shape-rendering="crispEdges" points="33.00,33.00 33.00,46.00 36.00,46.00 36.00,33.00 " />
		<polygon fill="url('#gradient2')" shape-rendering="crispEdges" points="0.00,39.50 0.00,46.00 33.00,46.00 33.00,39.50 33.00,33.00 0.00,33.00 " />
		<line x1="838.00" y1="33.00" x2="838.00" y2="46.00" stroke="#101010" stroke-width="1.00" />
		<line x1="742.00" y1="33.00" x2="742.00" y2="46.00" stroke="#101010" stroke-width="1.00" />
		<polygon fill="#101010" shape-rendering="crispEdges" points="738.00,33.00 738.00,46.00 741.00,46.00 741.00,33.00 " />
		<line x1="737.00" y1="33.00" x2="737.00" y2="46.00" stroke="#101010" stroke-width="1.00" />
		<line x1="641.00" y1="33.00" x2="641.00" y2="46.00" stroke="#101010" stroke-opacity="0.25" stroke-width="1.00" />
		<line x1="634.00" y1="33.00" x2="634.00" y2="46.00" stroke="#101010" stroke-opacity="0.38" stroke-width="1.00" />
		<line x1="512.00" y1="33.00" x2="512.00" y2="46.00" stroke="#101010" stroke-width="1.00" />
		<polygon fill="#101010" shape-rendering="crispEdges" points="503.00,33.00 503.00,46.00 511.00,46.00 511.00,33.00 " />
		<line x1="502.00" y1="33.00" x2="502.00" y2="46.00" stroke="#101010" stroke-opacity="0.39" stroke-width="1.00" />
		<line x1="196.00" y1="33.00" x2="196.00" y2="46.00" stroke="#101010" stroke-opacity="0.25" stroke-width="1.00" />
		<line x1="38.00" y1="33.00" x2="38.00" y2="46.00" stroke="#101010" stroke-opacity="0.25" stroke-width="1.00" />
		<polygon fill="#101010" shape-rendering="crispEdges" points="35.00,33.00 35.00,46.00 37.00,46.00 37.00,33.00 " />
		<line x1="34.00" y1="33.00" x2="34.00" y2="46.00" stroke="#101010" stroke-opacity="0.25" stroke-width="1.00" />
		<polygon fill="url('#gradient3')" shape-rendering="crispEdges" points="836.62,76.40 836.62,82.40 838.00,82.40 838.00,76.40 838.00,70.40 836.62,70.40 " />
		<polygon fill="#ffffff" shape-rendering="crispEdges" points="799.64,83.00 799.64,69.00 831.62,69.00 831.62,83.00 " />
		<text x="799.64" y="80.90" font-family="Helvetica" font-size="12" fill="#124d94" >SHPK</text>
		<polygon fill="url('#gradient3')" shape-rendering="crispEdges" points="782.50,99.20 782.50,105.20 828.13,105.20 828.13,99.20 828.13,93.20 782.50,93.20 " />
		<polygon fill="url('#gradient3')" shape-rendering="crispEdges" points="782.50,99.20 782.50,107.60 774.10,99.20 782.50,90.80 " />
		<polygon fill="#8ab698" shape-rendering="crispEdges" points="828.13,99.20 828.13,93.20 836.53,93.20 " />
		<polygon fill="#8ab698" shape-rendering="crispEdges" points="828.13,99.20 828.13,105.20 836.53,105.20 " />
		<line x1="836.53" y1="93.20" x2="828.13" y2="93.20" stroke="#166e32" stroke-width="1.50" />
		<line x1="836.53" y1="93.20" x2="828.13" y2="99.20" stroke="#166e32" stroke-width="1.50" />
		<line x1="836.53" y1="105.20" x2="828.13" y2="105.20" stroke="#166e32" stroke-width="1.50" />
		<line x1="836.53" y1="105.20" x2="828.13" y2="99.20" stroke="#166e32" stroke-width="1.50" />
		<polygon fill="#ffffff" shape-rendering="crispEdges" points="800.51,99.20 810.11,94.40 807.71,99.20 810.11,104.00 " />
		<polygon fill="url('#gradient3')" shape-rendering="crispEdges" points="757.83,122.00 757.83,128.00 762.61,128.00 762.61,122.00 762.61,116.00 757.83,116.00 " />
		<polygon fill="url('#gradient3')" shape-rendering="crispEdges" points="762.61,122.00 762.61,130.40 771.01,122.00 762.61,113.60 " />
		<polygon fill="#8ab698" shape-rendering="crispEdges" points="757.83,122.00 757.83,116.00 749.43,116.00 " />
		<polygon fill="#8ab698" shape-rendering="crispEdges" points="757.83,122.00 757.83,128.00 749.43,128.00 " />
		<line x1="749.43" y1="116.00" x2="757.83" y2="116.00" stroke="#166e32" stroke-width="1.50" />
		<line x1="749.43" y1="116.00" x2="757.83" y2="122.00" stroke="#166e32" stroke-width="1.50" />
		<line x1="749.43" y1="128.00" x2="757.83" y2="128.00" stroke="#166e32" stroke-width="1.50" />
		<line x1="749.43" y1="128.00" x2="757.83" y2="122.00" stroke="#166e32" stroke-width="1.50" />
		<polygon fill="#ffffff" shape-rendering="crispEdges" points="692.60,129.00 692.60,115.00 744.43,115.00 744.43,129.00 " />
		<text x="692.60" y="126.50" font-family="Helvetica" font-size="12" fill="#124d94" >TAX1BP3</text>
		<polygon fill="url('#gradient3')" shape-rendering="crispEdges" points="732.91,76.40 732.91,82.40 736.27,82.40 736.27,76.40 736.27,70.40 732.91,70.40 " />
		<text x="741.27" y="80.90" font-family="Helvetica" font-size="12" fill="#124d94" >EMC6</text>
		<polygon fill="url('#gradient3')" shape-rendering="crispEdges" points="610.92,76.40 610.92,82.40 705.12,82.40 705.12,76.40 705.12,70.40 610.92,70.40 " />
		<polygon fill="url('#gradient3')" shape-rendering="crispEdges" points="705.12,76.40 705.12,84.80 713.52,76.40 705.12,68.00 " />
		<polygon fill="#8ab698" shape-rendering="crispEdges" points="610.92,76.40 610.92,70.40 602.52,70.40 " />
		<polygon fill="#8ab698" shape-rendering="crispEdges" points="610.92,76.40 610.92,82.40 602.52,82.40 " />
		<line x1="602.52" y1="70.40" x2="610.92" y2="70.40" stroke="#166e32" stroke-width="1.50" />
		<line x1="602.52" y1="70.40" x2="610.92" y2="76.40" stroke="#166e32" stroke-width="1.50" />
		<line x1="602.52" y1="82.40" x2="610.92" y2="82.40" stroke="#166e32" stroke-width="1.50" />
		<line x1="602.52" y1="82.40" x2="610.92" y2="76.40" stroke="#166e32" stroke-width="1.50" />
		<polygon fill="#ffffff" shape-rendering="crispEdges" points="662.82,76.40 653.22,71.60 655.62,76.40 653.22,81.20 " />
		<polygon fill="#ffffff" shape-rendering="crispEdges" points="561.11,83.00 561.11,69.00 597.52,69.00 597.52,83.00 " />
		<text x="561.11" y="80.90" font-family="Helvetica" font-size="12" fill="#124d94" >P2RX5</text>
		<polygon fill="url('#gradient3')" shape-rendering="crispEdges" points="288.85,76.40 288.85,82.40 521.56,82.40 521.56,76.40 521.56,70.40 288.85,70.40 " />
		<polygon fill="url('#gradient3')" shape-rendering="crispEdges" points="521.56,76.40 521.56,84.80 529.96,76.40 521.56,68.00 " />
		<polygon fill="#8ab698" shape-rendering="crispEdges" points="288.85,76.40 288.85,70.40 280.45,70.40 " />
		<polygon fill="#8ab698" shape-rendering="crispEdges" points="288.85,76.40 288.85,82.40 280.45,82.40 " />
		<line x1="280.45" y1="70.40" x2="288.85" y2="70.40" stroke="#166e32" stroke-width="1.50" />
		<line x1="280.45" y1="70.40" x2="288.85" y2="76.40" stroke="#166e32" stroke-width="1.50" />
		<line x1="280.45" y1="82.40" x2="288.85" y2="82.40" stroke="#166e32" stroke-width="1.50" />
		<line x1="280.45" y1="82.40" x2="288.85" y2="76.40" stroke="#166e32" stroke-width="1.50" />
		<polygon fill="#ffffff" shape-rendering="crispEdges" points="510.01,76.40 500.41,71.60 502.81,76.40 500.41,81.20 " />
		<polygon fill="#e0e0e0" shape-rendering="crispEdges" points="410.01,76.40 400.41,71.60 402.81,76.40 400.41,81.20 " />
		<polygon fill="#c1c1c1" shape-rendering="crispEdges" points="310.01,76.40 300.41,71.60 302.81,76.40 300.41,81.20 " />
		<polygon fill="#ffffff" shape-rendering="crispEdges" points="241.31,83.00 241.31,69.00 275.45,69.00 275.45,83.00 " />
		<text x="241.31" y="80.90" font-family="Helvetica" font-size="12" fill="#124d94" >ITGAE</text>
		<polygon fill="url('#gradient3')" shape-rendering="crispEdges" points="145.27,99.20 145.27,105.20 244.25,105.20 244.25,99.20 244.25,93.20 145.27,93.20 " />
		<polygon fill="url('#gradient3')" shape-rendering="crispEdges" points="244.25,99.20 244.25,107.60 252.65,99.20 244.25,90.80 " />
		<polygon fill="#8ab698" shape-rendering="crispEdges" points="145.27,99.20 145.27,93.20 136.87,93.20 " />
		<polygon fill="#8ab698" shape-rendering="crispEdges" points="145.27,99.20 145.27,105.20 136.87,105.20 " />
		<line x1="136.87" y1="93.20" x2="145.27" y2="93.20" stroke="#166e32" stroke-width="1.50" />
		<line x1="136.87" y1="93.20" x2="145.27" y2="99.20" stroke="#166e32" stroke-width="1.50" />
		<line x1="136.87" y1="105.20" x2="145.27" y2="105.20" stroke="#166e32" stroke-width="1.50" />
		<line x1="136.87" y1="105.20" x2="145.27" y2="99.20" stroke="#166e32" stroke-width="1.50" />
		<polygon fill="#ffffff" shape-rendering="crispEdges" points="199.56,99.20 189.96,94.40 192.36,99.20 189.96,104.00 " />
		<polygon fill="#ffffff" shape-rendering="crispEdges" points="93.98,106.00 93.98,92.00 131.87,92.00 131.87,106.00 " />
		<text x="93.98" y="103.70" font-family="Helvetica" font-size="12" fill="#124d94" >TRPV2</text>
		<polygon fill="url('#gradient3')" shape-rendering="crispEdges" points="93.67,122.00 93.67,128.00 100.02,128.00 100.02,122.00 100.02,116.00 93.67,116.00 " />
		<polygon fill="url('#gradient3')" shape-rendering="crispEdges" points="100.02,122.00 100.02,130.40 108.42,122.00 100.02,113.60 " />
		<polygon fill="#ffffff" shape-rendering="crispEdges" points="65.53,129.00 65.53,115.00 88.67,115.00 88.67,129.00 " />
		<text x="65.53" y="126.50" font-family="Helvetica" font-size="12" fill="#124d94" >UBB</text>
		<polygon fill="url('#gradient3')" shape-rendering="crispEdges" points="18.89,76.40 18.89,82.40 27.27,82.40 27.27,76.40 27.27,70.40 18.89,70.40 " />
		<polygon fill="url('#gradient3')" shape-rendering="crispEdges" points="18.89,76.40 18.89,84.80 10.49,76.40 18.89,68.00 " />
		<text x="32.27" y="80.90" font-family="Helvetica" font-size="12" fill="#124d94" >CENPV</text>
		<polygon fill="url('#gradient3')" shape-rendering="crispEdges" points="0.00,76.40 0.00,82.40 1.94,82.40 1.94,76.40 1.94,70.40 0.00,70.40 " />
		<polygon fill="url('#gradient4')" shape-rendering="crispEdges" points="0.00,62.00 837.99,62.00 837.99,47.00 0.00,47.00 " clip-path="url('#clipping-rect2')" />
		<text x="0.00" y="58.00" font-family="Helvetica" font-size="14" fill="#333333" >Genes, NCBI Struthio camelus australis Annotation Release 100, 2014-10-15</text>
		<polygon fill="#e5e5e5" shape-rendering="crispEdges" points="838.00,13.00 838.00,-1.00 0.00,-1.00 0.00,13.00 " />
		<text x="0.00" y="10.00" font-family="Helvetica Bold" font-size="12" text-anchor="start" fill="#000000" >NW_009271012.1:2636464..2748180 Struthio camelus australis isolate BGI_N308 unplaced genomic scaffold, ASM69896v1 scaffold293, whole gen...</text>
	</g>
</svg>
