<?xml version="1.0" standalone="no" ?>
<!DOCTYPE svg PUBLIC "-//W3C//DTD SVG 1.1//EN" "http://www.w3.org/Graphics/SVG/1.1/DTD/svg11.dtd">
<svg width="862px" height="235px" xmlns="http://www.w3.org/2000/svg" version="1.1" viewBox="0 0 862 235" >
	<style type="text/css" > <![CDATA[
		@import url("https://www.ncbi.nlm.nih.gov/projects/sviewer/css/svg_fonts.css");
	]]>
	</style>
	<desc >Generated by NCBI Genome Workbench http://www.ncbi.nlm.nih.gov/tools/gbench/</desc>
	<defs >
		<clipPath id="clipping-rect1" >
			<rect x="0" y="14" width="862" height="18" />
		</clipPath>
		<linearGradient id="gradient1" gradientTransform="rotate(90)" >
			<stop offset="0%" stop-color="#6c6c6c" />
			<stop offset="50%" stop-color="#b5b5b5" />
			<stop offset="100%" stop-color="#6c6c6c" />
		</linearGradient>
		<clipPath id="clipping-rect2" >
			<rect x="0" y="32" width="862" height="203" />
		</clipPath>
		<linearGradient id="gradient2" gradientTransform="rotate(90)" >
			<stop offset="0%" stop-color="#b6dead" />
			<stop offset="100%" stop-color="#ffffff" stop-opacity="0.00" />
		</linearGradient>
		<linearGradient id="gradient3" gradientTransform="rotate(90)" >
			<stop offset="0%" stop-color="#e6e6e6" stop-opacity="0.71" />
			<stop offset="100%" stop-color="#ffffff" stop-opacity="0.00" />
		</linearGradient>
	</defs>
	<g >
		<polygon fill="#ffffff" shape-rendering="crispEdges" points="862.00,31.00 862.00,13.00 0.00,13.00 0.00,31.00 " />
		<line x1="0.00" y1="28.88" x2="862.00" y2="28.88" stroke="#7f7f7f" stroke-width="1.00" clip-path="url('#clipping-rect1')" />
		<line x1="6.97" y1="28.88" x2="6.97" y2="26.76" stroke="#7f7f7f" stroke-width="1.00" clip-path="url('#clipping-rect1')" />
		<line x1="14.53" y1="28.88" x2="14.53" y2="26.76" stroke="#7f7f7f" stroke-width="1.00" clip-path="url('#clipping-rect1')" />
		<line x1="22.09" y1="28.88" x2="22.09" y2="25.71" stroke="#7f7f7f" stroke-width="1.00" clip-path="url('#clipping-rect1')" />
		<line x1="29.65" y1="28.88" x2="29.65" y2="26.76" stroke="#7f7f7f" stroke-width="1.00" clip-path="url('#clipping-rect1')" />
		<line x1="37.20" y1="28.88" x2="37.20" y2="26.76" stroke="#7f7f7f" stroke-width="1.00" clip-path="url('#clipping-rect1')" />
		<line x1="44.76" y1="28.88" x2="44.76" y2="26.76" stroke="#7f7f7f" stroke-width="1.00" clip-path="url('#clipping-rect1')" />
		<line x1="52.32" y1="28.88" x2="52.32" y2="26.76" stroke="#7f7f7f" stroke-width="1.00" clip-path="url('#clipping-rect1')" />
		<line x1="59.88" y1="28.88" x2="59.88" y2="25.71" stroke="#7f7f7f" stroke-width="1.00" clip-path="url('#clipping-rect1')" />
		<line x1="67.43" y1="28.88" x2="67.43" y2="26.76" stroke="#7f7f7f" stroke-width="1.00" clip-path="url('#clipping-rect1')" />
		<line x1="74.99" y1="28.88" x2="74.99" y2="26.76" stroke="#7f7f7f" stroke-width="1.00" clip-path="url('#clipping-rect1')" />
		<line x1="82.55" y1="28.88" x2="82.55" y2="26.76" stroke="#7f7f7f" stroke-width="1.00" clip-path="url('#clipping-rect1')" />
		<line x1="90.11" y1="28.88" x2="90.11" y2="26.76" stroke="#7f7f7f" stroke-width="1.00" clip-path="url('#clipping-rect1')" />
		<line x1="97.67" y1="28.88" x2="97.67" y2="25.71" stroke="#7f7f7f" stroke-width="1.00" clip-path="url('#clipping-rect1')" />
		<line x1="105.22" y1="28.88" x2="105.22" y2="26.76" stroke="#7f7f7f" stroke-width="1.00" clip-path="url('#clipping-rect1')" />
		<line x1="112.78" y1="28.88" x2="112.78" y2="26.76" stroke="#7f7f7f" stroke-width="1.00" clip-path="url('#clipping-rect1')" />
		<line x1="120.34" y1="28.88" x2="120.34" y2="26.76" stroke="#7f7f7f" stroke-width="1.00" clip-path="url('#clipping-rect1')" />
		<line x1="127.90" y1="28.88" x2="127.90" y2="26.76" stroke="#7f7f7f" stroke-width="1.00" clip-path="url('#clipping-rect1')" />
		<line x1="135.45" y1="28.88" x2="135.45" y2="25.71" stroke="#7f7f7f" stroke-width="1.00" clip-path="url('#clipping-rect1')" />
		<line x1="143.01" y1="28.88" x2="143.01" y2="26.76" stroke="#7f7f7f" stroke-width="1.00" clip-path="url('#clipping-rect1')" />
		<line x1="150.57" y1="28.88" x2="150.57" y2="26.76" stroke="#7f7f7f" stroke-width="1.00" clip-path="url('#clipping-rect1')" />
		<line x1="158.13" y1="28.88" x2="158.13" y2="26.76" stroke="#7f7f7f" stroke-width="1.00" clip-path="url('#clipping-rect1')" />
		<line x1="165.68" y1="28.88" x2="165.68" y2="26.76" stroke="#7f7f7f" stroke-width="1.00" clip-path="url('#clipping-rect1')" />
		<line x1="173.24" y1="28.88" x2="173.24" y2="25.71" stroke="#7f7f7f" stroke-width="1.00" clip-path="url('#clipping-rect1')" />
		<line x1="180.80" y1="28.88" x2="180.80" y2="26.76" stroke="#7f7f7f" stroke-width="1.00" clip-path="url('#clipping-rect1')" />
		<line x1="188.36" y1="28.88" x2="188.36" y2="26.76" stroke="#7f7f7f" stroke-width="1.00" clip-path="url('#clipping-rect1')" />
		<line x1="195.92" y1="28.88" x2="195.92" y2="26.76" stroke="#7f7f7f" stroke-width="1.00" clip-path="url('#clipping-rect1')" />
		<line x1="203.47" y1="28.88" x2="203.47" y2="26.76" stroke="#7f7f7f" stroke-width="1.00" clip-path="url('#clipping-rect1')" />
		<line x1="211.03" y1="28.88" x2="211.03" y2="25.71" stroke="#7f7f7f" stroke-width="1.00" clip-path="url('#clipping-rect1')" />
		<line x1="218.59" y1="28.88" x2="218.59" y2="26.76" stroke="#7f7f7f" stroke-width="1.00" clip-path="url('#clipping-rect1')" />
		<line x1="226.15" y1="28.88" x2="226.15" y2="26.76" stroke="#7f7f7f" stroke-width="1.00" clip-path="url('#clipping-rect1')" />
		<line x1="233.70" y1="28.88" x2="233.70" y2="26.76" stroke="#7f7f7f" stroke-width="1.00" clip-path="url('#clipping-rect1')" />
		<line x1="241.26" y1="28.88" x2="241.26" y2="26.76" stroke="#7f7f7f" stroke-width="1.00" clip-path="url('#clipping-rect1')" />
		<line x1="248.82" y1="28.88" x2="248.82" y2="25.71" stroke="#7f7f7f" stroke-width="1.00" clip-path="url('#clipping-rect1')" />
		<line x1="256.38" y1="28.88" x2="256.38" y2="26.76" stroke="#7f7f7f" stroke-width="1.00" clip-path="url('#clipping-rect1')" />
		<line x1="263.94" y1="28.88" x2="263.94" y2="26.76" stroke="#7f7f7f" stroke-width="1.00" clip-path="url('#clipping-rect1')" />
		<line x1="271.49" y1="28.88" x2="271.49" y2="26.76" stroke="#7f7f7f" stroke-width="1.00" clip-path="url('#clipping-rect1')" />
		<line x1="279.05" y1="28.88" x2="279.05" y2="26.76" stroke="#7f7f7f" stroke-width="1.00" clip-path="url('#clipping-rect1')" />
		<line x1="286.61" y1="28.88" x2="286.61" y2="25.71" stroke="#7f7f7f" stroke-width="1.00" clip-path="url('#clipping-rect1')" />
		<line x1="294.17" y1="28.88" x2="294.17" y2="26.76" stroke="#7f7f7f" stroke-width="1.00" clip-path="url('#clipping-rect1')" />
		<line x1="301.72" y1="28.88" x2="301.72" y2="26.76" stroke="#7f7f7f" stroke-width="1.00" clip-path="url('#clipping-rect1')" />
		<line x1="309.28" y1="28.88" x2="309.28" y2="26.76" stroke="#7f7f7f" stroke-width="1.00" clip-path="url('#clipping-rect1')" />
		<line x1="316.84" y1="28.88" x2="316.84" y2="26.76" stroke="#7f7f7f" stroke-width="1.00" clip-path="url('#clipping-rect1')" />
		<line x1="324.40" y1="28.88" x2="324.40" y2="25.71" stroke="#7f7f7f" stroke-width="1.00" clip-path="url('#clipping-rect1')" />
		<line x1="331.96" y1="28.88" x2="331.96" y2="26.76" stroke="#7f7f7f" stroke-width="1.00" clip-path="url('#clipping-rect1')" />
		<line x1="339.51" y1="28.88" x2="339.51" y2="26.76" stroke="#7f7f7f" stroke-width="1.00" clip-path="url('#clipping-rect1')" />
		<line x1="347.07" y1="28.88" x2="347.07" y2="26.76" stroke="#7f7f7f" stroke-width="1.00" clip-path="url('#clipping-rect1')" />
		<line x1="354.63" y1="28.88" x2="354.63" y2="26.76" stroke="#7f7f7f" stroke-width="1.00" clip-path="url('#clipping-rect1')" />
		<line x1="362.19" y1="28.88" x2="362.19" y2="25.71" stroke="#7f7f7f" stroke-width="1.00" clip-path="url('#clipping-rect1')" />
		<line x1="369.74" y1="28.88" x2="369.74" y2="26.76" stroke="#7f7f7f" stroke-width="1.00" clip-path="url('#clipping-rect1')" />
		<line x1="377.30" y1="28.88" x2="377.30" y2="26.76" stroke="#7f7f7f" stroke-width="1.00" clip-path="url('#clipping-rect1')" />
		<line x1="384.86" y1="28.88" x2="384.86" y2="26.76" stroke="#7f7f7f" stroke-width="1.00" clip-path="url('#clipping-rect1')" />
		<line x1="392.42" y1="28.88" x2="392.42" y2="26.76" stroke="#7f7f7f" stroke-width="1.00" clip-path="url('#clipping-rect1')" />
		<line x1="399.98" y1="28.88" x2="399.98" y2="25.71" stroke="#7f7f7f" stroke-width="1.00" clip-path="url('#clipping-rect1')" />
		<line x1="407.53" y1="28.88" x2="407.53" y2="26.76" stroke="#7f7f7f" stroke-width="1.00" clip-path="url('#clipping-rect1')" />
		<line x1="415.09" y1="28.88" x2="415.09" y2="26.76" stroke="#7f7f7f" stroke-width="1.00" clip-path="url('#clipping-rect1')" />
		<line x1="422.65" y1="28.88" x2="422.65" y2="26.76" stroke="#7f7f7f" stroke-width="1.00" clip-path="url('#clipping-rect1')" />
		<line x1="430.21" y1="28.88" x2="430.21" y2="26.76" stroke="#7f7f7f" stroke-width="1.00" clip-path="url('#clipping-rect1')" />
		<line x1="437.76" y1="28.88" x2="437.76" y2="25.71" stroke="#7f7f7f" stroke-width="1.00" clip-path="url('#clipping-rect1')" />
		<line x1="445.32" y1="28.88" x2="445.32" y2="26.76" stroke="#7f7f7f" stroke-width="1.00" clip-path="url('#clipping-rect1')" />
		<line x1="452.88" y1="28.88" x2="452.88" y2="26.76" stroke="#7f7f7f" stroke-width="1.00" clip-path="url('#clipping-rect1')" />
		<line x1="460.44" y1="28.88" x2="460.44" y2="26.76" stroke="#7f7f7f" stroke-width="1.00" clip-path="url('#clipping-rect1')" />
		<line x1="468.00" y1="28.88" x2="468.00" y2="26.76" stroke="#7f7f7f" stroke-width="1.00" clip-path="url('#clipping-rect1')" />
		<line x1="475.55" y1="28.88" x2="475.55" y2="25.71" stroke="#7f7f7f" stroke-width="1.00" clip-path="url('#clipping-rect1')" />
		<line x1="483.11" y1="28.88" x2="483.11" y2="26.76" stroke="#7f7f7f" stroke-width="1.00" clip-path="url('#clipping-rect1')" />
		<line x1="490.67" y1="28.88" x2="490.67" y2="26.76" stroke="#7f7f7f" stroke-width="1.00" clip-path="url('#clipping-rect1')" />
		<line x1="498.23" y1="28.88" x2="498.23" y2="26.76" stroke="#7f7f7f" stroke-width="1.00" clip-path="url('#clipping-rect1')" />
		<line x1="505.78" y1="28.88" x2="505.78" y2="26.76" stroke="#7f7f7f" stroke-width="1.00" clip-path="url('#clipping-rect1')" />
		<line x1="513.34" y1="28.88" x2="513.34" y2="25.71" stroke="#7f7f7f" stroke-width="1.00" clip-path="url('#clipping-rect1')" />
		<line x1="520.90" y1="28.88" x2="520.90" y2="26.76" stroke="#7f7f7f" stroke-width="1.00" clip-path="url('#clipping-rect1')" />
		<line x1="528.46" y1="28.88" x2="528.46" y2="26.76" stroke="#7f7f7f" stroke-width="1.00" clip-path="url('#clipping-rect1')" />
		<line x1="536.02" y1="28.88" x2="536.02" y2="26.76" stroke="#7f7f7f" stroke-width="1.00" clip-path="url('#clipping-rect1')" />
		<line x1="543.57" y1="28.88" x2="543.57" y2="26.76" stroke="#7f7f7f" stroke-width="1.00" clip-path="url('#clipping-rect1')" />
		<line x1="551.13" y1="28.88" x2="551.13" y2="25.71" stroke="#7f7f7f" stroke-width="1.00" clip-path="url('#clipping-rect1')" />
		<line x1="558.69" y1="28.88" x2="558.69" y2="26.76" stroke="#7f7f7f" stroke-width="1.00" clip-path="url('#clipping-rect1')" />
		<line x1="566.25" y1="28.88" x2="566.25" y2="26.76" stroke="#7f7f7f" stroke-width="1.00" clip-path="url('#clipping-rect1')" />
		<line x1="573.80" y1="28.88" x2="573.80" y2="26.76" stroke="#7f7f7f" stroke-width="1.00" clip-path="url('#clipping-rect1')" />
		<line x1="581.36" y1="28.88" x2="581.36" y2="26.76" stroke="#7f7f7f" stroke-width="1.00" clip-path="url('#clipping-rect1')" />
		<line x1="588.92" y1="28.88" x2="588.92" y2="25.71" stroke="#7f7f7f" stroke-width="1.00" clip-path="url('#clipping-rect1')" />
		<line x1="596.48" y1="28.88" x2="596.48" y2="26.76" stroke="#7f7f7f" stroke-width="1.00" clip-path="url('#clipping-rect1')" />
		<line x1="604.03" y1="28.88" x2="604.03" y2="26.76" stroke="#7f7f7f" stroke-width="1.00" clip-path="url('#clipping-rect1')" />
		<line x1="611.59" y1="28.88" x2="611.59" y2="26.76" stroke="#7f7f7f" stroke-width="1.00" clip-path="url('#clipping-rect1')" />
		<line x1="619.15" y1="28.88" x2="619.15" y2="26.76" stroke="#7f7f7f" stroke-width="1.00" clip-path="url('#clipping-rect1')" />
		<line x1="626.71" y1="28.88" x2="626.71" y2="25.71" stroke="#7f7f7f" stroke-width="1.00" clip-path="url('#clipping-rect1')" />
		<line x1="634.27" y1="28.88" x2="634.27" y2="26.76" stroke="#7f7f7f" stroke-width="1.00" clip-path="url('#clipping-rect1')" />
		<line x1="641.82" y1="28.88" x2="641.82" y2="26.76" stroke="#7f7f7f" stroke-width="1.00" clip-path="url('#clipping-rect1')" />
		<line x1="649.38" y1="28.88" x2="649.38" y2="26.76" stroke="#7f7f7f" stroke-width="1.00" clip-path="url('#clipping-rect1')" />
		<line x1="656.94" y1="28.88" x2="656.94" y2="26.76" stroke="#7f7f7f" stroke-width="1.00" clip-path="url('#clipping-rect1')" />
		<line x1="664.50" y1="28.88" x2="664.50" y2="25.71" stroke="#7f7f7f" stroke-width="1.00" clip-path="url('#clipping-rect1')" />
		<line x1="672.05" y1="28.88" x2="672.05" y2="26.76" stroke="#7f7f7f" stroke-width="1.00" clip-path="url('#clipping-rect1')" />
		<line x1="679.61" y1="28.88" x2="679.61" y2="26.76" stroke="#7f7f7f" stroke-width="1.00" clip-path="url('#clipping-rect1')" />
		<line x1="687.17" y1="28.88" x2="687.17" y2="26.76" stroke="#7f7f7f" stroke-width="1.00" clip-path="url('#clipping-rect1')" />
		<line x1="694.73" y1="28.88" x2="694.73" y2="26.76" stroke="#7f7f7f" stroke-width="1.00" clip-path="url('#clipping-rect1')" />
		<line x1="702.29" y1="28.88" x2="702.29" y2="25.71" stroke="#7f7f7f" stroke-width="1.00" clip-path="url('#clipping-rect1')" />
		<line x1="709.84" y1="28.88" x2="709.84" y2="26.76" stroke="#7f7f7f" stroke-width="1.00" clip-path="url('#clipping-rect1')" />
		<line x1="717.40" y1="28.88" x2="717.40" y2="26.76" stroke="#7f7f7f" stroke-width="1.00" clip-path="url('#clipping-rect1')" />
		<line x1="724.96" y1="28.88" x2="724.96" y2="26.76" stroke="#7f7f7f" stroke-width="1.00" clip-path="url('#clipping-rect1')" />
		<line x1="732.52" y1="28.88" x2="732.52" y2="26.76" stroke="#7f7f7f" stroke-width="1.00" clip-path="url('#clipping-rect1')" />
		<line x1="740.07" y1="28.88" x2="740.07" y2="25.71" stroke="#7f7f7f" stroke-width="1.00" clip-path="url('#clipping-rect1')" />
		<line x1="747.63" y1="28.88" x2="747.63" y2="26.76" stroke="#7f7f7f" stroke-width="1.00" clip-path="url('#clipping-rect1')" />
		<line x1="755.19" y1="28.88" x2="755.19" y2="26.76" stroke="#7f7f7f" stroke-width="1.00" clip-path="url('#clipping-rect1')" />
		<line x1="762.75" y1="28.88" x2="762.75" y2="26.76" stroke="#7f7f7f" stroke-width="1.00" clip-path="url('#clipping-rect1')" />
		<line x1="770.31" y1="28.88" x2="770.31" y2="26.76" stroke="#7f7f7f" stroke-width="1.00" clip-path="url('#clipping-rect1')" />
		<line x1="777.86" y1="28.88" x2="777.86" y2="25.71" stroke="#7f7f7f" stroke-width="1.00" clip-path="url('#clipping-rect1')" />
		<line x1="785.42" y1="28.88" x2="785.42" y2="26.76" stroke="#7f7f7f" stroke-width="1.00" clip-path="url('#clipping-rect1')" />
		<line x1="792.98" y1="28.88" x2="792.98" y2="26.76" stroke="#7f7f7f" stroke-width="1.00" clip-path="url('#clipping-rect1')" />
		<line x1="800.54" y1="28.88" x2="800.54" y2="26.76" stroke="#7f7f7f" stroke-width="1.00" clip-path="url('#clipping-rect1')" />
		<line x1="808.09" y1="28.88" x2="808.09" y2="26.76" stroke="#7f7f7f" stroke-width="1.00" clip-path="url('#clipping-rect1')" />
		<line x1="815.65" y1="28.88" x2="815.65" y2="25.71" stroke="#7f7f7f" stroke-width="1.00" clip-path="url('#clipping-rect1')" />
		<line x1="823.21" y1="28.88" x2="823.21" y2="26.76" stroke="#7f7f7f" stroke-width="1.00" clip-path="url('#clipping-rect1')" />
		<line x1="830.77" y1="28.88" x2="830.77" y2="26.76" stroke="#7f7f7f" stroke-width="1.00" clip-path="url('#clipping-rect1')" />
		<line x1="838.33" y1="28.88" x2="838.33" y2="26.76" stroke="#7f7f7f" stroke-width="1.00" clip-path="url('#clipping-rect1')" />
		<line x1="845.88" y1="28.88" x2="845.88" y2="26.76" stroke="#7f7f7f" stroke-width="1.00" clip-path="url('#clipping-rect1')" />
		<line x1="853.44" y1="28.88" x2="853.44" y2="25.71" stroke="#7f7f7f" stroke-width="1.00" clip-path="url('#clipping-rect1')" />
		<line x1="861.00" y1="28.88" x2="861.00" y2="26.76" stroke="#7f7f7f" stroke-width="1.00" clip-path="url('#clipping-rect1')" />
		<line x1="853.44" y1="31.00" x2="853.44" y2="15.12" stroke="#7f7f7f" stroke-width="1.00" clip-path="url('#clipping-rect1')" />
		<text x="779.86" y="23.59" font-family="Helvetica" font-size="10" fill="#333333" clip-path="url('#clipping-rect1')" >28 K</text>
		<line x1="777.86" y1="31.00" x2="777.86" y2="15.12" stroke="#7f7f7f" stroke-width="1.00" clip-path="url('#clipping-rect1')" />
		<text x="704.29" y="23.59" font-family="Helvetica" font-size="10" fill="#333333" clip-path="url('#clipping-rect1')" >26 K</text>
		<line x1="702.29" y1="31.00" x2="702.29" y2="15.12" stroke="#7f7f7f" stroke-width="1.00" clip-path="url('#clipping-rect1')" />
		<text x="628.71" y="23.59" font-family="Helvetica" font-size="10" fill="#333333" clip-path="url('#clipping-rect1')" >24 K</text>
		<line x1="626.71" y1="31.00" x2="626.71" y2="15.12" stroke="#7f7f7f" stroke-width="1.00" clip-path="url('#clipping-rect1')" />
		<text x="553.13" y="23.59" font-family="Helvetica" font-size="10" fill="#333333" clip-path="url('#clipping-rect1')" >22 K</text>
		<line x1="551.13" y1="31.00" x2="551.13" y2="15.12" stroke="#7f7f7f" stroke-width="1.00" clip-path="url('#clipping-rect1')" />
		<text x="477.55" y="23.59" font-family="Helvetica" font-size="10" fill="#333333" clip-path="url('#clipping-rect1')" >20 K</text>
		<line x1="475.55" y1="31.00" x2="475.55" y2="15.12" stroke="#7f7f7f" stroke-width="1.00" clip-path="url('#clipping-rect1')" />
		<text x="401.98" y="23.59" font-family="Helvetica" font-size="10" fill="#333333" clip-path="url('#clipping-rect1')" >18 K</text>
		<line x1="399.98" y1="31.00" x2="399.98" y2="15.12" stroke="#7f7f7f" stroke-width="1.00" clip-path="url('#clipping-rect1')" />
		<text x="326.40" y="23.59" font-family="Helvetica" font-size="10" fill="#333333" clip-path="url('#clipping-rect1')" >16 K</text>
		<line x1="324.40" y1="31.00" x2="324.40" y2="15.12" stroke="#7f7f7f" stroke-width="1.00" clip-path="url('#clipping-rect1')" />
		<text x="250.82" y="23.59" font-family="Helvetica" font-size="10" fill="#333333" clip-path="url('#clipping-rect1')" >14 K</text>
		<line x1="248.82" y1="31.00" x2="248.82" y2="15.12" stroke="#7f7f7f" stroke-width="1.00" clip-path="url('#clipping-rect1')" />
		<text x="175.24" y="23.59" font-family="Helvetica" font-size="10" fill="#333333" clip-path="url('#clipping-rect1')" >12 K</text>
		<line x1="173.24" y1="31.00" x2="173.24" y2="15.12" stroke="#7f7f7f" stroke-width="1.00" clip-path="url('#clipping-rect1')" />
		<text x="99.67" y="23.59" font-family="Helvetica" font-size="10" fill="#333333" clip-path="url('#clipping-rect1')" >10 K</text>
		<line x1="97.67" y1="31.00" x2="97.67" y2="15.12" stroke="#7f7f7f" stroke-width="1.00" clip-path="url('#clipping-rect1')" />
		<text x="24.09" y="23.59" font-family="Helvetica" font-size="10" fill="#333333" clip-path="url('#clipping-rect1')" >8 K</text>
		<line x1="22.09" y1="31.00" x2="22.09" y2="15.12" stroke="#7f7f7f" stroke-width="1.00" clip-path="url('#clipping-rect1')" />
		<line x1="22.03" y1="234.00" x2="22.03" y2="31.00" stroke="#ebebeb" stroke-width="1.00" />
		<line x1="97.11" y1="234.00" x2="97.11" y2="31.00" stroke="#ebebeb" stroke-width="1.00" />
		<line x1="173.20" y1="234.00" x2="173.20" y2="31.00" stroke="#ebebeb" stroke-width="1.00" />
		<line x1="248.29" y1="234.00" x2="248.29" y2="31.00" stroke="#ebebeb" stroke-width="1.00" />
		<line x1="324.38" y1="234.00" x2="324.38" y2="31.00" stroke="#ebebeb" stroke-width="1.00" />
		<line x1="399.46" y1="234.00" x2="399.46" y2="31.00" stroke="#ebebeb" stroke-width="1.00" />
		<line x1="475.55" y1="234.00" x2="475.55" y2="31.00" stroke="#ebebeb" stroke-width="1.00" />
		<line x1="551.64" y1="234.00" x2="551.64" y2="31.00" stroke="#ebebeb" stroke-width="1.00" />
		<line x1="626.73" y1="234.00" x2="626.73" y2="31.00" stroke="#ebebeb" stroke-width="1.00" />
		<line x1="702.82" y1="234.00" x2="702.82" y2="31.00" stroke="#ebebeb" stroke-width="1.00" />
		<line x1="777.90" y1="234.00" x2="777.90" y2="31.00" stroke="#ebebeb" stroke-width="1.00" />
		<line x1="853.99" y1="234.00" x2="853.99" y2="31.00" stroke="#ebebeb" stroke-width="1.00" />
		<polygon fill="url('#gradient1')" shape-rendering="crispEdges" points="862.00,37.50 862.00,33.00 0.00,33.00 0.00,37.50 0.00,42.00 862.00,42.00 " />
		<line x1="0.00" y1="42.00" x2="0.00" y2="33.00" stroke="#6c6c6c" stroke-width="1.00" stroke-linejoin="round" />
		<line x1="0.00" y1="33.00" x2="862.00" y2="33.00" stroke="#6c6c6c" stroke-width="1.00" stroke-linejoin="round" />
		<line x1="862.00" y1="33.00" x2="862.00" y2="42.00" stroke="#6c6c6c" stroke-width="1.00" stroke-linejoin="round" />
		<line x1="0.00" y1="42.00" x2="862.00" y2="42.00" stroke="#6c6c6c" stroke-width="1.00" stroke-linejoin="round" />
		<line x1="396.37" y1="76.00" x2="465.44" y2="76.00" stroke="#124d94" stroke-width="1.00" />
		<polygon fill="#dd8484" shape-rendering="crispEdges" points="397.00,71.00 397.00,81.00 396.00,81.00 396.00,71.00 " />
		<polygon fill="#e07b7b" shape-rendering="crispEdges" points="398.00,71.00 398.00,81.00 397.00,81.00 397.00,71.00 " />
		<polygon fill="#e66363" shape-rendering="crispEdges" points="399.00,71.00 399.00,81.00 398.00,81.00 398.00,71.00 " />
		<polygon fill="#df7d7d" shape-rendering="crispEdges" points="400.00,71.00 400.00,81.00 399.00,81.00 399.00,71.00 " />
		<polygon fill="#de8282" shape-rendering="crispEdges" points="401.00,71.00 401.00,81.00 400.00,81.00 400.00,71.00 " />
		<polygon fill="#df7d7d" shape-rendering="crispEdges" points="435.00,71.00 435.00,81.00 434.00,81.00 434.00,71.00 " />
		<polygon fill="#e07b7b" shape-rendering="crispEdges" points="436.00,71.00 436.00,81.00 435.00,81.00 435.00,71.00 " />
		<polygon fill="#dc8989" shape-rendering="crispEdges" points="437.00,71.00 437.00,81.00 436.00,81.00 436.00,71.00 " />
		<polygon fill="#df7d7d" shape-rendering="crispEdges" points="438.00,71.00 438.00,81.00 437.00,81.00 437.00,71.00 " />
		<polygon fill="#dc8989" shape-rendering="crispEdges" points="439.00,71.00 439.00,81.00 438.00,81.00 438.00,71.00 " />
		<polygon fill="#db8c8c" shape-rendering="crispEdges" points="440.00,71.00 440.00,81.00 439.00,81.00 439.00,71.00 " />
		<polygon fill="#dd8484" shape-rendering="crispEdges" points="441.00,71.00 441.00,81.00 440.00,81.00 440.00,71.00 " />
		<polygon fill="#cccccc" shape-rendering="crispEdges" points="458.00,71.00 458.00,81.00 457.00,81.00 457.00,71.00 " />
		<polygon fill="#e17676" shape-rendering="crispEdges" points="459.00,71.00 459.00,81.00 458.00,81.00 458.00,71.00 " />
		<polygon fill="#e36e6e" shape-rendering="crispEdges" points="460.00,71.00 460.00,81.00 459.00,81.00 459.00,71.00 " />
		<polygon fill="#dd8686" shape-rendering="crispEdges" points="461.00,71.00 461.00,81.00 460.00,81.00 460.00,71.00 " />
		<polygon fill="#e46b6b" shape-rendering="crispEdges" points="462.00,71.00 462.00,81.00 461.00,81.00 461.00,71.00 " />
		<polygon fill="#e17777" shape-rendering="crispEdges" points="463.00,71.00 463.00,81.00 462.00,81.00 462.00,71.00 " />
		<polygon fill="#de8282" shape-rendering="crispEdges" points="464.00,71.00 464.00,81.00 463.00,81.00 463.00,71.00 " />
		<polygon fill="#e27272" shape-rendering="crispEdges" points="465.00,71.00 465.00,81.00 464.00,81.00 464.00,71.00 " />
		<polygon fill="#e07b7b" shape-rendering="crispEdges" points="466.00,71.00 466.00,81.00 465.00,81.00 465.00,71.00 " />
		<line x1="379.37" y1="71.00" x2="379.37" y2="81.00" stroke="#ff7f7f" stroke-width="1.00" />
		<line x1="379.37" y1="81.00" x2="391.37" y2="81.00" stroke="#ff7f7f" stroke-width="1.00" />
		<line x1="391.37" y1="81.00" x2="391.37" y2="71.00" stroke="#ff7f7f" stroke-width="1.00" />
		<line x1="379.37" y1="71.00" x2="391.37" y2="71.00" stroke="#ff7f7f" stroke-width="1.00" />
		<line x1="379.37" y1="81.00" x2="383.37" y2="71.00" stroke="#ff0000" stroke-width="1.00" />
		<line x1="383.37" y1="71.00" x2="384.37" y2="81.00" stroke="#ff0000" stroke-width="1.00" />
		<line x1="384.37" y1="81.00" x2="386.37" y2="71.00" stroke="#ff0000" stroke-width="1.00" />
		<line x1="386.37" y1="71.00" x2="387.37" y2="81.00" stroke="#ff0000" stroke-width="1.00" />
		<line x1="387.37" y1="81.00" x2="391.37" y2="71.00" stroke="#ff0000" stroke-width="1.00" />
		<text x="358.48" y="79.00" font-family="Helvetica" font-size="10" fill="#124d94" >588</text>
		<line x1="470.48" y1="71.00" x2="470.48" y2="81.00" stroke="#ff7f7f" stroke-width="1.00" />
		<line x1="470.48" y1="81.00" x2="482.48" y2="81.00" stroke="#ff7f7f" stroke-width="1.00" />
		<line x1="482.48" y1="81.00" x2="482.48" y2="71.00" stroke="#ff7f7f" stroke-width="1.00" />
		<line x1="470.48" y1="71.00" x2="482.48" y2="71.00" stroke="#ff7f7f" stroke-width="1.00" />
		<line x1="470.48" y1="81.00" x2="474.48" y2="71.00" stroke="#ff0000" stroke-width="1.00" />
		<line x1="474.48" y1="71.00" x2="475.48" y2="81.00" stroke="#ff0000" stroke-width="1.00" />
		<line x1="475.48" y1="81.00" x2="477.48" y2="71.00" stroke="#ff0000" stroke-width="1.00" />
		<line x1="477.48" y1="71.00" x2="478.48" y2="81.00" stroke="#ff0000" stroke-width="1.00" />
		<line x1="478.48" y1="81.00" x2="482.48" y2="71.00" stroke="#ff0000" stroke-width="1.00" />
		<text x="487.48" y="79.00" font-family="Helvetica" font-size="10" fill="#124d94" >12</text>
		<line x1="428.91" y1="80.00" x2="432.91" y2="76.00" stroke="#000000" stroke-width="1.00" />
		<line x1="432.91" y1="76.00" x2="428.91" y2="72.00" stroke="#000000" stroke-width="1.00" />
		<text x="389.48" y="68.00" font-family="Helvetica" font-size="10" fill="#124d94" >XM_039324894.1</text>
		<polygon fill="url('#gradient2')" shape-rendering="crispEdges" points="0.00,58.00 862.04,58.00 862.04,44.00 0.00,44.00 " clip-path="url('#clipping-rect2')" />
		<text x="0.00" y="54.00" font-family="Helvetica" font-size="12" fill="#333333" >(U) Alignment for group templates, BLAST Results for: XM_039324894:PREDICTED: Crotalus tigris C-X-C...</text>
		<polygon fill="#db7d7d" shape-rendering="crispEdges" points="401.17,101.00 401.17,111.00 396.37,111.00 396.37,101.00 " />
		<line x1="433.93" y1="106.00" x2="441.26" y2="106.00" stroke="#124d94" stroke-width="1.00" />
		<polygon fill="#df7d7d" shape-rendering="crispEdges" points="434.00,101.00 434.00,111.00 433.00,111.00 433.00,101.00 " />
		<polygon fill="#a56c9d" shape-rendering="crispEdges" points="435.00,101.00 435.00,111.00 434.00,111.00 434.00,101.00 " />
		<polygon fill="#db8e8e" shape-rendering="crispEdges" points="436.00,101.00 436.00,111.00 435.00,111.00 435.00,101.00 " />
		<polygon fill="#b2648c" shape-rendering="crispEdges" points="437.00,101.00 437.00,111.00 436.00,111.00 436.00,101.00 " />
		<polygon fill="#dc8b8b" shape-rendering="crispEdges" points="438.00,101.00 438.00,111.00 437.00,111.00 437.00,101.00 " />
		<polygon fill="#de8383" shape-rendering="crispEdges" points="439.00,101.00 439.00,111.00 438.00,111.00 438.00,101.00 " />
		<polygon fill="#8f6baf" shape-rendering="crispEdges" points="440.00,101.00 440.00,111.00 439.00,111.00 439.00,101.00 " />
		<polygon fill="#dd8585" shape-rendering="crispEdges" points="441.00,101.00 441.00,111.00 440.00,111.00 440.00,101.00 " />
		<polygon fill="#da9090" shape-rendering="crispEdges" points="442.00,101.00 442.00,111.00 441.00,111.00 441.00,101.00 " />
		<line x1="457.47" y1="106.00" x2="465.44" y2="106.00" stroke="#124d94" stroke-width="1.00" />
		<polygon fill="#dd8585" shape-rendering="crispEdges" points="458.00,101.00 458.00,111.00 457.00,111.00 457.00,101.00 " />
		<polygon fill="#e27272" shape-rendering="crispEdges" points="459.00,101.00 459.00,111.00 458.00,111.00 458.00,101.00 " />
		<polygon fill="#e07b7b" shape-rendering="crispEdges" points="460.00,101.00 460.00,111.00 459.00,111.00 459.00,101.00 " />
		<polygon fill="#9c5b97" shape-rendering="crispEdges" points="461.00,101.00 461.00,111.00 460.00,111.00 460.00,101.00 " />
		<polygon fill="#de8080" shape-rendering="crispEdges" points="462.00,101.00 462.00,111.00 461.00,111.00 461.00,101.00 " />
		<polygon fill="#b16d95" shape-rendering="crispEdges" points="463.00,101.00 463.00,111.00 462.00,111.00 462.00,101.00 " />
		<polygon fill="#b46088" shape-rendering="crispEdges" points="464.00,101.00 464.00,111.00 463.00,111.00 463.00,101.00 " />
		<polygon fill="#e07b7b" shape-rendering="crispEdges" points="465.00,101.00 465.00,111.00 464.00,111.00 464.00,101.00 " />
		<polygon fill="#e07b7b" shape-rendering="crispEdges" points="466.00,101.00 466.00,111.00 465.00,111.00 465.00,101.00 " />
		<line x1="459.46" y1="110.00" x2="463.46" y2="106.00" stroke="#000000" stroke-width="1.00" />
		<line x1="463.46" y1="106.00" x2="459.46" y2="102.00" stroke="#000000" stroke-width="1.00" />
		<polygon fill="url('#gradient2')" shape-rendering="crispEdges" points="0.00,98.00 862.04,98.00 862.04,84.00 0.00,84.00 " clip-path="url('#clipping-rect2')" />
		<text x="0.00" y="94.00" font-family="Helvetica" font-size="12" fill="#333333" >(U) BLAST Results for: XM_039324894:PREDICTED: Crotalus tigris C-X-C...</text>
		<line x1="0.00" y1="133.00" x2="0.00" y2="161.00" stroke="#009900" stroke-opacity="0.10" stroke-width="1.00" stroke-linejoin="round" />
		<line x1="0.00" y1="161.00" x2="313.52" y2="161.00" stroke="#009900" stroke-opacity="0.10" stroke-width="1.00" stroke-linejoin="round" />
		<line x1="313.52" y1="161.00" x2="313.52" y2="133.00" stroke="#009900" stroke-opacity="0.10" stroke-width="1.00" stroke-linejoin="round" />
		<line x1="0.00" y1="133.00" x2="313.52" y2="133.00" stroke="#009900" stroke-opacity="0.10" stroke-width="1.00" stroke-linejoin="round" />
		<text x="66.63" y="142.00" font-family="Helvetica" font-size="10" fill="#124d94" >E2320_023019</text>
		<line x1="0.00" y1="153.50" x2="1.78" y2="153.50" stroke="#4ba34b" stroke-width="2.00" />
		<polygon fill="#1e8c1e" shape-rendering="crispEdges" points="5.63,148.00 5.63,159.00 1.78,159.00 1.78,148.00 " />
		<line x1="5.63" y1="153.50" x2="20.52" y2="153.50" stroke="#4ba34b" stroke-width="2.00" />
		<polygon fill="#1e8c1e" shape-rendering="crispEdges" points="23.88,148.00 23.88,159.00 20.52,159.00 20.52,148.00 " />
		<line x1="23.88" y1="153.50" x2="33.10" y2="153.50" stroke="#4ba34b" stroke-width="2.00" />
		<polygon fill="#1e8c1e" shape-rendering="crispEdges" points="37.52,148.00 37.52,159.00 33.10,159.00 33.10,148.00 " />
		<line x1="37.52" y1="153.50" x2="107.58" y2="153.50" stroke="#4ba34b" stroke-width="2.00" />
		<polygon fill="#b2b2b2" shape-rendering="crispEdges" points="68.15,153.50 76.95,149.10 74.75,153.50 76.95,157.90 " />
		<polygon fill="#1e8c1e" shape-rendering="crispEdges" points="114.24,148.00 114.24,159.00 107.58,159.00 107.58,148.00 " />
		<line x1="114.24" y1="153.50" x2="117.86" y2="153.50" stroke="#4ba34b" stroke-width="2.00" />
		<polygon fill="#1e8c1e" shape-rendering="crispEdges" points="123.76,148.00 123.76,159.00 117.86,159.00 117.86,148.00 " />
		<line x1="123.76" y1="153.50" x2="127.16" y2="153.50" stroke="#4ba34b" stroke-width="2.00" />
		<polygon fill="#1e8c1e" shape-rendering="crispEdges" points="135.59,148.00 135.59,159.00 127.16,159.00 127.16,148.00 " />
		<line x1="135.59" y1="153.50" x2="174.55" y2="153.50" stroke="#4ba34b" stroke-width="2.00" />
		<polygon fill="#b2b2b2" shape-rendering="crispEdges" points="150.67,153.50 159.47,149.10 157.27,153.50 159.47,157.90 " />
		<polygon fill="#1e8c1e" shape-rendering="crispEdges" points="188.41,148.00 188.41,159.00 174.55,159.00 174.55,148.00 " />
		<polygon fill="#ffffff" shape-rendering="crispEdges" points="70.52,159.00 70.52,148.00 1.00,148.00 1.00,159.00 " />
		<text x="1.00" y="157.00" font-family="Helvetica" font-size="10" fill="#124d94" >KAG8147997.1</text>
		<polygon fill="#ffffff" shape-rendering="crispEdges" points="311.52,159.00 311.52,148.00 192.41,148.00 192.41,159.00 " />
		<text x="192.41" y="157.00" font-family="Helvetica" font-size="10" fill="#124d94" >mRNA-hypothetical protein</text>
		<line x1="166.54" y1="166.00" x2="166.54" y2="194.00" stroke="#009900" stroke-opacity="0.10" stroke-width="1.00" stroke-linejoin="round" />
		<line x1="166.54" y1="194.00" x2="472.09" y2="194.00" stroke="#009900" stroke-opacity="0.10" stroke-width="1.00" stroke-linejoin="round" />
		<line x1="472.09" y1="194.00" x2="472.09" y2="166.00" stroke="#009900" stroke-opacity="0.10" stroke-width="1.00" stroke-linejoin="round" />
		<line x1="166.54" y1="166.00" x2="472.09" y2="166.00" stroke="#009900" stroke-opacity="0.10" stroke-width="1.00" stroke-linejoin="round" />
		<text x="286.01" y="175.00" font-family="Helvetica" font-size="10" fill="#124d94" >E2320_023017</text>
		<polygon fill="#1e8c1e" shape-rendering="crispEdges" points="251.98,181.00 251.98,192.00 239.05,192.00 239.05,181.00 " />
		<line x1="251.98" y1="186.50" x2="265.58" y2="186.50" stroke="#4ba34b" stroke-width="2.00" />
		<polygon fill="#1e8c1e" shape-rendering="crispEdges" points="270.87,181.00 270.87,192.00 265.58,192.00 265.58,181.00 " />
		<line x1="270.87" y1="186.50" x2="299.02" y2="186.50" stroke="#4ba34b" stroke-width="2.00" />
		<polygon fill="#b2b2b2" shape-rendering="crispEdges" points="280.55,186.50 289.35,182.10 287.15,186.50 289.35,190.90 " />
		<polygon fill="#1e8c1e" shape-rendering="crispEdges" points="308.62,181.00 308.62,192.00 299.02,192.00 299.02,181.00 " />
		<line x1="308.62" y1="186.50" x2="318.94" y2="186.50" stroke="#4ba34b" stroke-width="2.00" />
		<polygon fill="#1e8c1e" shape-rendering="crispEdges" points="327.10,181.00 327.10,192.00 318.94,192.00 318.94,181.00 " />
		<line x1="327.10" y1="186.50" x2="346.11" y2="186.50" stroke="#4ba34b" stroke-width="2.00" />
		<polygon fill="#b2b2b2" shape-rendering="crispEdges" points="332.20,186.50 341.00,182.10 338.80,186.50 341.00,190.90 " />
		<polygon fill="#1e8c1e" shape-rendering="crispEdges" points="347.04,181.00 347.04,192.00 346.04,192.00 346.04,181.00 " />
		<polygon fill="#ffffff" shape-rendering="crispEdges" points="239.05,192.00 239.05,181.00 169.54,181.00 169.54,192.00 " />
		<text x="169.54" y="190.00" font-family="Helvetica" font-size="10" fill="#124d94" >KAG8147998.1</text>
		<polygon fill="#ffffff" shape-rendering="crispEdges" points="470.09,192.00 470.09,181.00 350.98,181.00 350.98,192.00 " />
		<text x="350.98" y="190.00" font-family="Helvetica" font-size="10" fill="#124d94" >mRNA-hypothetical protein</text>
		<line x1="624.84" y1="186.00" x2="624.84" y2="214.00" stroke="#009900" stroke-opacity="0.10" stroke-width="1.00" stroke-linejoin="round" />
		<line x1="624.84" y1="214.00" x2="842.53" y2="214.00" stroke="#009900" stroke-opacity="0.10" stroke-width="1.00" stroke-linejoin="round" />
		<line x1="842.53" y1="214.00" x2="842.53" y2="186.00" stroke="#009900" stroke-opacity="0.10" stroke-width="1.00" stroke-linejoin="round" />
		<line x1="624.84" y1="186.00" x2="842.53" y2="186.00" stroke="#009900" stroke-opacity="0.10" stroke-width="1.00" stroke-linejoin="round" />
		<text x="700.43" y="195.00" font-family="Helvetica" font-size="10" fill="#124d94" >E2320_023015</text>
		<polygon fill="#1e8c1e" shape-rendering="crispEdges" points="702.57,201.00 702.57,212.00 697.35,212.00 697.35,201.00 " />
		<line x1="702.57" y1="206.50" x2="705.44" y2="206.50" stroke="#4ba34b" stroke-width="2.00" />
		<polygon fill="#1e8c1e" shape-rendering="crispEdges" points="710.39,201.00 710.39,212.00 705.44,212.00 705.44,201.00 " />
		<line x1="710.39" y1="206.50" x2="713.53" y2="206.50" stroke="#4ba34b" stroke-width="2.00" />
		<polygon fill="#1e8c1e" shape-rendering="crispEdges" points="717.42,201.00 717.42,212.00 713.53,212.00 713.53,201.00 " />
		<polygon fill="#ffffff" shape-rendering="crispEdges" points="697.35,212.00 697.35,201.00 627.84,201.00 627.84,212.00 " />
		<text x="627.84" y="210.00" font-family="Helvetica" font-size="10" fill="#124d94" >KAG8147999.1</text>
		<polygon fill="#ffffff" shape-rendering="crispEdges" points="840.53,212.00 840.53,201.00 721.42,201.00 721.42,212.00 " />
		<text x="721.42" y="210.00" font-family="Helvetica" font-size="10" fill="#124d94" >mRNA-hypothetical protein</text>
		<line x1="622.05" y1="133.00" x2="622.05" y2="161.00" stroke="#009900" stroke-opacity="0.10" stroke-width="1.00" stroke-linejoin="round" />
		<line x1="622.05" y1="161.00" x2="862.00" y2="161.00" stroke="#009900" stroke-opacity="0.10" stroke-width="1.00" stroke-linejoin="round" />
		<line x1="862.00" y1="161.00" x2="862.00" y2="133.00" stroke="#009900" stroke-opacity="0.10" stroke-width="1.00" stroke-linejoin="round" />
		<line x1="622.05" y1="133.00" x2="862.00" y2="133.00" stroke="#009900" stroke-opacity="0.10" stroke-width="1.00" stroke-linejoin="round" />
		<text x="1019.66" y="142.00" font-family="Helvetica" font-size="10" fill="#124d94" >E2320_023012</text>
		<polygon fill="#1e8c1e" shape-rendering="crispEdges" points="760.05,148.00 760.05,159.00 747.16,159.00 747.16,148.00 " />
		<line x1="760.05" y1="153.50" x2="776.71" y2="153.50" stroke="#4ba34b" stroke-width="2.00" />
		<polygon fill="#b2b2b2" shape-rendering="crispEdges" points="772.78,153.50 763.98,149.10 766.18,153.50 763.98,157.90 " />
		<polygon fill="#1e8c1e" shape-rendering="crispEdges" points="786.54,148.00 786.54,159.00 776.71,159.00 776.71,148.00 " />
		<line x1="786.54" y1="153.50" x2="862.00" y2="153.50" stroke="#4ba34b" stroke-width="2.00" />
		<polygon fill="#b2b2b2" shape-rendering="crispEdges" points="828.67,153.50 819.87,149.10 822.07,153.50 819.87,157.90 " />
		<polygon fill="#ffffff" shape-rendering="crispEdges" points="747.16,159.00 747.16,148.00 625.05,148.00 625.05,159.00 " />
		<text x="625.05" y="157.00" font-family="Helvetica" font-size="10" fill="#124d94" >mRNA-hypothetical protein</text>
		<polygon fill="#ffffff" shape-rendering="crispEdges" points="862.04,159.00 862.04,148.00 795.52,148.00 795.52,159.00 " />
		<text x="795.52" y="157.00" font-family="Helvetica" font-size="10" fill="#124d94" >KAG8148000.1</text>
		<line x1="821.53" y1="166.00" x2="821.53" y2="181.00" stroke="#009900" stroke-opacity="0.10" stroke-width="1.00" stroke-linejoin="round" />
		<line x1="821.53" y1="181.00" x2="862.00" y2="181.00" stroke="#009900" stroke-opacity="0.10" stroke-width="1.00" stroke-linejoin="round" />
		<line x1="862.00" y1="181.00" x2="862.00" y2="166.00" stroke="#009900" stroke-opacity="0.10" stroke-width="1.00" stroke-linejoin="round" />
		<line x1="821.53" y1="166.00" x2="862.00" y2="166.00" stroke="#009900" stroke-opacity="0.10" stroke-width="1.00" stroke-linejoin="round" />
		<polygon fill="#8ac38a" shape-rendering="crispEdges" points="827.08,168.00 827.08,179.00 823.53,179.00 823.53,168.00 " />
		<line x1="827.08" y1="173.50" x2="851.83" y2="173.50" stroke="#4ba34b" stroke-width="2.00" />
		<polygon fill="#b2b2b2" shape-rendering="crispEdges" points="835.06,173.50 843.86,169.10 841.66,173.50 843.86,177.90 " />
		<polygon fill="#1e8c1e" shape-rendering="crispEdges" points="853.01,168.00 853.01,179.00 851.83,179.00 851.83,168.00 " />
		<polygon fill="#53a753" shape-rendering="crispEdges" points="853.79,168.00 853.79,179.00 852.79,179.00 852.79,168.00 " />
		<polygon fill="#8ac38a" shape-rendering="crispEdges" points="854.24,168.00 854.24,179.00 853.24,179.00 853.24,168.00 " />
		<line x1="853.91" y1="173.50" x2="857.24" y2="173.50" stroke="#4ba34b" stroke-width="2.00" />
		<polygon fill="#8ac38a" shape-rendering="crispEdges" points="860.26,168.00 860.26,179.00 857.24,179.00 857.24,168.00 " />
		<line x1="860.26" y1="173.50" x2="862.00" y2="173.50" stroke="#4ba34b" stroke-width="2.00" />
		<polygon fill="url('#gradient3')" shape-rendering="crispEdges" points="0.00,128.00 862.04,128.00 862.04,114.00 0.00,114.00 " clip-path="url('#clipping-rect2')" />
		<text x="0.00" y="124.00" font-family="Helvetica" font-size="12" fill="#333333" >Genes, INSDC annotation provided by submitter</text>
		<polygon fill="url('#gradient3')" shape-rendering="crispEdges" points="0.00,230.00 862.04,230.00 862.04,216.00 0.00,216.00 " clip-path="url('#clipping-rect2')" />
		<text x="0.00" y="226.00" font-family="Helvetica" font-size="12" fill="#333333" >Genes, Ensembl release 112</text>
		<polygon fill="#0000ff" fill-opacity="0.20" shape-rendering="crispEdges" points="243.50,31.50 243.50,23.10 243.50,23.10 " />
		<polygon fill="#0000ff" fill-opacity="0.20" shape-rendering="crispEdges" points="243.50,31.50 243.50,31.50 243.50,23.10 " />
		<line x1="243.50" y1="30.50" x2="243.50" y2="23.10" stroke="#0000ff" stroke-opacity="0.40" stroke-width="1.00" />
		<line x1="243.50" y1="30.50" x2="243.50" y2="23.10" stroke="#0000ff" stroke-opacity="0.40" stroke-width="1.00" />
		<polygon fill="#0000ff" shape-rendering="crispEdges" points="237.79,22.35 237.50,20.50 237.79,18.65 238.65,16.97 239.97,15.65 241.65,14.79 243.50,14.50 243.50,26.50 241.65,26.21 239.97,25.35 238.65,24.03 " />
		<polygon fill="#0000ff" fill-opacity="0.60" shape-rendering="crispEdges" points="349.89,26.50 349.89,14.50 243.50,14.50 243.50,26.50 " />
		<text x="245.50" y="23.50" font-family="Helvetica" font-size="10" fill="#ffffff" >serine protease 55-like</text>
		<polygon fill="#0000ff" fill-opacity="0.20" shape-rendering="crispEdges" points="243.28,235.00 243.28,31.00 243.28,31.00 " />
		<polygon fill="#0000ff" fill-opacity="0.20" shape-rendering="crispEdges" points="243.28,235.00 243.28,235.00 243.28,31.00 " />
		<line x1="243.28" y1="234.00" x2="243.28" y2="31.00" stroke="#0000ff" stroke-opacity="0.40" stroke-width="1.00" />
		<line x1="243.28" y1="234.00" x2="243.28" y2="31.00" stroke="#0000ff" stroke-opacity="0.40" stroke-width="1.00" />
		<polygon fill="#0000ff" fill-opacity="0.20" shape-rendering="crispEdges" points="136.50,31.50 136.50,23.10 136.50,23.10 " />
		<polygon fill="#0000ff" fill-opacity="0.20" shape-rendering="crispEdges" points="136.50,31.50 136.50,31.50 136.50,23.10 " />
		<line x1="136.50" y1="30.50" x2="136.50" y2="23.10" stroke="#0000ff" stroke-opacity="0.40" stroke-width="1.00" />
		<line x1="136.50" y1="30.50" x2="136.50" y2="23.10" stroke="#0000ff" stroke-opacity="0.40" stroke-width="1.00" />
		<polygon fill="#0000ff" shape-rendering="crispEdges" points="130.79,22.35 130.50,20.50 130.79,18.65 131.65,16.97 132.97,15.65 134.65,14.79 136.50,14.50 136.50,26.50 134.65,26.21 132.97,25.35 131.65,24.03 " />
		<polygon fill="#0000ff" fill-opacity="0.60" shape-rendering="crispEdges" points="188.45,26.50 188.45,14.50 136.50,14.50 136.50,26.50 " />
		<text x="138.50" y="23.50" font-family="Helvetica" font-size="10" fill="#ffffff" >ZMYND15</text>
		<polygon fill="#0000ff" fill-opacity="0.20" shape-rendering="crispEdges" points="136.16,235.00 136.16,31.00 136.16,31.00 " />
		<polygon fill="#0000ff" fill-opacity="0.20" shape-rendering="crispEdges" points="136.16,235.00 136.16,235.00 136.16,31.00 " />
		<line x1="136.16" y1="234.00" x2="136.16" y2="31.00" stroke="#0000ff" stroke-opacity="0.40" stroke-width="1.00" />
		<line x1="136.16" y1="234.00" x2="136.16" y2="31.00" stroke="#0000ff" stroke-opacity="0.40" stroke-width="1.00" />
		<polygon fill="#0000ff" fill-opacity="0.20" shape-rendering="crispEdges" points="714.50,31.50 714.50,23.10 714.50,23.10 " />
		<polygon fill="#0000ff" fill-opacity="0.20" shape-rendering="crispEdges" points="714.50,31.50 714.50,31.50 714.50,23.10 " />
		<line x1="714.50" y1="30.50" x2="714.50" y2="23.10" stroke="#0000ff" stroke-opacity="0.40" stroke-width="1.00" />
		<line x1="714.50" y1="30.50" x2="714.50" y2="23.10" stroke="#0000ff" stroke-opacity="0.40" stroke-width="1.00" />
		<polygon fill="#0000ff" shape-rendering="crispEdges" points="708.79,22.35 708.50,20.50 708.79,18.65 709.65,16.97 710.97,15.65 712.65,14.79 714.50,14.50 714.50,26.50 712.65,26.21 710.97,25.35 709.65,24.03 " />
		<polygon fill="#0000ff" fill-opacity="0.60" shape-rendering="crispEdges" points="751.00,26.50 751.00,14.50 714.50,14.50 714.50,26.50 " />
		<text x="716.50" y="23.50" font-family="Helvetica" font-size="10" fill="#ffffff" >MED11</text>
		<polygon fill="#0000ff" fill-opacity="0.20" shape-rendering="crispEdges" points="714.83,235.00 714.83,31.00 714.83,31.00 " />
		<polygon fill="#0000ff" fill-opacity="0.20" shape-rendering="crispEdges" points="714.83,235.00 714.83,235.00 714.83,31.00 " />
		<line x1="714.83" y1="234.00" x2="714.83" y2="31.00" stroke="#0000ff" stroke-opacity="0.40" stroke-width="1.00" />
		<line x1="714.83" y1="234.00" x2="714.83" y2="31.00" stroke="#0000ff" stroke-opacity="0.40" stroke-width="1.00" />
		<polygon fill="#e5e5e5" shape-rendering="crispEdges" points="862.00,13.00 862.00,-1.00 0.00,-1.00 0.00,13.00 " />
		<text x="0.00" y="10.00" font-family="Helvetica Bold" font-size="12" text-anchor="start" fill="#000000" >SOZL01001525.1:7415..30226 Naja naja isolate NN01 ScVE01q_1538;HRSCAF=1757, whole genome shotgun sequence</text>
	</g>
</svg>
